<?xml version="1.0" encoding="utf-8" standalone="no"?>
<!DOCTYPE svg PUBLIC "-//W3C//DTD SVG 1.1//EN"
  "http://www.w3.org/Graphics/SVG/1.1/DTD/svg11.dtd">
<svg xmlns:xlink="http://www.w3.org/1999/xlink" width="1073.643125pt" height="462.322656pt" viewBox="0 0 1073.643125 462.322656" xmlns="http://www.w3.org/2000/svg" version="1.1">
 <metadata>
  <rdf:RDF xmlns:dc="http://purl.org/dc/elements/1.1/" xmlns:cc="http://creativecommons.org/ns#" xmlns:rdf="http://www.w3.org/1999/02/22-rdf-syntax-ns#">
   <cc:Work>
    <dc:type rdf:resource="http://purl.org/dc/dcmitype/StillImage"/>
    <dc:date>2024-11-13T14:40:22.542064</dc:date>
    <dc:format>image/svg+xml</dc:format>
    <dc:creator>
     <cc:Agent>
      <dc:title>Matplotlib v3.7.2, https://matplotlib.org/</dc:title>
     </cc:Agent>
    </dc:creator>
   </cc:Work>
  </rdf:RDF>
 </metadata>
 <defs>
  <style type="text/css">*{stroke-linejoin: round; stroke-linecap: butt}</style>
 </defs>
 <g id="figure_1">
  <g id="patch_1">
   <path d="M 0 462.322656 
L 1073.643125 462.322656 
L 1073.643125 0 
L 0 0 
L 0 462.322656 
z
" style="fill: none"/>
  </g>
  <g id="axes_1">
   <g id="patch_2">
    <path d="M 62.043125 356.759531 
L 1066.443125 356.759531 
L 1066.443125 24.119531 
L 62.043125 24.119531 
L 62.043125 356.759531 
z
" style="fill: none"/>
   </g>
   <g id="patch_3">
    <path d="M 78.672264 190.439531 
L 91.975575 190.439531 
L 91.975575 153.462463 
L 78.672264 153.462463 
z
" clip-path="url(#p283069b989)" style="fill: #004d71; opacity: 0.8; stroke: #000000; stroke-linejoin: miter"/>
   </g>
   <g id="patch_4">
    <path d="M 145.18882 190.439531 
L 158.492132 190.439531 
L 158.492132 180.752668 
L 145.18882 180.752668 
z
" clip-path="url(#p283069b989)" style="fill: #004d71; opacity: 0.8; stroke: #000000; stroke-linejoin: miter"/>
   </g>
   <g id="patch_5">
    <path d="M 211.705377 190.439531 
L 225.008688 190.439531 
L 225.008688 158.022645 
L 211.705377 158.022645 
z
" clip-path="url(#p283069b989)" style="fill: #004d71; opacity: 0.8; stroke: #000000; stroke-linejoin: miter"/>
   </g>
   <g id="patch_6">
    <path d="M 278.221933 190.439531 
L 291.525244 190.439531 
L 291.525244 276.048388 
L 278.221933 276.048388 
z
" clip-path="url(#p283069b989)" style="fill: #004d71; opacity: 0.8; stroke: #000000; stroke-linejoin: miter"/>
   </g>
   <g id="patch_7">
    <path d="M 344.738489 190.439531 
L 358.0418 190.439531 
L 358.0418 227.045233 
L 344.738489 227.045233 
z
" clip-path="url(#p283069b989)" style="fill: #004d71; opacity: 0.8; stroke: #000000; stroke-linejoin: miter"/>
   </g>
   <g id="patch_8">
    <path d="M 411.255046 190.439531 
L 424.558357 190.439531 
L 424.558357 176.689377 
L 411.255046 176.689377 
z
" clip-path="url(#p283069b989)" style="fill: #004d71; opacity: 0.8; stroke: #000000; stroke-linejoin: miter"/>
   </g>
   <g id="patch_9">
    <path d="M 477.771602 190.439531 
L 491.074913 190.439531 
L 491.074913 182.065326 
L 477.771602 182.065326 
z
" clip-path="url(#p283069b989)" style="fill: #004d71; opacity: 0.8; stroke: #000000; stroke-linejoin: miter"/>
   </g>
   <g id="patch_10">
    <path d="M 544.288158 190.439531 
L 557.591469 190.439531 
L 557.591469 151.879026 
L 544.288158 151.879026 
z
" clip-path="url(#p283069b989)" style="fill: #004d71; opacity: 0.8; stroke: #000000; stroke-linejoin: miter"/>
   </g>
   <g id="patch_11">
    <path d="M 610.804714 190.439531 
L 624.108026 190.439531 
L 624.108026 140.044997 
L 610.804714 140.044997 
z
" clip-path="url(#p283069b989)" style="fill: #004d71; opacity: 0.8; stroke: #000000; stroke-linejoin: miter"/>
   </g>
   <g id="patch_12">
    <path d="M 677.321271 190.439531 
L 690.624582 190.439531 
L 690.624582 185.507351 
L 677.321271 185.507351 
z
" clip-path="url(#p283069b989)" style="fill: #004d71; opacity: 0.8; stroke: #000000; stroke-linejoin: miter"/>
   </g>
   <g id="patch_13">
    <path d="M 743.837827 190.439531 
L 757.141138 190.439531 
L 757.141138 183.493054 
L 743.837827 183.493054 
z
" clip-path="url(#p283069b989)" style="fill: #004d71; opacity: 0.8; stroke: #000000; stroke-linejoin: miter"/>
   </g>
   <g id="patch_14">
    <path d="M 810.354383 190.439531 
L 823.657695 190.439531 
L 823.657695 185.653948 
L 810.354383 185.653948 
z
" clip-path="url(#p283069b989)" style="fill: #004d71; opacity: 0.8; stroke: #000000; stroke-linejoin: miter"/>
   </g>
   <g id="patch_15">
    <path d="M 876.87094 190.439531 
L 890.174251 190.439531 
L 890.174251 285.713811 
L 876.87094 285.713811 
z
" clip-path="url(#p283069b989)" style="fill: #004d71; opacity: 0.8; stroke: #000000; stroke-linejoin: miter"/>
   </g>
   <g id="patch_16">
    <path d="M 943.387496 190.439531 
L 956.690807 190.439531 
L 956.690807 200.099479 
L 943.387496 200.099479 
z
" clip-path="url(#p283069b989)" style="fill: #004d71; opacity: 0.8; stroke: #000000; stroke-linejoin: miter"/>
   </g>
   <g id="patch_17">
    <path d="M 1009.904052 190.439531 
L 1023.207363 190.439531 
L 1023.207363 182.174291 
L 1009.904052 182.174291 
z
" clip-path="url(#p283069b989)" style="fill: #004d71; opacity: 0.8; stroke: #000000; stroke-linejoin: miter"/>
   </g>
   <g id="patch_18">
    <path d="M 91.975575 190.439531 
L 105.278887 190.439531 
L 105.278887 196.771834 
L 91.975575 196.771834 
z
" clip-path="url(#p283069b989)" style="fill: #aaaaaa; opacity: 0.8; stroke: #000000; stroke-linejoin: miter"/>
   </g>
   <g id="patch_19">
    <path d="M 158.492132 190.439531 
L 171.795443 190.439531 
L 171.795443 267.858208 
L 158.492132 267.858208 
z
" clip-path="url(#p283069b989)" style="fill: #aaaaaa; opacity: 0.8; stroke: #000000; stroke-linejoin: miter"/>
   </g>
   <g id="patch_20">
    <path d="M 225.008688 190.439531 
L 238.311999 190.439531 
L 238.311999 248.730755 
L 225.008688 248.730755 
z
" clip-path="url(#p283069b989)" style="fill: #aaaaaa; opacity: 0.8; stroke: #000000; stroke-linejoin: miter"/>
   </g>
   <g id="patch_21">
    <path d="M 291.525244 190.439531 
L 304.828555 190.439531 
L 304.828555 297.429036 
L 291.525244 297.429036 
z
" clip-path="url(#p283069b989)" style="fill: #aaaaaa; opacity: 0.8; stroke: #000000; stroke-linejoin: miter"/>
   </g>
   <g id="patch_22">
    <path d="M 358.0418 190.439531 
L 371.345112 190.439531 
L 371.345112 276.669401 
L 358.0418 276.669401 
z
" clip-path="url(#p283069b989)" style="fill: #aaaaaa; opacity: 0.8; stroke: #000000; stroke-linejoin: miter"/>
   </g>
   <g id="patch_23">
    <path d="M 424.558357 190.439531 
L 437.861668 190.439531 
L 437.861668 183.626092 
L 424.558357 183.626092 
z
" clip-path="url(#p283069b989)" style="fill: #aaaaaa; opacity: 0.8; stroke: #000000; stroke-linejoin: miter"/>
   </g>
   <g id="patch_24">
    <path d="M 491.074913 190.439531 
L 504.378224 190.439531 
L 504.378224 184.009456 
L 491.074913 184.009456 
z
" clip-path="url(#p283069b989)" style="fill: #aaaaaa; opacity: 0.8; stroke: #000000; stroke-linejoin: miter"/>
   </g>
   <g id="patch_25">
    <path d="M 557.591469 190.439531 
L 570.894781 190.439531 
L 570.894781 186.009686 
L 557.591469 186.009686 
z
" clip-path="url(#p283069b989)" style="fill: #aaaaaa; opacity: 0.8; stroke: #000000; stroke-linejoin: miter"/>
   </g>
   <g id="patch_26">
    <path d="M 624.108026 190.439531 
L 637.411337 190.439531 
L 637.411337 173.038872 
L 624.108026 173.038872 
z
" clip-path="url(#p283069b989)" style="fill: #aaaaaa; opacity: 0.8; stroke: #000000; stroke-linejoin: miter"/>
   </g>
   <g id="patch_27">
    <path d="M 690.624582 190.439531 
L 703.927893 190.439531 
L 703.927893 224.980772 
L 690.624582 224.980772 
z
" clip-path="url(#p283069b989)" style="fill: #aaaaaa; opacity: 0.8; stroke: #000000; stroke-linejoin: miter"/>
   </g>
   <g id="patch_28">
    <path d="M 757.141138 190.439531 
L 770.44445 190.439531 
L 770.44445 184.415452 
L 757.141138 184.415452 
z
" clip-path="url(#p283069b989)" style="fill: #aaaaaa; opacity: 0.8; stroke: #000000; stroke-linejoin: miter"/>
   </g>
   <g id="patch_29">
    <path d="M 823.657695 190.439531 
L 836.961006 190.439531 
L 836.961006 183.769832 
L 823.657695 183.769832 
z
" clip-path="url(#p283069b989)" style="fill: #aaaaaa; opacity: 0.8; stroke: #000000; stroke-linejoin: miter"/>
   </g>
   <g id="patch_30">
    <path d="M 890.174251 190.439531 
L 903.477562 190.439531 
L 903.477562 321.39109 
L 890.174251 321.39109 
z
" clip-path="url(#p283069b989)" style="fill: #aaaaaa; opacity: 0.8; stroke: #000000; stroke-linejoin: miter"/>
   </g>
   <g id="patch_31">
    <path d="M 956.690807 190.439531 
L 969.994118 190.439531 
L 969.994118 192.070455 
L 956.690807 192.070455 
z
" clip-path="url(#p283069b989)" style="fill: #aaaaaa; opacity: 0.8; stroke: #000000; stroke-linejoin: miter"/>
   </g>
   <g id="patch_32">
    <path d="M 1023.207363 190.439531 
L 1036.510675 190.439531 
L 1036.510675 185.841084 
L 1023.207363 185.841084 
z
" clip-path="url(#p283069b989)" style="fill: #aaaaaa; opacity: 0.8; stroke: #000000; stroke-linejoin: miter"/>
   </g>
   <g id="patch_33">
    <path d="M 105.278887 190.439531 
L 118.582198 190.439531 
L 118.582198 253.527081 
L 105.278887 253.527081 
z
" clip-path="url(#p283069b989)" style="fill: #ffa600; opacity: 0.8; stroke: #000000; stroke-linejoin: miter"/>
   </g>
   <g id="patch_34">
    <path d="M 171.795443 190.439531 
L 185.098754 190.439531 
L 185.098754 331.271817 
L 171.795443 331.271817 
z
" clip-path="url(#p283069b989)" style="fill: #ffa600; opacity: 0.8; stroke: #000000; stroke-linejoin: miter"/>
   </g>
   <g id="patch_35">
    <path d="M 238.311999 190.439531 
L 251.61531 190.439531 
L 251.61531 324.073409 
L 238.311999 324.073409 
z
" clip-path="url(#p283069b989)" style="fill: #ffa600; opacity: 0.8; stroke: #000000; stroke-linejoin: miter"/>
   </g>
   <g id="patch_36">
    <path d="M 304.828555 190.439531 
L 318.131867 190.439531 
L 318.131867 308.299598 
L 304.828555 308.299598 
z
" clip-path="url(#p283069b989)" style="fill: #ffa600; opacity: 0.8; stroke: #000000; stroke-linejoin: miter"/>
   </g>
   <g id="patch_37">
    <path d="M 371.345112 190.439531 
L 384.648423 190.439531 
L 384.648423 298.497713 
L 371.345112 298.497713 
z
" clip-path="url(#p283069b989)" style="fill: #ffa600; opacity: 0.8; stroke: #000000; stroke-linejoin: miter"/>
   </g>
   <g id="patch_38">
    <path d="M 437.861668 190.439531 
L 451.164979 190.439531 
L 451.164979 198.77279 
L 437.861668 198.77279 
z
" clip-path="url(#p283069b989)" style="fill: #ffa600; opacity: 0.8; stroke: #000000; stroke-linejoin: miter"/>
   </g>
   <g id="patch_39">
    <path d="M 504.378224 190.439531 
L 517.681536 190.439531 
L 517.681536 194.61959 
L 504.378224 194.61959 
z
" clip-path="url(#p283069b989)" style="fill: #ffa600; opacity: 0.8; stroke: #000000; stroke-linejoin: miter"/>
   </g>
   <g id="patch_40">
    <path d="M 570.894781 190.439531 
L 584.198092 190.439531 
L 584.198092 207.782797 
L 570.894781 207.782797 
z
" clip-path="url(#p283069b989)" style="fill: #ffa600; opacity: 0.8; stroke: #000000; stroke-linejoin: miter"/>
   </g>
   <g id="patch_41">
    <path d="M 637.411337 190.439531 
L 650.714648 190.439531 
L 650.714648 203.500402 
L 637.411337 203.500402 
z
" clip-path="url(#p283069b989)" style="fill: #ffa600; opacity: 0.8; stroke: #000000; stroke-linejoin: miter"/>
   </g>
   <g id="patch_42">
    <path d="M 703.927893 190.439531 
L 717.231204 190.439531 
L 717.231204 270.01281 
L 703.927893 270.01281 
z
" clip-path="url(#p283069b989)" style="fill: #ffa600; opacity: 0.8; stroke: #000000; stroke-linejoin: miter"/>
   </g>
   <g id="patch_43">
    <path d="M 770.44445 190.439531 
L 783.747761 190.439531 
L 783.747761 196.365012 
L 770.44445 196.365012 
z
" clip-path="url(#p283069b989)" style="fill: #ffa600; opacity: 0.8; stroke: #000000; stroke-linejoin: miter"/>
   </g>
   <g id="patch_44">
    <path d="M 836.961006 190.439531 
L 850.264317 190.439531 
L 850.264317 195.41962 
L 836.961006 195.41962 
z
" clip-path="url(#p283069b989)" style="fill: #ffa600; opacity: 0.8; stroke: #000000; stroke-linejoin: miter"/>
   </g>
   <g id="patch_45">
    <path d="M 903.477562 190.439531 
L 916.780873 190.439531 
L 916.780873 188.330725 
L 903.477562 188.330725 
z
" clip-path="url(#p283069b989)" style="fill: #ffa600; opacity: 0.8; stroke: #000000; stroke-linejoin: miter"/>
   </g>
   <g id="patch_46">
    <path d="M 969.994118 190.439531 
L 983.29743 190.439531 
L 983.29743 182.49066 
L 969.994118 182.49066 
z
" clip-path="url(#p283069b989)" style="fill: #ffa600; opacity: 0.8; stroke: #000000; stroke-linejoin: miter"/>
   </g>
   <g id="patch_47">
    <path d="M 1036.510675 190.439531 
L 1049.813986 190.439531 
L 1049.813986 191.734815 
L 1036.510675 191.734815 
z
" clip-path="url(#p283069b989)" style="fill: #ffa600; opacity: 0.8; stroke: #000000; stroke-linejoin: miter"/>
   </g>
   <g id="matplotlib.axis_1">
    <g id="xtick_1">
     <g id="line2d_1">
      <defs>
       <path id="m20a5371ee7" d="M 0 0 
L 0 3.5 
" style="stroke: #000000; stroke-width: 0.8"/>
      </defs>
      <g>
       <use xlink:href="#m20a5371ee7" x="98.627231" y="356.759531" style="stroke: #000000; stroke-width: 0.8"/>
      </g>
     </g>
     <g id="text_1">
      <!-- Promoters -->
      <g transform="translate(101.729418 419.103906) rotate(-90) scale(0.12 -0.12)">
       <defs>
        <path id="ArialMT-50" d="M 494 0 
L 494 4581 
L 2222 4581 
Q 2678 4581 2919 4538 
Q 3256 4481 3484 4323 
Q 3713 4166 3852 3881 
Q 3991 3597 3991 3256 
Q 3991 2672 3619 2267 
Q 3247 1863 2275 1863 
L 1100 1863 
L 1100 0 
L 494 0 
z
M 1100 2403 
L 2284 2403 
Q 2872 2403 3119 2622 
Q 3366 2841 3366 3238 
Q 3366 3525 3220 3729 
Q 3075 3934 2838 4000 
Q 2684 4041 2272 4041 
L 1100 4041 
L 1100 2403 
z
" transform="scale(0.015625)"/>
        <path id="ArialMT-72" d="M 416 0 
L 416 3319 
L 922 3319 
L 922 2816 
Q 1116 3169 1280 3281 
Q 1444 3394 1641 3394 
Q 1925 3394 2219 3213 
L 2025 2691 
Q 1819 2813 1613 2813 
Q 1428 2813 1281 2702 
Q 1134 2591 1072 2394 
Q 978 2094 978 1738 
L 978 0 
L 416 0 
z
" transform="scale(0.015625)"/>
        <path id="ArialMT-6f" d="M 213 1659 
Q 213 2581 725 3025 
Q 1153 3394 1769 3394 
Q 2453 3394 2887 2945 
Q 3322 2497 3322 1706 
Q 3322 1066 3130 698 
Q 2938 331 2570 128 
Q 2203 -75 1769 -75 
Q 1072 -75 642 372 
Q 213 819 213 1659 
z
M 791 1659 
Q 791 1022 1069 705 
Q 1347 388 1769 388 
Q 2188 388 2466 706 
Q 2744 1025 2744 1678 
Q 2744 2294 2464 2611 
Q 2184 2928 1769 2928 
Q 1347 2928 1069 2612 
Q 791 2297 791 1659 
z
" transform="scale(0.015625)"/>
        <path id="ArialMT-6d" d="M 422 0 
L 422 3319 
L 925 3319 
L 925 2853 
Q 1081 3097 1340 3245 
Q 1600 3394 1931 3394 
Q 2300 3394 2536 3241 
Q 2772 3088 2869 2813 
Q 3263 3394 3894 3394 
Q 4388 3394 4653 3120 
Q 4919 2847 4919 2278 
L 4919 0 
L 4359 0 
L 4359 2091 
Q 4359 2428 4304 2576 
Q 4250 2725 4106 2815 
Q 3963 2906 3769 2906 
Q 3419 2906 3187 2673 
Q 2956 2441 2956 1928 
L 2956 0 
L 2394 0 
L 2394 2156 
Q 2394 2531 2256 2718 
Q 2119 2906 1806 2906 
Q 1569 2906 1367 2781 
Q 1166 2656 1075 2415 
Q 984 2175 984 1722 
L 984 0 
L 422 0 
z
" transform="scale(0.015625)"/>
        <path id="ArialMT-74" d="M 1650 503 
L 1731 6 
Q 1494 -44 1306 -44 
Q 1000 -44 831 53 
Q 663 150 594 308 
Q 525 466 525 972 
L 525 2881 
L 113 2881 
L 113 3319 
L 525 3319 
L 525 4141 
L 1084 4478 
L 1084 3319 
L 1650 3319 
L 1650 2881 
L 1084 2881 
L 1084 941 
Q 1084 700 1114 631 
Q 1144 563 1211 522 
Q 1278 481 1403 481 
Q 1497 481 1650 503 
z
" transform="scale(0.015625)"/>
        <path id="ArialMT-65" d="M 2694 1069 
L 3275 997 
Q 3138 488 2766 206 
Q 2394 -75 1816 -75 
Q 1088 -75 661 373 
Q 234 822 234 1631 
Q 234 2469 665 2931 
Q 1097 3394 1784 3394 
Q 2450 3394 2872 2941 
Q 3294 2488 3294 1666 
Q 3294 1616 3291 1516 
L 816 1516 
Q 847 969 1125 678 
Q 1403 388 1819 388 
Q 2128 388 2347 550 
Q 2566 713 2694 1069 
z
M 847 1978 
L 2700 1978 
Q 2663 2397 2488 2606 
Q 2219 2931 1791 2931 
Q 1403 2931 1139 2672 
Q 875 2413 847 1978 
z
" transform="scale(0.015625)"/>
        <path id="ArialMT-73" d="M 197 991 
L 753 1078 
Q 800 744 1014 566 
Q 1228 388 1613 388 
Q 2000 388 2187 545 
Q 2375 703 2375 916 
Q 2375 1106 2209 1216 
Q 2094 1291 1634 1406 
Q 1016 1563 777 1677 
Q 538 1791 414 1992 
Q 291 2194 291 2438 
Q 291 2659 392 2848 
Q 494 3038 669 3163 
Q 800 3259 1026 3326 
Q 1253 3394 1513 3394 
Q 1903 3394 2198 3281 
Q 2494 3169 2634 2976 
Q 2775 2784 2828 2463 
L 2278 2388 
Q 2241 2644 2061 2787 
Q 1881 2931 1553 2931 
Q 1166 2931 1000 2803 
Q 834 2675 834 2503 
Q 834 2394 903 2306 
Q 972 2216 1119 2156 
Q 1203 2125 1616 2013 
Q 2213 1853 2448 1751 
Q 2684 1650 2818 1456 
Q 2953 1263 2953 975 
Q 2953 694 2789 445 
Q 2625 197 2315 61 
Q 2006 -75 1616 -75 
Q 969 -75 630 194 
Q 291 463 197 991 
z
" transform="scale(0.015625)"/>
       </defs>
       <use xlink:href="#ArialMT-50"/>
       <use xlink:href="#ArialMT-72" x="66.699219"/>
       <use xlink:href="#ArialMT-6f" x="100"/>
       <use xlink:href="#ArialMT-6d" x="155.615234"/>
       <use xlink:href="#ArialMT-6f" x="238.916016"/>
       <use xlink:href="#ArialMT-74" x="294.53125"/>
       <use xlink:href="#ArialMT-65" x="322.314453"/>
       <use xlink:href="#ArialMT-72" x="377.929688"/>
       <use xlink:href="#ArialMT-73" x="411.230469"/>
      </g>
     </g>
    </g>
    <g id="xtick_2">
     <g id="line2d_2">
      <g>
       <use xlink:href="#m20a5371ee7" x="165.143787" y="356.759531" style="stroke: #000000; stroke-width: 0.8"/>
      </g>
     </g>
     <g id="text_2">
      <!-- 5' UTRs -->
      <g transform="translate(161.741787 430.921094) rotate(-90) scale(0.12 -0.12)">
       <defs>
        <path id="ArialMT-35" d="M 266 1200 
L 856 1250 
Q 922 819 1161 601 
Q 1400 384 1738 384 
Q 2144 384 2425 690 
Q 2706 997 2706 1503 
Q 2706 1984 2436 2262 
Q 2166 2541 1728 2541 
Q 1456 2541 1237 2417 
Q 1019 2294 894 2097 
L 366 2166 
L 809 4519 
L 3088 4519 
L 3088 3981 
L 1259 3981 
L 1013 2750 
Q 1425 3038 1878 3038 
Q 2478 3038 2890 2622 
Q 3303 2206 3303 1553 
Q 3303 931 2941 478 
Q 2500 -78 1738 -78 
Q 1113 -78 717 272 
Q 322 622 266 1200 
z
" transform="scale(0.015625)"/>
        <path id="ArialMT-27" d="M 425 2959 
L 281 3816 
L 281 4581 
L 922 4581 
L 922 3816 
L 772 2959 
L 425 2959 
z
" transform="scale(0.015625)"/>
        <path id="ArialMT-20" transform="scale(0.015625)"/>
        <path id="ArialMT-55" d="M 3500 4581 
L 4106 4581 
L 4106 1934 
Q 4106 1244 3950 837 
Q 3794 431 3386 176 
Q 2978 -78 2316 -78 
Q 1672 -78 1262 144 
Q 853 366 678 786 
Q 503 1206 503 1934 
L 503 4581 
L 1109 4581 
L 1109 1938 
Q 1109 1341 1220 1058 
Q 1331 775 1601 622 
Q 1872 469 2263 469 
Q 2931 469 3215 772 
Q 3500 1075 3500 1938 
L 3500 4581 
z
" transform="scale(0.015625)"/>
        <path id="ArialMT-54" d="M 1659 0 
L 1659 4041 
L 150 4041 
L 150 4581 
L 3781 4581 
L 3781 4041 
L 2266 4041 
L 2266 0 
L 1659 0 
z
" transform="scale(0.015625)"/>
        <path id="ArialMT-52" d="M 503 0 
L 503 4581 
L 2534 4581 
Q 3147 4581 3465 4457 
Q 3784 4334 3975 4021 
Q 4166 3709 4166 3331 
Q 4166 2844 3850 2509 
Q 3534 2175 2875 2084 
Q 3116 1969 3241 1856 
Q 3506 1613 3744 1247 
L 4541 0 
L 3778 0 
L 3172 953 
Q 2906 1366 2734 1584 
Q 2563 1803 2427 1890 
Q 2291 1978 2150 2013 
Q 2047 2034 1813 2034 
L 1109 2034 
L 1109 0 
L 503 0 
z
M 1109 2559 
L 2413 2559 
Q 2828 2559 3062 2645 
Q 3297 2731 3419 2920 
Q 3541 3109 3541 3331 
Q 3541 3656 3305 3865 
Q 3069 4075 2559 4075 
L 1109 4075 
L 1109 2559 
z
" transform="scale(0.015625)"/>
       </defs>
       <use xlink:href="#ArialMT-35"/>
       <use xlink:href="#ArialMT-27" x="55.615234"/>
       <use xlink:href="#ArialMT-20" x="74.707031"/>
       <use xlink:href="#ArialMT-55" x="102.490234"/>
       <use xlink:href="#ArialMT-54" x="174.707031"/>
       <use xlink:href="#ArialMT-52" x="235.791016"/>
       <use xlink:href="#ArialMT-73" x="308.007812"/>
      </g>
      <!-- (non-transcribed) -->
      <g transform="translate(174.609537 455.122656) rotate(-90) scale(0.12 -0.12)">
       <defs>
        <path id="ArialMT-28" d="M 1497 -1347 
Q 1031 -759 709 28 
Q 388 816 388 1659 
Q 388 2403 628 3084 
Q 909 3875 1497 4659 
L 1900 4659 
Q 1522 4009 1400 3731 
Q 1209 3300 1100 2831 
Q 966 2247 966 1656 
Q 966 153 1900 -1347 
L 1497 -1347 
z
" transform="scale(0.015625)"/>
        <path id="ArialMT-6e" d="M 422 0 
L 422 3319 
L 928 3319 
L 928 2847 
Q 1294 3394 1984 3394 
Q 2284 3394 2536 3286 
Q 2788 3178 2913 3003 
Q 3038 2828 3088 2588 
Q 3119 2431 3119 2041 
L 3119 0 
L 2556 0 
L 2556 2019 
Q 2556 2363 2490 2533 
Q 2425 2703 2258 2804 
Q 2091 2906 1866 2906 
Q 1506 2906 1245 2678 
Q 984 2450 984 1813 
L 984 0 
L 422 0 
z
" transform="scale(0.015625)"/>
        <path id="ArialMT-2d" d="M 203 1375 
L 203 1941 
L 1931 1941 
L 1931 1375 
L 203 1375 
z
" transform="scale(0.015625)"/>
        <path id="ArialMT-61" d="M 2588 409 
Q 2275 144 1986 34 
Q 1697 -75 1366 -75 
Q 819 -75 525 192 
Q 231 459 231 875 
Q 231 1119 342 1320 
Q 453 1522 633 1644 
Q 813 1766 1038 1828 
Q 1203 1872 1538 1913 
Q 2219 1994 2541 2106 
Q 2544 2222 2544 2253 
Q 2544 2597 2384 2738 
Q 2169 2928 1744 2928 
Q 1347 2928 1158 2789 
Q 969 2650 878 2297 
L 328 2372 
Q 403 2725 575 2942 
Q 747 3159 1072 3276 
Q 1397 3394 1825 3394 
Q 2250 3394 2515 3294 
Q 2781 3194 2906 3042 
Q 3031 2891 3081 2659 
Q 3109 2516 3109 2141 
L 3109 1391 
Q 3109 606 3145 398 
Q 3181 191 3288 0 
L 2700 0 
Q 2613 175 2588 409 
z
M 2541 1666 
Q 2234 1541 1622 1453 
Q 1275 1403 1131 1340 
Q 988 1278 909 1158 
Q 831 1038 831 891 
Q 831 666 1001 516 
Q 1172 366 1500 366 
Q 1825 366 2078 508 
Q 2331 650 2450 897 
Q 2541 1088 2541 1459 
L 2541 1666 
z
" transform="scale(0.015625)"/>
        <path id="ArialMT-63" d="M 2588 1216 
L 3141 1144 
Q 3050 572 2676 248 
Q 2303 -75 1759 -75 
Q 1078 -75 664 370 
Q 250 816 250 1647 
Q 250 2184 428 2587 
Q 606 2991 970 3192 
Q 1334 3394 1763 3394 
Q 2303 3394 2647 3120 
Q 2991 2847 3088 2344 
L 2541 2259 
Q 2463 2594 2264 2762 
Q 2066 2931 1784 2931 
Q 1359 2931 1093 2626 
Q 828 2322 828 1663 
Q 828 994 1084 691 
Q 1341 388 1753 388 
Q 2084 388 2306 591 
Q 2528 794 2588 1216 
z
" transform="scale(0.015625)"/>
        <path id="ArialMT-69" d="M 425 3934 
L 425 4581 
L 988 4581 
L 988 3934 
L 425 3934 
z
M 425 0 
L 425 3319 
L 988 3319 
L 988 0 
L 425 0 
z
" transform="scale(0.015625)"/>
        <path id="ArialMT-62" d="M 941 0 
L 419 0 
L 419 4581 
L 981 4581 
L 981 2947 
Q 1338 3394 1891 3394 
Q 2197 3394 2470 3270 
Q 2744 3147 2920 2923 
Q 3097 2700 3197 2384 
Q 3297 2069 3297 1709 
Q 3297 856 2875 390 
Q 2453 -75 1863 -75 
Q 1275 -75 941 416 
L 941 0 
z
M 934 1684 
Q 934 1088 1097 822 
Q 1363 388 1816 388 
Q 2184 388 2453 708 
Q 2722 1028 2722 1663 
Q 2722 2313 2464 2622 
Q 2206 2931 1841 2931 
Q 1472 2931 1203 2611 
Q 934 2291 934 1684 
z
" transform="scale(0.015625)"/>
        <path id="ArialMT-64" d="M 2575 0 
L 2575 419 
Q 2259 -75 1647 -75 
Q 1250 -75 917 144 
Q 584 363 401 755 
Q 219 1147 219 1656 
Q 219 2153 384 2558 
Q 550 2963 881 3178 
Q 1213 3394 1622 3394 
Q 1922 3394 2156 3267 
Q 2391 3141 2538 2938 
L 2538 4581 
L 3097 4581 
L 3097 0 
L 2575 0 
z
M 797 1656 
Q 797 1019 1065 703 
Q 1334 388 1700 388 
Q 2069 388 2326 689 
Q 2584 991 2584 1609 
Q 2584 2291 2321 2609 
Q 2059 2928 1675 2928 
Q 1300 2928 1048 2622 
Q 797 2316 797 1656 
z
" transform="scale(0.015625)"/>
        <path id="ArialMT-29" d="M 791 -1347 
L 388 -1347 
Q 1322 153 1322 1656 
Q 1322 2244 1188 2822 
Q 1081 3291 891 3722 
Q 769 4003 388 4659 
L 791 4659 
Q 1378 3875 1659 3084 
Q 1900 2403 1900 1659 
Q 1900 816 1576 28 
Q 1253 -759 791 -1347 
z
" transform="scale(0.015625)"/>
       </defs>
       <use xlink:href="#ArialMT-28"/>
       <use xlink:href="#ArialMT-6e" x="33.300781"/>
       <use xlink:href="#ArialMT-6f" x="88.916016"/>
       <use xlink:href="#ArialMT-6e" x="144.53125"/>
       <use xlink:href="#ArialMT-2d" x="200.146484"/>
       <use xlink:href="#ArialMT-74" x="233.447266"/>
       <use xlink:href="#ArialMT-72" x="261.230469"/>
       <use xlink:href="#ArialMT-61" x="294.53125"/>
       <use xlink:href="#ArialMT-6e" x="350.146484"/>
       <use xlink:href="#ArialMT-73" x="405.761719"/>
       <use xlink:href="#ArialMT-63" x="455.761719"/>
       <use xlink:href="#ArialMT-72" x="505.761719"/>
       <use xlink:href="#ArialMT-69" x="539.0625"/>
       <use xlink:href="#ArialMT-62" x="561.279297"/>
       <use xlink:href="#ArialMT-65" x="616.894531"/>
       <use xlink:href="#ArialMT-64" x="672.509766"/>
       <use xlink:href="#ArialMT-29" x="728.125"/>
      </g>
     </g>
    </g>
    <g id="xtick_3">
     <g id="line2d_3">
      <g>
       <use xlink:href="#m20a5371ee7" x="231.660344" y="356.759531" style="stroke: #000000; stroke-width: 0.8"/>
      </g>
     </g>
     <g id="text_3">
      <!-- 5' UTRs -->
      <g transform="translate(228.258344 418.913594) rotate(-90) scale(0.12 -0.12)">
       <use xlink:href="#ArialMT-35"/>
       <use xlink:href="#ArialMT-27" x="55.615234"/>
       <use xlink:href="#ArialMT-20" x="74.707031"/>
       <use xlink:href="#ArialMT-55" x="102.490234"/>
       <use xlink:href="#ArialMT-54" x="174.707031"/>
       <use xlink:href="#ArialMT-52" x="235.791016"/>
       <use xlink:href="#ArialMT-73" x="308.007812"/>
      </g>
      <!-- (transcribed) -->
      <g transform="translate(241.126094 431.107656) rotate(-90) scale(0.12 -0.12)">
       <use xlink:href="#ArialMT-28"/>
       <use xlink:href="#ArialMT-74" x="33.300781"/>
       <use xlink:href="#ArialMT-72" x="61.083984"/>
       <use xlink:href="#ArialMT-61" x="94.384766"/>
       <use xlink:href="#ArialMT-6e" x="150"/>
       <use xlink:href="#ArialMT-73" x="205.615234"/>
       <use xlink:href="#ArialMT-63" x="255.615234"/>
       <use xlink:href="#ArialMT-72" x="305.615234"/>
       <use xlink:href="#ArialMT-69" x="338.916016"/>
       <use xlink:href="#ArialMT-62" x="361.132812"/>
       <use xlink:href="#ArialMT-65" x="416.748047"/>
       <use xlink:href="#ArialMT-64" x="472.363281"/>
       <use xlink:href="#ArialMT-29" x="527.978516"/>
      </g>
     </g>
    </g>
    <g id="xtick_4">
     <g id="line2d_4">
      <g>
       <use xlink:href="#m20a5371ee7" x="298.1769" y="356.759531" style="stroke: #000000; stroke-width: 0.8"/>
      </g>
     </g>
     <g id="text_4">
      <!-- Protein-coding -->
      <g transform="translate(288.358462 448.127969) rotate(-90) scale(0.12 -0.12)">
       <defs>
        <path id="ArialMT-67" d="M 319 -275 
L 866 -356 
Q 900 -609 1056 -725 
Q 1266 -881 1628 -881 
Q 2019 -881 2231 -725 
Q 2444 -569 2519 -288 
Q 2563 -116 2559 434 
Q 2191 0 1641 0 
Q 956 0 581 494 
Q 206 988 206 1678 
Q 206 2153 378 2554 
Q 550 2956 876 3175 
Q 1203 3394 1644 3394 
Q 2231 3394 2613 2919 
L 2613 3319 
L 3131 3319 
L 3131 450 
Q 3131 -325 2973 -648 
Q 2816 -972 2473 -1159 
Q 2131 -1347 1631 -1347 
Q 1038 -1347 672 -1080 
Q 306 -813 319 -275 
z
M 784 1719 
Q 784 1066 1043 766 
Q 1303 466 1694 466 
Q 2081 466 2343 764 
Q 2606 1063 2606 1700 
Q 2606 2309 2336 2618 
Q 2066 2928 1684 2928 
Q 1309 2928 1046 2623 
Q 784 2319 784 1719 
z
" transform="scale(0.015625)"/>
       </defs>
       <use xlink:href="#ArialMT-50"/>
       <use xlink:href="#ArialMT-72" x="66.699219"/>
       <use xlink:href="#ArialMT-6f" x="100"/>
       <use xlink:href="#ArialMT-74" x="155.615234"/>
       <use xlink:href="#ArialMT-65" x="183.398438"/>
       <use xlink:href="#ArialMT-69" x="239.013672"/>
       <use xlink:href="#ArialMT-6e" x="261.230469"/>
       <use xlink:href="#ArialMT-2d" x="316.845703"/>
       <use xlink:href="#ArialMT-63" x="350.146484"/>
       <use xlink:href="#ArialMT-6f" x="400.146484"/>
       <use xlink:href="#ArialMT-64" x="455.761719"/>
       <use xlink:href="#ArialMT-69" x="511.376953"/>
       <use xlink:href="#ArialMT-6e" x="533.59375"/>
       <use xlink:href="#ArialMT-67" x="589.208984"/>
      </g>
      <!-- sequences -->
      <g transform="translate(301.191337 438.460469) rotate(-90) scale(0.12 -0.12)">
       <defs>
        <path id="ArialMT-71" d="M 2538 -1272 
L 2538 353 
Q 2406 169 2170 47 
Q 1934 -75 1669 -75 
Q 1078 -75 651 397 
Q 225 869 225 1691 
Q 225 2191 398 2587 
Q 572 2984 901 3189 
Q 1231 3394 1625 3394 
Q 2241 3394 2594 2875 
L 2594 3319 
L 3100 3319 
L 3100 -1272 
L 2538 -1272 
z
M 803 1669 
Q 803 1028 1072 708 
Q 1341 388 1716 388 
Q 2075 388 2334 692 
Q 2594 997 2594 1619 
Q 2594 2281 2320 2615 
Q 2047 2950 1678 2950 
Q 1313 2950 1058 2639 
Q 803 2328 803 1669 
z
" transform="scale(0.015625)"/>
        <path id="ArialMT-75" d="M 2597 0 
L 2597 488 
Q 2209 -75 1544 -75 
Q 1250 -75 995 37 
Q 741 150 617 320 
Q 494 491 444 738 
Q 409 903 409 1263 
L 409 3319 
L 972 3319 
L 972 1478 
Q 972 1038 1006 884 
Q 1059 663 1231 536 
Q 1403 409 1656 409 
Q 1909 409 2131 539 
Q 2353 669 2445 892 
Q 2538 1116 2538 1541 
L 2538 3319 
L 3100 3319 
L 3100 0 
L 2597 0 
z
" transform="scale(0.015625)"/>
       </defs>
       <use xlink:href="#ArialMT-73"/>
       <use xlink:href="#ArialMT-65" x="50"/>
       <use xlink:href="#ArialMT-71" x="105.615234"/>
       <use xlink:href="#ArialMT-75" x="161.230469"/>
       <use xlink:href="#ArialMT-65" x="216.845703"/>
       <use xlink:href="#ArialMT-6e" x="272.460938"/>
       <use xlink:href="#ArialMT-63" x="328.076172"/>
       <use xlink:href="#ArialMT-65" x="378.076172"/>
       <use xlink:href="#ArialMT-73" x="433.691406"/>
      </g>
      <!-- (non-transcribed) -->
      <g transform="translate(314.059087 455.122656) rotate(-90) scale(0.12 -0.12)">
       <use xlink:href="#ArialMT-28"/>
       <use xlink:href="#ArialMT-6e" x="33.300781"/>
       <use xlink:href="#ArialMT-6f" x="88.916016"/>
       <use xlink:href="#ArialMT-6e" x="144.53125"/>
       <use xlink:href="#ArialMT-2d" x="200.146484"/>
       <use xlink:href="#ArialMT-74" x="233.447266"/>
       <use xlink:href="#ArialMT-72" x="261.230469"/>
       <use xlink:href="#ArialMT-61" x="294.53125"/>
       <use xlink:href="#ArialMT-6e" x="350.146484"/>
       <use xlink:href="#ArialMT-73" x="405.761719"/>
       <use xlink:href="#ArialMT-63" x="455.761719"/>
       <use xlink:href="#ArialMT-72" x="505.761719"/>
       <use xlink:href="#ArialMT-69" x="539.0625"/>
       <use xlink:href="#ArialMT-62" x="561.279297"/>
       <use xlink:href="#ArialMT-65" x="616.894531"/>
       <use xlink:href="#ArialMT-64" x="672.509766"/>
       <use xlink:href="#ArialMT-29" x="728.125"/>
      </g>
     </g>
    </g>
    <g id="xtick_5">
     <g id="line2d_5">
      <g>
       <use xlink:href="#m20a5371ee7" x="364.693456" y="356.759531" style="stroke: #000000; stroke-width: 0.8"/>
      </g>
     </g>
     <g id="text_5">
      <!-- Protein-coding -->
      <g transform="translate(354.875019 441.133281) rotate(-90) scale(0.12 -0.12)">
       <use xlink:href="#ArialMT-50"/>
       <use xlink:href="#ArialMT-72" x="66.699219"/>
       <use xlink:href="#ArialMT-6f" x="100"/>
       <use xlink:href="#ArialMT-74" x="155.615234"/>
       <use xlink:href="#ArialMT-65" x="183.398438"/>
       <use xlink:href="#ArialMT-69" x="239.013672"/>
       <use xlink:href="#ArialMT-6e" x="261.230469"/>
       <use xlink:href="#ArialMT-2d" x="316.845703"/>
       <use xlink:href="#ArialMT-63" x="350.146484"/>
       <use xlink:href="#ArialMT-6f" x="400.146484"/>
       <use xlink:href="#ArialMT-64" x="455.761719"/>
       <use xlink:href="#ArialMT-69" x="511.376953"/>
       <use xlink:href="#ArialMT-6e" x="533.59375"/>
       <use xlink:href="#ArialMT-67" x="589.208984"/>
      </g>
      <!-- sequences -->
      <g transform="translate(367.707894 431.465781) rotate(-90) scale(0.12 -0.12)">
       <use xlink:href="#ArialMT-73"/>
       <use xlink:href="#ArialMT-65" x="50"/>
       <use xlink:href="#ArialMT-71" x="105.615234"/>
       <use xlink:href="#ArialMT-75" x="161.230469"/>
       <use xlink:href="#ArialMT-65" x="216.845703"/>
       <use xlink:href="#ArialMT-6e" x="272.460938"/>
       <use xlink:href="#ArialMT-63" x="328.076172"/>
       <use xlink:href="#ArialMT-65" x="378.076172"/>
       <use xlink:href="#ArialMT-73" x="433.691406"/>
      </g>
      <!-- (transcribed) -->
      <g transform="translate(380.575644 436.120469) rotate(-90) scale(0.12 -0.12)">
       <use xlink:href="#ArialMT-28"/>
       <use xlink:href="#ArialMT-74" x="33.300781"/>
       <use xlink:href="#ArialMT-72" x="61.083984"/>
       <use xlink:href="#ArialMT-61" x="94.384766"/>
       <use xlink:href="#ArialMT-6e" x="150"/>
       <use xlink:href="#ArialMT-73" x="205.615234"/>
       <use xlink:href="#ArialMT-63" x="255.615234"/>
       <use xlink:href="#ArialMT-72" x="305.615234"/>
       <use xlink:href="#ArialMT-69" x="338.916016"/>
       <use xlink:href="#ArialMT-62" x="361.132812"/>
       <use xlink:href="#ArialMT-65" x="416.748047"/>
       <use xlink:href="#ArialMT-64" x="472.363281"/>
       <use xlink:href="#ArialMT-29" x="527.978516"/>
      </g>
     </g>
    </g>
    <g id="xtick_6">
     <g id="line2d_6">
      <g>
       <use xlink:href="#m20a5371ee7" x="431.210012" y="356.759531" style="stroke: #000000; stroke-width: 0.8"/>
      </g>
     </g>
     <g id="text_6">
      <!-- Introns -->
      <g transform="translate(427.808012 427.782344) rotate(-90) scale(0.12 -0.12)">
       <defs>
        <path id="ArialMT-49" d="M 597 0 
L 597 4581 
L 1203 4581 
L 1203 0 
L 597 0 
z
" transform="scale(0.015625)"/>
       </defs>
       <use xlink:href="#ArialMT-49"/>
       <use xlink:href="#ArialMT-6e" x="27.783203"/>
       <use xlink:href="#ArialMT-74" x="83.398438"/>
       <use xlink:href="#ArialMT-72" x="111.181641"/>
       <use xlink:href="#ArialMT-6f" x="144.482422"/>
       <use xlink:href="#ArialMT-6e" x="200.097656"/>
       <use xlink:href="#ArialMT-73" x="255.712891"/>
      </g>
      <!-- (non-transcribed) -->
      <g transform="translate(440.675762 455.122656) rotate(-90) scale(0.12 -0.12)">
       <use xlink:href="#ArialMT-28"/>
       <use xlink:href="#ArialMT-6e" x="33.300781"/>
       <use xlink:href="#ArialMT-6f" x="88.916016"/>
       <use xlink:href="#ArialMT-6e" x="144.53125"/>
       <use xlink:href="#ArialMT-2d" x="200.146484"/>
       <use xlink:href="#ArialMT-74" x="233.447266"/>
       <use xlink:href="#ArialMT-72" x="261.230469"/>
       <use xlink:href="#ArialMT-61" x="294.53125"/>
       <use xlink:href="#ArialMT-6e" x="350.146484"/>
       <use xlink:href="#ArialMT-73" x="405.761719"/>
       <use xlink:href="#ArialMT-63" x="455.761719"/>
       <use xlink:href="#ArialMT-72" x="505.761719"/>
       <use xlink:href="#ArialMT-69" x="539.0625"/>
       <use xlink:href="#ArialMT-62" x="561.279297"/>
       <use xlink:href="#ArialMT-65" x="616.894531"/>
       <use xlink:href="#ArialMT-64" x="672.509766"/>
       <use xlink:href="#ArialMT-29" x="728.125"/>
      </g>
     </g>
    </g>
    <g id="xtick_7">
     <g id="line2d_7">
      <g>
       <use xlink:href="#m20a5371ee7" x="497.726569" y="356.759531" style="stroke: #000000; stroke-width: 0.8"/>
      </g>
     </g>
     <g id="text_7">
      <!-- Introns -->
      <g transform="translate(494.324569 415.774844) rotate(-90) scale(0.12 -0.12)">
       <use xlink:href="#ArialMT-49"/>
       <use xlink:href="#ArialMT-6e" x="27.783203"/>
       <use xlink:href="#ArialMT-74" x="83.398438"/>
       <use xlink:href="#ArialMT-72" x="111.181641"/>
       <use xlink:href="#ArialMT-6f" x="144.482422"/>
       <use xlink:href="#ArialMT-6e" x="200.097656"/>
       <use xlink:href="#ArialMT-73" x="255.712891"/>
      </g>
      <!-- (transcribed) -->
      <g transform="translate(507.192319 431.107656) rotate(-90) scale(0.12 -0.12)">
       <use xlink:href="#ArialMT-28"/>
       <use xlink:href="#ArialMT-74" x="33.300781"/>
       <use xlink:href="#ArialMT-72" x="61.083984"/>
       <use xlink:href="#ArialMT-61" x="94.384766"/>
       <use xlink:href="#ArialMT-6e" x="150"/>
       <use xlink:href="#ArialMT-73" x="205.615234"/>
       <use xlink:href="#ArialMT-63" x="255.615234"/>
       <use xlink:href="#ArialMT-72" x="305.615234"/>
       <use xlink:href="#ArialMT-69" x="338.916016"/>
       <use xlink:href="#ArialMT-62" x="361.132812"/>
       <use xlink:href="#ArialMT-65" x="416.748047"/>
       <use xlink:href="#ArialMT-64" x="472.363281"/>
       <use xlink:href="#ArialMT-29" x="527.978516"/>
      </g>
     </g>
    </g>
    <g id="xtick_8">
     <g id="line2d_8">
      <g>
       <use xlink:href="#m20a5371ee7" x="564.243125" y="356.759531" style="stroke: #000000; stroke-width: 0.8"/>
      </g>
     </g>
     <g id="text_8">
      <!-- 3' UTRs -->
      <g transform="translate(560.841125 430.921094) rotate(-90) scale(0.12 -0.12)">
       <defs>
        <path id="ArialMT-33" d="M 269 1209 
L 831 1284 
Q 928 806 1161 595 
Q 1394 384 1728 384 
Q 2125 384 2398 659 
Q 2672 934 2672 1341 
Q 2672 1728 2419 1979 
Q 2166 2231 1775 2231 
Q 1616 2231 1378 2169 
L 1441 2663 
Q 1497 2656 1531 2656 
Q 1891 2656 2178 2843 
Q 2466 3031 2466 3422 
Q 2466 3731 2256 3934 
Q 2047 4138 1716 4138 
Q 1388 4138 1169 3931 
Q 950 3725 888 3313 
L 325 3413 
Q 428 3978 793 4289 
Q 1159 4600 1703 4600 
Q 2078 4600 2393 4439 
Q 2709 4278 2876 4000 
Q 3044 3722 3044 3409 
Q 3044 3113 2884 2869 
Q 2725 2625 2413 2481 
Q 2819 2388 3044 2092 
Q 3269 1797 3269 1353 
Q 3269 753 2831 336 
Q 2394 -81 1725 -81 
Q 1122 -81 723 278 
Q 325 638 269 1209 
z
" transform="scale(0.015625)"/>
       </defs>
       <use xlink:href="#ArialMT-33"/>
       <use xlink:href="#ArialMT-27" x="55.615234"/>
       <use xlink:href="#ArialMT-20" x="74.707031"/>
       <use xlink:href="#ArialMT-55" x="102.490234"/>
       <use xlink:href="#ArialMT-54" x="174.707031"/>
       <use xlink:href="#ArialMT-52" x="235.791016"/>
       <use xlink:href="#ArialMT-73" x="308.007812"/>
      </g>
      <!-- (non-transcribed) -->
      <g transform="translate(573.708875 455.122656) rotate(-90) scale(0.12 -0.12)">
       <use xlink:href="#ArialMT-28"/>
       <use xlink:href="#ArialMT-6e" x="33.300781"/>
       <use xlink:href="#ArialMT-6f" x="88.916016"/>
       <use xlink:href="#ArialMT-6e" x="144.53125"/>
       <use xlink:href="#ArialMT-2d" x="200.146484"/>
       <use xlink:href="#ArialMT-74" x="233.447266"/>
       <use xlink:href="#ArialMT-72" x="261.230469"/>
       <use xlink:href="#ArialMT-61" x="294.53125"/>
       <use xlink:href="#ArialMT-6e" x="350.146484"/>
       <use xlink:href="#ArialMT-73" x="405.761719"/>
       <use xlink:href="#ArialMT-63" x="455.761719"/>
       <use xlink:href="#ArialMT-72" x="505.761719"/>
       <use xlink:href="#ArialMT-69" x="539.0625"/>
       <use xlink:href="#ArialMT-62" x="561.279297"/>
       <use xlink:href="#ArialMT-65" x="616.894531"/>
       <use xlink:href="#ArialMT-64" x="672.509766"/>
       <use xlink:href="#ArialMT-29" x="728.125"/>
      </g>
     </g>
    </g>
    <g id="xtick_9">
     <g id="line2d_9">
      <g>
       <use xlink:href="#m20a5371ee7" x="630.759681" y="356.759531" style="stroke: #000000; stroke-width: 0.8"/>
      </g>
     </g>
     <g id="text_9">
      <!-- 3' UTRs -->
      <g transform="translate(627.357681 418.913594) rotate(-90) scale(0.12 -0.12)">
       <use xlink:href="#ArialMT-33"/>
       <use xlink:href="#ArialMT-27" x="55.615234"/>
       <use xlink:href="#ArialMT-20" x="74.707031"/>
       <use xlink:href="#ArialMT-55" x="102.490234"/>
       <use xlink:href="#ArialMT-54" x="174.707031"/>
       <use xlink:href="#ArialMT-52" x="235.791016"/>
       <use xlink:href="#ArialMT-73" x="308.007812"/>
      </g>
      <!-- (transcribed) -->
      <g transform="translate(640.225431 431.107656) rotate(-90) scale(0.12 -0.12)">
       <use xlink:href="#ArialMT-28"/>
       <use xlink:href="#ArialMT-74" x="33.300781"/>
       <use xlink:href="#ArialMT-72" x="61.083984"/>
       <use xlink:href="#ArialMT-61" x="94.384766"/>
       <use xlink:href="#ArialMT-6e" x="150"/>
       <use xlink:href="#ArialMT-73" x="205.615234"/>
       <use xlink:href="#ArialMT-63" x="255.615234"/>
       <use xlink:href="#ArialMT-72" x="305.615234"/>
       <use xlink:href="#ArialMT-69" x="338.916016"/>
       <use xlink:href="#ArialMT-62" x="361.132812"/>
       <use xlink:href="#ArialMT-65" x="416.748047"/>
       <use xlink:href="#ArialMT-64" x="472.363281"/>
       <use xlink:href="#ArialMT-29" x="527.978516"/>
      </g>
     </g>
    </g>
    <g id="xtick_10">
     <g id="line2d_10">
      <g>
       <use xlink:href="#m20a5371ee7" x="697.276238" y="356.759531" style="stroke: #000000; stroke-width: 0.8"/>
      </g>
     </g>
     <g id="text_10">
      <!-- Enhancers -->
      <g transform="translate(700.378425 421.125156) rotate(-90) scale(0.12 -0.12)">
       <defs>
        <path id="ArialMT-45" d="M 506 0 
L 506 4581 
L 3819 4581 
L 3819 4041 
L 1113 4041 
L 1113 2638 
L 3647 2638 
L 3647 2100 
L 1113 2100 
L 1113 541 
L 3925 541 
L 3925 0 
L 506 0 
z
" transform="scale(0.015625)"/>
        <path id="ArialMT-68" d="M 422 0 
L 422 4581 
L 984 4581 
L 984 2938 
Q 1378 3394 1978 3394 
Q 2347 3394 2619 3248 
Q 2891 3103 3008 2847 
Q 3125 2591 3125 2103 
L 3125 0 
L 2563 0 
L 2563 2103 
Q 2563 2525 2380 2717 
Q 2197 2909 1863 2909 
Q 1613 2909 1392 2779 
Q 1172 2650 1078 2428 
Q 984 2206 984 1816 
L 984 0 
L 422 0 
z
" transform="scale(0.015625)"/>
       </defs>
       <use xlink:href="#ArialMT-45"/>
       <use xlink:href="#ArialMT-6e" x="66.699219"/>
       <use xlink:href="#ArialMT-68" x="122.314453"/>
       <use xlink:href="#ArialMT-61" x="177.929688"/>
       <use xlink:href="#ArialMT-6e" x="233.544922"/>
       <use xlink:href="#ArialMT-63" x="289.160156"/>
       <use xlink:href="#ArialMT-65" x="339.160156"/>
       <use xlink:href="#ArialMT-72" x="394.775391"/>
       <use xlink:href="#ArialMT-73" x="428.076172"/>
      </g>
     </g>
    </g>
    <g id="xtick_11">
     <g id="line2d_11">
      <g>
       <use xlink:href="#m20a5371ee7" x="763.792794" y="356.759531" style="stroke: #000000; stroke-width: 0.8"/>
      </g>
     </g>
     <g id="text_11">
      <!-- Non-protein -->
      <g transform="translate(753.974356 440.789219) rotate(-90) scale(0.12 -0.12)">
       <defs>
        <path id="ArialMT-4e" d="M 488 0 
L 488 4581 
L 1109 4581 
L 3516 984 
L 3516 4581 
L 4097 4581 
L 4097 0 
L 3475 0 
L 1069 3600 
L 1069 0 
L 488 0 
z
" transform="scale(0.015625)"/>
        <path id="ArialMT-70" d="M 422 -1272 
L 422 3319 
L 934 3319 
L 934 2888 
Q 1116 3141 1344 3267 
Q 1572 3394 1897 3394 
Q 2322 3394 2647 3175 
Q 2972 2956 3137 2557 
Q 3303 2159 3303 1684 
Q 3303 1175 3120 767 
Q 2938 359 2589 142 
Q 2241 -75 1856 -75 
Q 1575 -75 1351 44 
Q 1128 163 984 344 
L 984 -1272 
L 422 -1272 
z
M 931 1641 
Q 931 1000 1190 694 
Q 1450 388 1819 388 
Q 2194 388 2461 705 
Q 2728 1022 2728 1688 
Q 2728 2322 2467 2637 
Q 2206 2953 1844 2953 
Q 1484 2953 1207 2617 
Q 931 2281 931 1641 
z
" transform="scale(0.015625)"/>
       </defs>
       <use xlink:href="#ArialMT-4e"/>
       <use xlink:href="#ArialMT-6f" x="72.216797"/>
       <use xlink:href="#ArialMT-6e" x="127.832031"/>
       <use xlink:href="#ArialMT-2d" x="183.447266"/>
       <use xlink:href="#ArialMT-70" x="216.748047"/>
       <use xlink:href="#ArialMT-72" x="272.363281"/>
       <use xlink:href="#ArialMT-6f" x="305.664062"/>
       <use xlink:href="#ArialMT-74" x="361.279297"/>
       <use xlink:href="#ArialMT-65" x="389.0625"/>
       <use xlink:href="#ArialMT-69" x="444.677734"/>
       <use xlink:href="#ArialMT-6e" x="466.894531"/>
      </g>
      <!-- coding genes -->
      <g transform="translate(766.666606 445.133594) rotate(-90) scale(0.12 -0.12)">
       <use xlink:href="#ArialMT-63"/>
       <use xlink:href="#ArialMT-6f" x="50"/>
       <use xlink:href="#ArialMT-64" x="105.615234"/>
       <use xlink:href="#ArialMT-69" x="161.230469"/>
       <use xlink:href="#ArialMT-6e" x="183.447266"/>
       <use xlink:href="#ArialMT-67" x="239.0625"/>
       <use xlink:href="#ArialMT-20" x="294.677734"/>
       <use xlink:href="#ArialMT-67" x="322.460938"/>
       <use xlink:href="#ArialMT-65" x="378.076172"/>
       <use xlink:href="#ArialMT-6e" x="433.691406"/>
       <use xlink:href="#ArialMT-65" x="489.306641"/>
       <use xlink:href="#ArialMT-73" x="544.921875"/>
      </g>
      <!-- (non-transcribed) -->
      <g transform="translate(779.674981 455.122656) rotate(-90) scale(0.12 -0.12)">
       <use xlink:href="#ArialMT-28"/>
       <use xlink:href="#ArialMT-6e" x="33.300781"/>
       <use xlink:href="#ArialMT-6f" x="88.916016"/>
       <use xlink:href="#ArialMT-6e" x="144.53125"/>
       <use xlink:href="#ArialMT-2d" x="200.146484"/>
       <use xlink:href="#ArialMT-74" x="233.447266"/>
       <use xlink:href="#ArialMT-72" x="261.230469"/>
       <use xlink:href="#ArialMT-61" x="294.53125"/>
       <use xlink:href="#ArialMT-6e" x="350.146484"/>
       <use xlink:href="#ArialMT-73" x="405.761719"/>
       <use xlink:href="#ArialMT-63" x="455.761719"/>
       <use xlink:href="#ArialMT-72" x="505.761719"/>
       <use xlink:href="#ArialMT-69" x="539.0625"/>
       <use xlink:href="#ArialMT-62" x="561.279297"/>
       <use xlink:href="#ArialMT-65" x="616.894531"/>
       <use xlink:href="#ArialMT-64" x="672.509766"/>
       <use xlink:href="#ArialMT-29" x="728.125"/>
      </g>
     </g>
    </g>
    <g id="xtick_12">
     <g id="line2d_12">
      <g>
       <use xlink:href="#m20a5371ee7" x="830.30935" y="356.759531" style="stroke: #000000; stroke-width: 0.8"/>
      </g>
     </g>
     <g id="text_12">
      <!-- Non-protein -->
      <g transform="translate(820.490913 430.800156) rotate(-90) scale(0.12 -0.12)">
       <use xlink:href="#ArialMT-4e"/>
       <use xlink:href="#ArialMT-6f" x="72.216797"/>
       <use xlink:href="#ArialMT-6e" x="127.832031"/>
       <use xlink:href="#ArialMT-2d" x="183.447266"/>
       <use xlink:href="#ArialMT-70" x="216.748047"/>
       <use xlink:href="#ArialMT-72" x="272.363281"/>
       <use xlink:href="#ArialMT-6f" x="305.664062"/>
       <use xlink:href="#ArialMT-74" x="361.279297"/>
       <use xlink:href="#ArialMT-65" x="389.0625"/>
       <use xlink:href="#ArialMT-69" x="444.677734"/>
       <use xlink:href="#ArialMT-6e" x="466.894531"/>
      </g>
      <!-- coding genes -->
      <g transform="translate(833.183163 435.144531) rotate(-90) scale(0.12 -0.12)">
       <use xlink:href="#ArialMT-63"/>
       <use xlink:href="#ArialMT-6f" x="50"/>
       <use xlink:href="#ArialMT-64" x="105.615234"/>
       <use xlink:href="#ArialMT-69" x="161.230469"/>
       <use xlink:href="#ArialMT-6e" x="183.447266"/>
       <use xlink:href="#ArialMT-67" x="239.0625"/>
       <use xlink:href="#ArialMT-20" x="294.677734"/>
       <use xlink:href="#ArialMT-67" x="322.460938"/>
       <use xlink:href="#ArialMT-65" x="378.076172"/>
       <use xlink:href="#ArialMT-6e" x="433.691406"/>
       <use xlink:href="#ArialMT-65" x="489.306641"/>
       <use xlink:href="#ArialMT-73" x="544.921875"/>
      </g>
      <!-- (transcribed) -->
      <g transform="translate(846.191538 433.126094) rotate(-90) scale(0.12 -0.12)">
       <use xlink:href="#ArialMT-28"/>
       <use xlink:href="#ArialMT-74" x="33.300781"/>
       <use xlink:href="#ArialMT-72" x="61.083984"/>
       <use xlink:href="#ArialMT-61" x="94.384766"/>
       <use xlink:href="#ArialMT-6e" x="150"/>
       <use xlink:href="#ArialMT-73" x="205.615234"/>
       <use xlink:href="#ArialMT-63" x="255.615234"/>
       <use xlink:href="#ArialMT-72" x="305.615234"/>
       <use xlink:href="#ArialMT-69" x="338.916016"/>
       <use xlink:href="#ArialMT-62" x="361.132812"/>
       <use xlink:href="#ArialMT-65" x="416.748047"/>
       <use xlink:href="#ArialMT-64" x="472.363281"/>
       <use xlink:href="#ArialMT-29" x="527.978516"/>
      </g>
     </g>
    </g>
    <g id="xtick_13">
     <g id="line2d_13">
      <g>
       <use xlink:href="#m20a5371ee7" x="896.825906" y="356.759531" style="stroke: #000000; stroke-width: 0.8"/>
      </g>
     </g>
     <g id="text_13">
      <!-- CpG islands -->
      <g transform="translate(900.001219 429.118281) rotate(-90) scale(0.12 -0.12)">
       <defs>
        <path id="ArialMT-43" d="M 3763 1606 
L 4369 1453 
Q 4178 706 3683 314 
Q 3188 -78 2472 -78 
Q 1731 -78 1267 223 
Q 803 525 561 1097 
Q 319 1669 319 2325 
Q 319 3041 592 3573 
Q 866 4106 1370 4382 
Q 1875 4659 2481 4659 
Q 3169 4659 3637 4309 
Q 4106 3959 4291 3325 
L 3694 3184 
Q 3534 3684 3231 3912 
Q 2928 4141 2469 4141 
Q 1941 4141 1586 3887 
Q 1231 3634 1087 3207 
Q 944 2781 944 2328 
Q 944 1744 1114 1308 
Q 1284 872 1643 656 
Q 2003 441 2422 441 
Q 2931 441 3284 734 
Q 3638 1028 3763 1606 
z
" transform="scale(0.015625)"/>
        <path id="ArialMT-47" d="M 2638 1797 
L 2638 2334 
L 4578 2338 
L 4578 638 
Q 4131 281 3656 101 
Q 3181 -78 2681 -78 
Q 2006 -78 1454 211 
Q 903 500 622 1047 
Q 341 1594 341 2269 
Q 341 2938 620 3517 
Q 900 4097 1425 4378 
Q 1950 4659 2634 4659 
Q 3131 4659 3532 4498 
Q 3934 4338 4162 4050 
Q 4391 3763 4509 3300 
L 3963 3150 
Q 3859 3500 3706 3700 
Q 3553 3900 3268 4020 
Q 2984 4141 2638 4141 
Q 2222 4141 1919 4014 
Q 1616 3888 1430 3681 
Q 1244 3475 1141 3228 
Q 966 2803 966 2306 
Q 966 1694 1177 1281 
Q 1388 869 1791 669 
Q 2194 469 2647 469 
Q 3041 469 3416 620 
Q 3791 772 3984 944 
L 3984 1797 
L 2638 1797 
z
" transform="scale(0.015625)"/>
        <path id="ArialMT-6c" d="M 409 0 
L 409 4581 
L 972 4581 
L 972 0 
L 409 0 
z
" transform="scale(0.015625)"/>
       </defs>
       <use xlink:href="#ArialMT-43"/>
       <use xlink:href="#ArialMT-70" x="72.216797"/>
       <use xlink:href="#ArialMT-47" x="127.832031"/>
       <use xlink:href="#ArialMT-20" x="205.615234"/>
       <use xlink:href="#ArialMT-69" x="233.398438"/>
       <use xlink:href="#ArialMT-73" x="255.615234"/>
       <use xlink:href="#ArialMT-6c" x="305.615234"/>
       <use xlink:href="#ArialMT-61" x="327.832031"/>
       <use xlink:href="#ArialMT-6e" x="383.447266"/>
       <use xlink:href="#ArialMT-64" x="439.0625"/>
       <use xlink:href="#ArialMT-73" x="494.677734"/>
      </g>
     </g>
    </g>
    <g id="xtick_14">
     <g id="line2d_14">
      <g>
       <use xlink:href="#m20a5371ee7" x="963.342463" y="356.759531" style="stroke: #000000; stroke-width: 0.8"/>
      </g>
     </g>
     <g id="text_14">
      <!-- Repeats -->
      <g transform="translate(966.44465 408.452031) rotate(-90) scale(0.12 -0.12)">
       <use xlink:href="#ArialMT-52"/>
       <use xlink:href="#ArialMT-65" x="72.216797"/>
       <use xlink:href="#ArialMT-70" x="127.832031"/>
       <use xlink:href="#ArialMT-65" x="183.447266"/>
       <use xlink:href="#ArialMT-61" x="239.0625"/>
       <use xlink:href="#ArialMT-74" x="294.677734"/>
       <use xlink:href="#ArialMT-73" x="322.460938"/>
      </g>
     </g>
    </g>
    <g id="xtick_15">
     <g id="line2d_15">
      <g>
       <use xlink:href="#m20a5371ee7" x="1029.859019" y="356.759531" style="stroke: #000000; stroke-width: 0.8"/>
      </g>
     </g>
     <g id="text_15">
      <!-- Non-functional -->
      <g transform="translate(1026.615082 441.133281) rotate(-90) scale(0.12 -0.12)">
       <defs>
        <path id="ArialMT-66" d="M 556 0 
L 556 2881 
L 59 2881 
L 59 3319 
L 556 3319 
L 556 3672 
Q 556 4006 616 4169 
Q 697 4388 901 4523 
Q 1106 4659 1475 4659 
Q 1713 4659 2000 4603 
L 1916 4113 
Q 1741 4144 1584 4144 
Q 1328 4144 1222 4034 
Q 1116 3925 1116 3625 
L 1116 3319 
L 1763 3319 
L 1763 2881 
L 1116 2881 
L 1116 0 
L 556 0 
z
" transform="scale(0.015625)"/>
       </defs>
       <use xlink:href="#ArialMT-4e"/>
       <use xlink:href="#ArialMT-6f" x="72.216797"/>
       <use xlink:href="#ArialMT-6e" x="127.832031"/>
       <use xlink:href="#ArialMT-2d" x="183.447266"/>
       <use xlink:href="#ArialMT-66" x="216.748047"/>
       <use xlink:href="#ArialMT-75" x="244.53125"/>
       <use xlink:href="#ArialMT-6e" x="300.146484"/>
       <use xlink:href="#ArialMT-63" x="355.761719"/>
       <use xlink:href="#ArialMT-74" x="405.761719"/>
       <use xlink:href="#ArialMT-69" x="433.544922"/>
       <use xlink:href="#ArialMT-6f" x="455.761719"/>
       <use xlink:href="#ArialMT-6e" x="511.376953"/>
       <use xlink:href="#ArialMT-61" x="566.992188"/>
       <use xlink:href="#ArialMT-6c" x="622.607422"/>
      </g>
      <!-- non-repetitive -->
      <g transform="translate(1039.307332 438.797969) rotate(-90) scale(0.12 -0.12)">
       <defs>
        <path id="ArialMT-76" d="M 1344 0 
L 81 3319 
L 675 3319 
L 1388 1331 
Q 1503 1009 1600 663 
Q 1675 925 1809 1294 
L 2547 3319 
L 3125 3319 
L 1869 0 
L 1344 0 
z
" transform="scale(0.015625)"/>
       </defs>
       <use xlink:href="#ArialMT-6e"/>
       <use xlink:href="#ArialMT-6f" x="55.615234"/>
       <use xlink:href="#ArialMT-6e" x="111.230469"/>
       <use xlink:href="#ArialMT-2d" x="166.845703"/>
       <use xlink:href="#ArialMT-72" x="200.146484"/>
       <use xlink:href="#ArialMT-65" x="233.447266"/>
       <use xlink:href="#ArialMT-70" x="289.0625"/>
       <use xlink:href="#ArialMT-65" x="344.677734"/>
       <use xlink:href="#ArialMT-74" x="400.292969"/>
       <use xlink:href="#ArialMT-69" x="428.076172"/>
       <use xlink:href="#ArialMT-74" x="450.292969"/>
       <use xlink:href="#ArialMT-69" x="478.076172"/>
       <use xlink:href="#ArialMT-76" x="500.292969"/>
       <use xlink:href="#ArialMT-65" x="550.292969"/>
      </g>
     </g>
    </g>
   </g>
   <g id="matplotlib.axis_2">
    <g id="ytick_1">
     <g id="line2d_16">
      <path d="M 62.043125 343.365819 
L 1066.443125 343.365819 
" clip-path="url(#p283069b989)" style="fill: none; stroke: #b0b0b0; stroke-opacity: 0.1; stroke-width: 0.8; stroke-linecap: square"/>
     </g>
     <g id="line2d_17">
      <defs>
       <path id="mcdfa9f8594" d="M 0 0 
L -3.5 0 
" style="stroke: #000000; stroke-width: 0.8"/>
      </defs>
      <g>
       <use xlink:href="#mcdfa9f8594" x="62.043125" y="343.365819" style="stroke: #000000; stroke-width: 0.8"/>
      </g>
     </g>
     <g id="text_16">
      <!-- 6 -->
      <g transform="translate(41.36125 347.660507) scale(0.12 -0.12)">
       <defs>
        <path id="ArialMT-2212" d="M 3381 1997 
L 356 1997 
L 356 2522 
L 3381 2522 
L 3381 1997 
z
" transform="scale(0.015625)"/>
        <path id="ArialMT-36" d="M 3184 3459 
L 2625 3416 
Q 2550 3747 2413 3897 
Q 2184 4138 1850 4138 
Q 1581 4138 1378 3988 
Q 1113 3794 959 3422 
Q 806 3050 800 2363 
Q 1003 2672 1297 2822 
Q 1591 2972 1913 2972 
Q 2475 2972 2870 2558 
Q 3266 2144 3266 1488 
Q 3266 1056 3080 686 
Q 2894 316 2569 119 
Q 2244 -78 1831 -78 
Q 1128 -78 684 439 
Q 241 956 241 2144 
Q 241 3472 731 4075 
Q 1159 4600 1884 4600 
Q 2425 4600 2770 4297 
Q 3116 3994 3184 3459 
z
M 888 1484 
Q 888 1194 1011 928 
Q 1134 663 1356 523 
Q 1578 384 1822 384 
Q 2178 384 2434 671 
Q 2691 959 2691 1453 
Q 2691 1928 2437 2201 
Q 2184 2475 1800 2475 
Q 1419 2475 1153 2201 
Q 888 1928 888 1484 
z
" transform="scale(0.015625)"/>
       </defs>
       <use xlink:href="#ArialMT-2212"/>
       <use xlink:href="#ArialMT-36" x="58.398438"/>
      </g>
     </g>
    </g>
    <g id="ytick_2">
     <g id="line2d_18">
      <path d="M 62.043125 292.39039 
L 1066.443125 292.39039 
" clip-path="url(#p283069b989)" style="fill: none; stroke: #b0b0b0; stroke-opacity: 0.1; stroke-width: 0.8; stroke-linecap: square"/>
     </g>
     <g id="line2d_19">
      <g>
       <use xlink:href="#mcdfa9f8594" x="62.043125" y="292.39039" style="stroke: #000000; stroke-width: 0.8"/>
      </g>
     </g>
     <g id="text_17">
      <!-- 4 -->
      <g transform="translate(41.36125 296.685077) scale(0.12 -0.12)">
       <defs>
        <path id="ArialMT-34" d="M 2069 0 
L 2069 1097 
L 81 1097 
L 81 1613 
L 2172 4581 
L 2631 4581 
L 2631 1613 
L 3250 1613 
L 3250 1097 
L 2631 1097 
L 2631 0 
L 2069 0 
z
M 2069 1613 
L 2069 3678 
L 634 1613 
L 2069 1613 
z
" transform="scale(0.015625)"/>
       </defs>
       <use xlink:href="#ArialMT-2212"/>
       <use xlink:href="#ArialMT-34" x="58.398438"/>
      </g>
     </g>
    </g>
    <g id="ytick_3">
     <g id="line2d_20">
      <path d="M 62.043125 241.414961 
L 1066.443125 241.414961 
" clip-path="url(#p283069b989)" style="fill: none; stroke: #b0b0b0; stroke-opacity: 0.1; stroke-width: 0.8; stroke-linecap: square"/>
     </g>
     <g id="line2d_21">
      <g>
       <use xlink:href="#mcdfa9f8594" x="62.043125" y="241.414961" style="stroke: #000000; stroke-width: 0.8"/>
      </g>
     </g>
     <g id="text_18">
      <!-- 2 -->
      <g transform="translate(41.36125 245.709648) scale(0.12 -0.12)">
       <defs>
        <path id="ArialMT-32" d="M 3222 541 
L 3222 0 
L 194 0 
Q 188 203 259 391 
Q 375 700 629 1000 
Q 884 1300 1366 1694 
Q 2113 2306 2375 2664 
Q 2638 3022 2638 3341 
Q 2638 3675 2398 3904 
Q 2159 4134 1775 4134 
Q 1369 4134 1125 3890 
Q 881 3647 878 3216 
L 300 3275 
Q 359 3922 746 4261 
Q 1134 4600 1788 4600 
Q 2447 4600 2831 4234 
Q 3216 3869 3216 3328 
Q 3216 3053 3103 2787 
Q 2991 2522 2730 2228 
Q 2469 1934 1863 1422 
Q 1356 997 1212 845 
Q 1069 694 975 541 
L 3222 541 
z
" transform="scale(0.015625)"/>
       </defs>
       <use xlink:href="#ArialMT-2212"/>
       <use xlink:href="#ArialMT-32" x="58.398438"/>
      </g>
     </g>
    </g>
    <g id="ytick_4">
     <g id="line2d_22">
      <path d="M 62.043125 190.439531 
L 1066.443125 190.439531 
" clip-path="url(#p283069b989)" style="fill: none; stroke: #b0b0b0; stroke-opacity: 0.1; stroke-width: 0.8; stroke-linecap: square"/>
     </g>
     <g id="line2d_23">
      <g>
       <use xlink:href="#mcdfa9f8594" x="62.043125" y="190.439531" style="stroke: #000000; stroke-width: 0.8"/>
      </g>
     </g>
     <g id="text_19">
      <!-- 0 -->
      <g transform="translate(48.37 194.734219) scale(0.12 -0.12)">
       <defs>
        <path id="ArialMT-30" d="M 266 2259 
Q 266 3072 433 3567 
Q 600 4063 929 4331 
Q 1259 4600 1759 4600 
Q 2128 4600 2406 4451 
Q 2684 4303 2865 4023 
Q 3047 3744 3150 3342 
Q 3253 2941 3253 2259 
Q 3253 1453 3087 958 
Q 2922 463 2592 192 
Q 2263 -78 1759 -78 
Q 1097 -78 719 397 
Q 266 969 266 2259 
z
M 844 2259 
Q 844 1131 1108 757 
Q 1372 384 1759 384 
Q 2147 384 2411 759 
Q 2675 1134 2675 2259 
Q 2675 3391 2411 3762 
Q 2147 4134 1753 4134 
Q 1366 4134 1134 3806 
Q 844 3388 844 2259 
z
" transform="scale(0.015625)"/>
       </defs>
       <use xlink:href="#ArialMT-30"/>
      </g>
     </g>
    </g>
    <g id="ytick_5">
     <g id="line2d_24">
      <path d="M 62.043125 139.464102 
L 1066.443125 139.464102 
" clip-path="url(#p283069b989)" style="fill: none; stroke: #b0b0b0; stroke-opacity: 0.1; stroke-width: 0.8; stroke-linecap: square"/>
     </g>
     <g id="line2d_25">
      <g>
       <use xlink:href="#mcdfa9f8594" x="62.043125" y="139.464102" style="stroke: #000000; stroke-width: 0.8"/>
      </g>
     </g>
     <g id="text_20">
      <!-- 2 -->
      <g transform="translate(48.37 143.758789) scale(0.12 -0.12)">
       <use xlink:href="#ArialMT-32"/>
      </g>
     </g>
    </g>
    <g id="ytick_6">
     <g id="line2d_26">
      <path d="M 62.043125 88.488673 
L 1066.443125 88.488673 
" clip-path="url(#p283069b989)" style="fill: none; stroke: #b0b0b0; stroke-opacity: 0.1; stroke-width: 0.8; stroke-linecap: square"/>
     </g>
     <g id="line2d_27">
      <g>
       <use xlink:href="#mcdfa9f8594" x="62.043125" y="88.488673" style="stroke: #000000; stroke-width: 0.8"/>
      </g>
     </g>
     <g id="text_21">
      <!-- 4 -->
      <g transform="translate(48.37 92.78336) scale(0.12 -0.12)">
       <use xlink:href="#ArialMT-34"/>
      </g>
     </g>
    </g>
    <g id="ytick_7">
     <g id="line2d_28">
      <path d="M 62.043125 37.513243 
L 1066.443125 37.513243 
" clip-path="url(#p283069b989)" style="fill: none; stroke: #b0b0b0; stroke-opacity: 0.1; stroke-width: 0.8; stroke-linecap: square"/>
     </g>
     <g id="line2d_29">
      <g>
       <use xlink:href="#mcdfa9f8594" x="62.043125" y="37.513243" style="stroke: #000000; stroke-width: 0.8"/>
      </g>
     </g>
     <g id="text_22">
      <!-- 6 -->
      <g transform="translate(48.37 41.807931) scale(0.12 -0.12)">
       <use xlink:href="#ArialMT-36"/>
      </g>
     </g>
    </g>
    <g id="text_23">
     <!-- Residuals of pG4 enrichment calculated -->
     <g transform="translate(18.119531 323.003203) rotate(-90) scale(0.15 -0.15)">
      <use xlink:href="#ArialMT-52"/>
      <use xlink:href="#ArialMT-65" x="72.216797"/>
      <use xlink:href="#ArialMT-73" x="127.832031"/>
      <use xlink:href="#ArialMT-69" x="177.832031"/>
      <use xlink:href="#ArialMT-64" x="200.048828"/>
      <use xlink:href="#ArialMT-75" x="255.664062"/>
      <use xlink:href="#ArialMT-61" x="311.279297"/>
      <use xlink:href="#ArialMT-6c" x="366.894531"/>
      <use xlink:href="#ArialMT-73" x="389.111328"/>
      <use xlink:href="#ArialMT-20" x="439.111328"/>
      <use xlink:href="#ArialMT-6f" x="466.894531"/>
      <use xlink:href="#ArialMT-66" x="522.509766"/>
      <use xlink:href="#ArialMT-20" x="550.292969"/>
      <use xlink:href="#ArialMT-70" x="578.076172"/>
      <use xlink:href="#ArialMT-47" x="633.691406"/>
      <use xlink:href="#ArialMT-34" x="711.474609"/>
      <use xlink:href="#ArialMT-20" x="767.089844"/>
      <use xlink:href="#ArialMT-65" x="794.873047"/>
      <use xlink:href="#ArialMT-6e" x="850.488281"/>
      <use xlink:href="#ArialMT-72" x="906.103516"/>
      <use xlink:href="#ArialMT-69" x="939.404297"/>
      <use xlink:href="#ArialMT-63" x="961.621094"/>
      <use xlink:href="#ArialMT-68" x="1011.621094"/>
      <use xlink:href="#ArialMT-6d" x="1067.236328"/>
      <use xlink:href="#ArialMT-65" x="1150.537109"/>
      <use xlink:href="#ArialMT-6e" x="1206.152344"/>
      <use xlink:href="#ArialMT-74" x="1261.767578"/>
      <use xlink:href="#ArialMT-20" x="1289.550781"/>
      <use xlink:href="#ArialMT-63" x="1317.333984"/>
      <use xlink:href="#ArialMT-61" x="1367.333984"/>
      <use xlink:href="#ArialMT-6c" x="1422.949219"/>
      <use xlink:href="#ArialMT-63" x="1445.166016"/>
      <use xlink:href="#ArialMT-75" x="1495.166016"/>
      <use xlink:href="#ArialMT-6c" x="1550.78125"/>
      <use xlink:href="#ArialMT-61" x="1572.998047"/>
      <use xlink:href="#ArialMT-74" x="1628.613281"/>
      <use xlink:href="#ArialMT-65" x="1656.396484"/>
      <use xlink:href="#ArialMT-64" x="1712.011719"/>
     </g>
     <!-- over GC content (5Mb windows) -->
     <g transform="translate(34.204219 297.557109) rotate(-90) scale(0.15 -0.15)">
      <defs>
       <path id="ArialMT-4d" d="M 475 0 
L 475 4581 
L 1388 4581 
L 2472 1338 
Q 2622 884 2691 659 
Q 2769 909 2934 1394 
L 4031 4581 
L 4847 4581 
L 4847 0 
L 4263 0 
L 4263 3834 
L 2931 0 
L 2384 0 
L 1059 3900 
L 1059 0 
L 475 0 
z
" transform="scale(0.015625)"/>
       <path id="ArialMT-77" d="M 1034 0 
L 19 3319 
L 600 3319 
L 1128 1403 
L 1325 691 
Q 1338 744 1497 1375 
L 2025 3319 
L 2603 3319 
L 3100 1394 
L 3266 759 
L 3456 1400 
L 4025 3319 
L 4572 3319 
L 3534 0 
L 2950 0 
L 2422 1988 
L 2294 2553 
L 1622 0 
L 1034 0 
z
" transform="scale(0.015625)"/>
      </defs>
      <use xlink:href="#ArialMT-6f"/>
      <use xlink:href="#ArialMT-76" x="55.615234"/>
      <use xlink:href="#ArialMT-65" x="105.615234"/>
      <use xlink:href="#ArialMT-72" x="161.230469"/>
      <use xlink:href="#ArialMT-20" x="194.53125"/>
      <use xlink:href="#ArialMT-47" x="222.314453"/>
      <use xlink:href="#ArialMT-43" x="300.097656"/>
      <use xlink:href="#ArialMT-20" x="372.314453"/>
      <use xlink:href="#ArialMT-63" x="400.097656"/>
      <use xlink:href="#ArialMT-6f" x="450.097656"/>
      <use xlink:href="#ArialMT-6e" x="505.712891"/>
      <use xlink:href="#ArialMT-74" x="561.328125"/>
      <use xlink:href="#ArialMT-65" x="589.111328"/>
      <use xlink:href="#ArialMT-6e" x="644.726562"/>
      <use xlink:href="#ArialMT-74" x="700.341797"/>
      <use xlink:href="#ArialMT-20" x="728.125"/>
      <use xlink:href="#ArialMT-28" x="755.908203"/>
      <use xlink:href="#ArialMT-35" x="789.208984"/>
      <use xlink:href="#ArialMT-4d" x="844.824219"/>
      <use xlink:href="#ArialMT-62" x="928.125"/>
      <use xlink:href="#ArialMT-20" x="983.740234"/>
      <use xlink:href="#ArialMT-77" x="1011.523438"/>
      <use xlink:href="#ArialMT-69" x="1083.740234"/>
      <use xlink:href="#ArialMT-6e" x="1105.957031"/>
      <use xlink:href="#ArialMT-64" x="1161.572266"/>
      <use xlink:href="#ArialMT-6f" x="1217.1875"/>
      <use xlink:href="#ArialMT-77" x="1272.802734"/>
      <use xlink:href="#ArialMT-73" x="1345.019531"/>
      <use xlink:href="#ArialMT-29" x="1395.019531"/>
     </g>
    </g>
   </g>
   <g id="LineCollection_1">
    <path d="M -1 190.439531 
L 1074.643125 190.439531 
" clip-path="url(#p283069b989)" style="fill: none; stroke: #000000; stroke-width: 0.8"/>
   </g>
   <g id="patch_48">
    <path d="M 62.043125 356.759531 
L 62.043125 24.119531 
" style="fill: none; stroke: #000000; stroke-width: 0.8; stroke-linejoin: miter; stroke-linecap: square"/>
   </g>
   <g id="patch_49">
    <path d="M 1066.443125 356.759531 
L 1066.443125 24.119531 
" style="fill: none; stroke: #000000; stroke-width: 0.8; stroke-linejoin: miter; stroke-linecap: square"/>
   </g>
   <g id="patch_50">
    <path d="M 62.043125 356.759531 
L 1066.443125 356.759531 
" style="fill: none; stroke: #000000; stroke-width: 0.8; stroke-linejoin: miter; stroke-linecap: square"/>
   </g>
   <g id="patch_51">
    <path d="M 62.043125 24.119531 
L 1066.443125 24.119531 
" style="fill: none; stroke: #000000; stroke-width: 0.8; stroke-linejoin: miter; stroke-linecap: square"/>
   </g>
   <g id="text_24">
    <!-- * -->
    <g transform="translate(95.298525 202.543012) rotate(-90) scale(0.18 -0.18)">
     <defs>
      <path id="ArialMT-2a" d="M 200 3741 
L 344 4184 
Q 841 4009 1066 3881 
Q 1006 4447 1003 4659 
L 1456 4659 
Q 1447 4350 1384 3884 
Q 1706 4047 2122 4184 
L 2266 3741 
Q 1869 3609 1488 3566 
Q 1678 3400 2025 2975 
L 1650 2709 
Q 1469 2956 1222 3381 
Q 991 2941 816 2709 
L 447 2975 
Q 809 3422 966 3566 
Q 563 3644 200 3741 
z
" transform="scale(0.015625)"/>
     </defs>
     <use xlink:href="#ArialMT-2a"/>
    </g>
   </g>
   <g id="text_25">
    <!-- *** -->
    <g transform="translate(121.905148 185.341988) rotate(-90) scale(0.18 -0.18)">
     <use xlink:href="#ArialMT-2a"/>
     <use xlink:href="#ArialMT-2a" x="38.916016"/>
     <use xlink:href="#ArialMT-2a" x="77.832031"/>
    </g>
   </g>
   <g id="text_26">
    <!-- *** -->
    <g transform="translate(175.118393 185.341988) rotate(-90) scale(0.18 -0.18)">
     <use xlink:href="#ArialMT-2a"/>
     <use xlink:href="#ArialMT-2a" x="38.916016"/>
     <use xlink:href="#ArialMT-2a" x="77.832031"/>
    </g>
   </g>
   <g id="text_27">
    <!-- *** -->
    <g transform="translate(188.421704 185.341988) rotate(-90) scale(0.18 -0.18)">
     <use xlink:href="#ArialMT-2a"/>
     <use xlink:href="#ArialMT-2a" x="38.916016"/>
     <use xlink:href="#ArialMT-2a" x="77.832031"/>
    </g>
   </g>
   <g id="text_28">
    <!-- * -->
    <g transform="translate(228.331638 202.543012) rotate(-90) scale(0.18 -0.18)">
     <use xlink:href="#ArialMT-2a"/>
    </g>
   </g>
   <g id="text_29">
    <!-- *** -->
    <g transform="translate(241.634949 185.341988) rotate(-90) scale(0.18 -0.18)">
     <use xlink:href="#ArialMT-2a"/>
     <use xlink:href="#ArialMT-2a" x="38.916016"/>
     <use xlink:href="#ArialMT-2a" x="77.832031"/>
    </g>
   </g>
   <g id="text_30">
    <!-- *** -->
    <g transform="translate(254.938261 185.341988) rotate(-90) scale(0.18 -0.18)">
     <use xlink:href="#ArialMT-2a"/>
     <use xlink:href="#ArialMT-2a" x="38.916016"/>
     <use xlink:href="#ArialMT-2a" x="77.832031"/>
    </g>
   </g>
   <g id="text_31">
    <!-- *** -->
    <g transform="translate(294.848194 185.341988) rotate(-90) scale(0.18 -0.18)">
     <use xlink:href="#ArialMT-2a"/>
     <use xlink:href="#ArialMT-2a" x="38.916016"/>
     <use xlink:href="#ArialMT-2a" x="77.832031"/>
    </g>
   </g>
   <g id="text_32">
    <!-- *** -->
    <g transform="translate(308.151506 185.341988) rotate(-90) scale(0.18 -0.18)">
     <use xlink:href="#ArialMT-2a"/>
     <use xlink:href="#ArialMT-2a" x="38.916016"/>
     <use xlink:href="#ArialMT-2a" x="77.832031"/>
    </g>
   </g>
   <g id="text_33">
    <!-- *** -->
    <g transform="translate(321.454817 185.341988) rotate(-90) scale(0.18 -0.18)">
     <use xlink:href="#ArialMT-2a"/>
     <use xlink:href="#ArialMT-2a" x="38.916016"/>
     <use xlink:href="#ArialMT-2a" x="77.832031"/>
    </g>
   </g>
   <g id="text_34">
    <!-- ** -->
    <g transform="translate(361.364751 185.341988) rotate(-90) scale(0.18 -0.18)">
     <use xlink:href="#ArialMT-2a"/>
     <use xlink:href="#ArialMT-2a" x="38.916016"/>
    </g>
   </g>
   <g id="text_35">
    <!-- *** -->
    <g transform="translate(374.668062 185.341988) rotate(-90) scale(0.18 -0.18)">
     <use xlink:href="#ArialMT-2a"/>
     <use xlink:href="#ArialMT-2a" x="38.916016"/>
     <use xlink:href="#ArialMT-2a" x="77.832031"/>
    </g>
   </g>
   <g id="text_36">
    <!-- *** -->
    <g transform="translate(387.971373 185.341988) rotate(-90) scale(0.18 -0.18)">
     <use xlink:href="#ArialMT-2a"/>
     <use xlink:href="#ArialMT-2a" x="38.916016"/>
     <use xlink:href="#ArialMT-2a" x="77.832031"/>
    </g>
   </g>
   <g id="text_37">
    <!-- * -->
    <g transform="translate(560.914419 202.543012) rotate(-90) scale(0.18 -0.18)">
     <use xlink:href="#ArialMT-2a"/>
    </g>
   </g>
   <g id="text_38">
    <!-- * -->
    <g transform="translate(587.521042 185.341988) rotate(-90) scale(0.18 -0.18)">
     <use xlink:href="#ArialMT-2a"/>
    </g>
   </g>
   <g id="text_39">
    <!-- * -->
    <g transform="translate(627.430976 202.543012) rotate(-90) scale(0.18 -0.18)">
     <use xlink:href="#ArialMT-2a"/>
    </g>
   </g>
   <g id="text_40">
    <!-- ** -->
    <g transform="translate(707.250843 185.341988) rotate(-90) scale(0.18 -0.18)">
     <use xlink:href="#ArialMT-2a"/>
     <use xlink:href="#ArialMT-2a" x="38.916016"/>
    </g>
   </g>
   <g id="text_41">
    <!-- *** -->
    <g transform="translate(720.554155 185.341988) rotate(-90) scale(0.18 -0.18)">
     <use xlink:href="#ArialMT-2a"/>
     <use xlink:href="#ArialMT-2a" x="38.916016"/>
     <use xlink:href="#ArialMT-2a" x="77.832031"/>
    </g>
   </g>
   <g id="text_42">
    <!-- *** -->
    <g transform="translate(893.497201 185.341988) rotate(-90) scale(0.18 -0.18)">
     <use xlink:href="#ArialMT-2a"/>
     <use xlink:href="#ArialMT-2a" x="38.916016"/>
     <use xlink:href="#ArialMT-2a" x="77.832031"/>
    </g>
   </g>
   <g id="text_43">
    <!-- *** -->
    <g transform="translate(906.800512 185.341988) rotate(-90) scale(0.18 -0.18)">
     <use xlink:href="#ArialMT-2a"/>
     <use xlink:href="#ArialMT-2a" x="38.916016"/>
     <use xlink:href="#ArialMT-2a" x="77.832031"/>
    </g>
   </g>
   <g id="text_44">
    <!-- S. orangutan -->
    <g transform="translate(62.043125 18.119531) scale(0.15 -0.15)">
     <defs>
      <path id="Arial-BoldMT-53" d="M 231 1491 
L 1131 1578 
Q 1213 1125 1461 912 
Q 1709 700 2131 700 
Q 2578 700 2804 889 
Q 3031 1078 3031 1331 
Q 3031 1494 2936 1608 
Q 2841 1722 2603 1806 
Q 2441 1863 1863 2006 
Q 1119 2191 819 2459 
Q 397 2838 397 3381 
Q 397 3731 595 4036 
Q 794 4341 1167 4500 
Q 1541 4659 2069 4659 
Q 2931 4659 3367 4281 
Q 3803 3903 3825 3272 
L 2900 3231 
Q 2841 3584 2645 3739 
Q 2450 3894 2059 3894 
Q 1656 3894 1428 3728 
Q 1281 3622 1281 3444 
Q 1281 3281 1419 3166 
Q 1594 3019 2269 2859 
Q 2944 2700 3267 2529 
Q 3591 2359 3773 2064 
Q 3956 1769 3956 1334 
Q 3956 941 3737 597 
Q 3519 253 3119 86 
Q 2719 -81 2122 -81 
Q 1253 -81 787 320 
Q 322 722 231 1491 
z
" transform="scale(0.015625)"/>
      <path id="Arial-BoldMT-2e" d="M 459 0 
L 459 878 
L 1338 878 
L 1338 0 
L 459 0 
z
" transform="scale(0.015625)"/>
      <path id="Arial-BoldMT-20" transform="scale(0.015625)"/>
      <path id="Arial-BoldMT-6f" d="M 256 1706 
Q 256 2144 472 2553 
Q 688 2963 1083 3178 
Q 1478 3394 1966 3394 
Q 2719 3394 3200 2905 
Q 3681 2416 3681 1669 
Q 3681 916 3195 420 
Q 2709 -75 1972 -75 
Q 1516 -75 1102 131 
Q 688 338 472 736 
Q 256 1134 256 1706 
z
M 1156 1659 
Q 1156 1166 1390 903 
Q 1625 641 1969 641 
Q 2313 641 2545 903 
Q 2778 1166 2778 1666 
Q 2778 2153 2545 2415 
Q 2313 2678 1969 2678 
Q 1625 2678 1390 2415 
Q 1156 2153 1156 1659 
z
" transform="scale(0.015625)"/>
      <path id="Arial-BoldMT-72" d="M 1300 0 
L 422 0 
L 422 3319 
L 1238 3319 
L 1238 2847 
Q 1447 3181 1614 3287 
Q 1781 3394 1994 3394 
Q 2294 3394 2572 3228 
L 2300 2463 
Q 2078 2606 1888 2606 
Q 1703 2606 1575 2504 
Q 1447 2403 1373 2137 
Q 1300 1872 1300 1025 
L 1300 0 
z
" transform="scale(0.015625)"/>
      <path id="Arial-BoldMT-61" d="M 1116 2306 
L 319 2450 
Q 453 2931 781 3162 
Q 1109 3394 1756 3394 
Q 2344 3394 2631 3255 
Q 2919 3116 3036 2902 
Q 3153 2688 3153 2116 
L 3144 1091 
Q 3144 653 3186 445 
Q 3228 238 3344 0 
L 2475 0 
Q 2441 88 2391 259 
Q 2369 338 2359 363 
Q 2134 144 1878 34 
Q 1622 -75 1331 -75 
Q 819 -75 523 203 
Q 228 481 228 906 
Q 228 1188 362 1408 
Q 497 1628 739 1745 
Q 981 1863 1438 1950 
Q 2053 2066 2291 2166 
L 2291 2253 
Q 2291 2506 2166 2614 
Q 2041 2722 1694 2722 
Q 1459 2722 1328 2630 
Q 1197 2538 1116 2306 
z
M 2291 1594 
Q 2122 1538 1756 1459 
Q 1391 1381 1278 1306 
Q 1106 1184 1106 997 
Q 1106 813 1243 678 
Q 1381 544 1594 544 
Q 1831 544 2047 700 
Q 2206 819 2256 991 
Q 2291 1103 2291 1419 
L 2291 1594 
z
" transform="scale(0.015625)"/>
      <path id="Arial-BoldMT-6e" d="M 3478 0 
L 2600 0 
L 2600 1694 
Q 2600 2231 2544 2389 
Q 2488 2547 2361 2634 
Q 2234 2722 2056 2722 
Q 1828 2722 1647 2597 
Q 1466 2472 1398 2265 
Q 1331 2059 1331 1503 
L 1331 0 
L 453 0 
L 453 3319 
L 1269 3319 
L 1269 2831 
Q 1703 3394 2363 3394 
Q 2653 3394 2893 3289 
Q 3134 3184 3257 3021 
Q 3381 2859 3429 2653 
Q 3478 2447 3478 2063 
L 3478 0 
z
" transform="scale(0.015625)"/>
      <path id="Arial-BoldMT-67" d="M 378 -219 
L 1381 -341 
Q 1406 -516 1497 -581 
Q 1622 -675 1891 -675 
Q 2234 -675 2406 -572 
Q 2522 -503 2581 -350 
Q 2622 -241 2622 53 
L 2622 538 
Q 2228 0 1628 0 
Q 959 0 569 566 
Q 263 1013 263 1678 
Q 263 2513 664 2953 
Q 1066 3394 1663 3394 
Q 2278 3394 2678 2853 
L 2678 3319 
L 3500 3319 
L 3500 341 
Q 3500 -247 3403 -537 
Q 3306 -828 3131 -993 
Q 2956 -1159 2664 -1253 
Q 2372 -1347 1925 -1347 
Q 1081 -1347 728 -1058 
Q 375 -769 375 -325 
Q 375 -281 378 -219 
z
M 1163 1728 
Q 1163 1200 1367 954 
Q 1572 709 1872 709 
Q 2194 709 2416 961 
Q 2638 1213 2638 1706 
Q 2638 2222 2425 2472 
Q 2213 2722 1888 2722 
Q 1572 2722 1367 2476 
Q 1163 2231 1163 1728 
z
" transform="scale(0.015625)"/>
      <path id="Arial-BoldMT-75" d="M 2644 0 
L 2644 497 
Q 2463 231 2167 78 
Q 1872 -75 1544 -75 
Q 1209 -75 943 72 
Q 678 219 559 484 
Q 441 750 441 1219 
L 441 3319 
L 1319 3319 
L 1319 1794 
Q 1319 1094 1367 936 
Q 1416 778 1544 686 
Q 1672 594 1869 594 
Q 2094 594 2272 717 
Q 2450 841 2515 1023 
Q 2581 1206 2581 1919 
L 2581 3319 
L 3459 3319 
L 3459 0 
L 2644 0 
z
" transform="scale(0.015625)"/>
      <path id="Arial-BoldMT-74" d="M 1981 3319 
L 1981 2619 
L 1381 2619 
L 1381 1281 
Q 1381 875 1398 808 
Q 1416 741 1477 697 
Q 1538 653 1625 653 
Q 1747 653 1978 738 
L 2053 56 
Q 1747 -75 1359 -75 
Q 1122 -75 931 4 
Q 741 84 652 211 
Q 563 338 528 553 
Q 500 706 500 1172 
L 500 2619 
L 97 2619 
L 97 3319 
L 500 3319 
L 500 3978 
L 1381 4491 
L 1381 3319 
L 1981 3319 
z
" transform="scale(0.015625)"/>
     </defs>
     <use xlink:href="#Arial-BoldMT-53"/>
     <use xlink:href="#Arial-BoldMT-2e" x="66.699219"/>
     <use xlink:href="#Arial-BoldMT-20" x="94.482422"/>
     <use xlink:href="#Arial-BoldMT-6f" x="122.265625"/>
     <use xlink:href="#Arial-BoldMT-72" x="183.349609"/>
     <use xlink:href="#Arial-BoldMT-61" x="222.265625"/>
     <use xlink:href="#Arial-BoldMT-6e" x="277.880859"/>
     <use xlink:href="#Arial-BoldMT-67" x="338.964844"/>
     <use xlink:href="#Arial-BoldMT-75" x="400.048828"/>
     <use xlink:href="#Arial-BoldMT-74" x="461.132812"/>
     <use xlink:href="#Arial-BoldMT-61" x="494.433594"/>
     <use xlink:href="#Arial-BoldMT-6e" x="550.048828"/>
    </g>
   </g>
   <g id="legend_1">
    <g id="patch_52">
     <path d="M 903.33125 43.655156 
L 927.33125 43.655156 
L 927.33125 35.255156 
L 903.33125 35.255156 
z
" style="fill: #004d71; opacity: 0.8; stroke: #000000; stroke-linejoin: miter"/>
    </g>
    <g id="text_45">
     <!-- Great ape pG4s -->
     <g transform="translate(936.93125 43.655156) scale(0.12 -0.12)">
      <use xlink:href="#ArialMT-47"/>
      <use xlink:href="#ArialMT-72" x="77.783203"/>
      <use xlink:href="#ArialMT-65" x="111.083984"/>
      <use xlink:href="#ArialMT-61" x="166.699219"/>
      <use xlink:href="#ArialMT-74" x="222.314453"/>
      <use xlink:href="#ArialMT-20" x="250.097656"/>
      <use xlink:href="#ArialMT-61" x="277.880859"/>
      <use xlink:href="#ArialMT-70" x="333.496094"/>
      <use xlink:href="#ArialMT-65" x="389.111328"/>
      <use xlink:href="#ArialMT-20" x="444.726562"/>
      <use xlink:href="#ArialMT-70" x="472.509766"/>
      <use xlink:href="#ArialMT-47" x="528.125"/>
      <use xlink:href="#ArialMT-34" x="605.908203"/>
      <use xlink:href="#ArialMT-73" x="661.523438"/>
     </g>
    </g>
    <g id="patch_53">
     <path d="M 903.33125 60.775781 
L 927.33125 60.775781 
L 927.33125 52.375781 
L 903.33125 52.375781 
z
" style="fill: #aaaaaa; opacity: 0.8; stroke: #000000; stroke-linejoin: miter"/>
    </g>
    <g id="text_46">
     <!-- Pongini pG4s -->
     <g transform="translate(936.93125 60.775781) scale(0.12 -0.12)">
      <use xlink:href="#ArialMT-50"/>
      <use xlink:href="#ArialMT-6f" x="66.699219"/>
      <use xlink:href="#ArialMT-6e" x="122.314453"/>
      <use xlink:href="#ArialMT-67" x="177.929688"/>
      <use xlink:href="#ArialMT-69" x="233.544922"/>
      <use xlink:href="#ArialMT-6e" x="255.761719"/>
      <use xlink:href="#ArialMT-69" x="311.376953"/>
      <use xlink:href="#ArialMT-20" x="333.59375"/>
      <use xlink:href="#ArialMT-70" x="361.376953"/>
      <use xlink:href="#ArialMT-47" x="416.992188"/>
      <use xlink:href="#ArialMT-34" x="494.775391"/>
      <use xlink:href="#ArialMT-73" x="550.390625"/>
     </g>
    </g>
    <g id="patch_54">
     <path d="M 903.33125 78.037031 
L 927.33125 78.037031 
L 927.33125 69.637031 
L 903.33125 69.637031 
z
" style="fill: #ffa600; opacity: 0.8; stroke: #000000; stroke-linejoin: miter"/>
    </g>
    <g id="text_47">
     <!-- Species-specific pG4s -->
     <g transform="translate(936.93125 78.037031) scale(0.12 -0.12)">
      <defs>
       <path id="ArialMT-53" d="M 288 1472 
L 859 1522 
Q 900 1178 1048 958 
Q 1197 738 1509 602 
Q 1822 466 2213 466 
Q 2559 466 2825 569 
Q 3091 672 3220 851 
Q 3350 1031 3350 1244 
Q 3350 1459 3225 1620 
Q 3100 1781 2813 1891 
Q 2628 1963 1997 2114 
Q 1366 2266 1113 2400 
Q 784 2572 623 2826 
Q 463 3081 463 3397 
Q 463 3744 659 4045 
Q 856 4347 1234 4503 
Q 1613 4659 2075 4659 
Q 2584 4659 2973 4495 
Q 3363 4331 3572 4012 
Q 3781 3694 3797 3291 
L 3216 3247 
Q 3169 3681 2898 3903 
Q 2628 4125 2100 4125 
Q 1550 4125 1298 3923 
Q 1047 3722 1047 3438 
Q 1047 3191 1225 3031 
Q 1400 2872 2139 2705 
Q 2878 2538 3153 2413 
Q 3553 2228 3743 1945 
Q 3934 1663 3934 1294 
Q 3934 928 3725 604 
Q 3516 281 3123 101 
Q 2731 -78 2241 -78 
Q 1619 -78 1198 103 
Q 778 284 539 648 
Q 300 1013 288 1472 
z
" transform="scale(0.015625)"/>
      </defs>
      <use xlink:href="#ArialMT-53"/>
      <use xlink:href="#ArialMT-70" x="66.699219"/>
      <use xlink:href="#ArialMT-65" x="122.314453"/>
      <use xlink:href="#ArialMT-63" x="177.929688"/>
      <use xlink:href="#ArialMT-69" x="227.929688"/>
      <use xlink:href="#ArialMT-65" x="250.146484"/>
      <use xlink:href="#ArialMT-73" x="305.761719"/>
      <use xlink:href="#ArialMT-2d" x="355.761719"/>
      <use xlink:href="#ArialMT-73" x="389.0625"/>
      <use xlink:href="#ArialMT-70" x="439.0625"/>
      <use xlink:href="#ArialMT-65" x="494.677734"/>
      <use xlink:href="#ArialMT-63" x="550.292969"/>
      <use xlink:href="#ArialMT-69" x="600.292969"/>
      <use xlink:href="#ArialMT-66" x="622.509766"/>
      <use xlink:href="#ArialMT-69" x="650.292969"/>
      <use xlink:href="#ArialMT-63" x="672.509766"/>
      <use xlink:href="#ArialMT-20" x="722.509766"/>
      <use xlink:href="#ArialMT-70" x="750.292969"/>
      <use xlink:href="#ArialMT-47" x="805.908203"/>
      <use xlink:href="#ArialMT-34" x="883.691406"/>
      <use xlink:href="#ArialMT-73" x="939.306641"/>
     </g>
    </g>
   </g>
  </g>
 </g>
 <defs>
  <clipPath id="p283069b989">
   <rect x="62.043125" y="24.119531" width="1004.4" height="332.64"/>
  </clipPath>
 </defs>
</svg>
