<?xml version="1.0" encoding="utf-8" standalone="no"?>
<!DOCTYPE svg PUBLIC "-//W3C//DTD SVG 1.1//EN"
  "http://www.w3.org/Graphics/SVG/1.1/DTD/svg11.dtd">
<svg xmlns:xlink="http://www.w3.org/1999/xlink" width="1073.643125pt" height="462.139844pt" viewBox="0 0 1073.643125 462.139844" xmlns="http://www.w3.org/2000/svg" version="1.1">
 <metadata>
  <rdf:RDF xmlns:dc="http://purl.org/dc/elements/1.1/" xmlns:cc="http://creativecommons.org/ns#" xmlns:rdf="http://www.w3.org/1999/02/22-rdf-syntax-ns#">
   <cc:Work>
    <dc:type rdf:resource="http://purl.org/dc/dcmitype/StillImage"/>
    <dc:date>2024-11-13T12:50:06.314959</dc:date>
    <dc:format>image/svg+xml</dc:format>
    <dc:creator>
     <cc:Agent>
      <dc:title>Matplotlib v3.7.2, https://matplotlib.org/</dc:title>
     </cc:Agent>
    </dc:creator>
   </cc:Work>
  </rdf:RDF>
 </metadata>
 <defs>
  <style type="text/css">*{stroke-linejoin: round; stroke-linecap: butt}</style>
 </defs>
 <g id="figure_1">
  <g id="patch_1">
   <path d="M 0 462.139844 
L 1073.643125 462.139844 
L 1073.643125 0 
L 0 0 
L 0 462.139844 
z
" style="fill: none"/>
  </g>
  <g id="axes_1">
   <g id="patch_2">
    <path d="M 62.043125 356.576719 
L 1066.443125 356.576719 
L 1066.443125 23.936719 
L 62.043125 23.936719 
L 62.043125 356.576719 
z
" style="fill: none"/>
   </g>
   <g id="patch_3">
    <path d="M 77.448033 190.256719 
L 89.771959 190.256719 
L 89.771959 103.426903 
L 77.448033 103.426903 
z
" clip-path="url(#p39b5fa186b)" style="fill: #004d71; opacity: 0.8; stroke: #000000; stroke-linejoin: miter"/>
   </g>
   <g id="patch_4">
    <path d="M 139.067665 190.256719 
L 151.391591 190.256719 
L 151.391591 163.671602 
L 139.067665 163.671602 
z
" clip-path="url(#p39b5fa186b)" style="fill: #004d71; opacity: 0.8; stroke: #000000; stroke-linejoin: miter"/>
   </g>
   <g id="patch_5">
    <path d="M 200.687297 190.256719 
L 213.011223 190.256719 
L 213.011223 134.601156 
L 200.687297 134.601156 
z
" clip-path="url(#p39b5fa186b)" style="fill: #004d71; opacity: 0.8; stroke: #000000; stroke-linejoin: miter"/>
   </g>
   <g id="patch_6">
    <path d="M 262.306929 190.256719 
L 274.630855 190.256719 
L 274.630855 286.717941 
L 262.306929 286.717941 
z
" clip-path="url(#p39b5fa186b)" style="fill: #004d71; opacity: 0.8; stroke: #000000; stroke-linejoin: miter"/>
   </g>
   <g id="patch_7">
    <path d="M 323.926561 190.256719 
L 336.250487 190.256719 
L 336.250487 225.009879 
L 323.926561 225.009879 
z
" clip-path="url(#p39b5fa186b)" style="fill: #004d71; opacity: 0.8; stroke: #000000; stroke-linejoin: miter"/>
   </g>
   <g id="patch_8">
    <path d="M 385.546192 190.256719 
L 397.870119 190.256719 
L 397.870119 177.261997 
L 385.546192 177.261997 
z
" clip-path="url(#p39b5fa186b)" style="fill: #004d71; opacity: 0.8; stroke: #000000; stroke-linejoin: miter"/>
   </g>
   <g id="patch_9">
    <path d="M 447.165824 190.256719 
L 459.489751 190.256719 
L 459.489751 183.964677 
L 447.165824 183.964677 
z
" clip-path="url(#p39b5fa186b)" style="fill: #004d71; opacity: 0.8; stroke: #000000; stroke-linejoin: miter"/>
   </g>
   <g id="patch_10">
    <path d="M 508.785456 190.256719 
L 521.109383 190.256719 
L 521.109383 153.476719 
L 508.785456 153.476719 
z
" clip-path="url(#p39b5fa186b)" style="fill: #004d71; opacity: 0.8; stroke: #000000; stroke-linejoin: miter"/>
   </g>
   <g id="patch_11">
    <path d="M 570.405088 190.256719 
L 582.729015 190.256719 
L 582.729015 142.2522 
L 570.405088 142.2522 
z
" clip-path="url(#p39b5fa186b)" style="fill: #004d71; opacity: 0.8; stroke: #000000; stroke-linejoin: miter"/>
   </g>
   <g id="patch_12">
    <path d="M 632.02472 190.256719 
L 644.348646 190.256719 
L 644.348646 183.065162 
L 632.02472 183.065162 
z
" clip-path="url(#p39b5fa186b)" style="fill: #004d71; opacity: 0.8; stroke: #000000; stroke-linejoin: miter"/>
   </g>
   <g id="patch_13">
    <path d="M 693.644352 190.256719 
L 705.968278 190.256719 
L 705.968278 184.233812 
L 693.644352 184.233812 
z
" clip-path="url(#p39b5fa186b)" style="fill: #004d71; opacity: 0.8; stroke: #000000; stroke-linejoin: miter"/>
   </g>
   <g id="patch_14">
    <path d="M 755.263984 190.256719 
L 767.58791 190.256719 
L 767.58791 185.897157 
L 755.263984 185.897157 
z
" clip-path="url(#p39b5fa186b)" style="fill: #004d71; opacity: 0.8; stroke: #000000; stroke-linejoin: miter"/>
   </g>
   <g id="patch_15">
    <path d="M 816.883616 190.256719 
L 829.207542 190.256719 
L 829.207542 161.762998 
L 816.883616 161.762998 
z
" clip-path="url(#p39b5fa186b)" style="fill: #004d71; opacity: 0.8; stroke: #000000; stroke-linejoin: miter"/>
   </g>
   <g id="patch_16">
    <path d="M 878.503248 190.256719 
L 890.827174 190.256719 
L 890.827174 250.120618 
L 878.503248 250.120618 
z
" clip-path="url(#p39b5fa186b)" style="fill: #004d71; opacity: 0.8; stroke: #000000; stroke-linejoin: miter"/>
   </g>
   <g id="patch_17">
    <path d="M 940.12288 190.256719 
L 952.446806 190.256719 
L 952.446806 204.286298 
L 940.12288 204.286298 
z
" clip-path="url(#p39b5fa186b)" style="fill: #004d71; opacity: 0.8; stroke: #000000; stroke-linejoin: miter"/>
   </g>
   <g id="patch_18">
    <path d="M 1001.742512 190.256719 
L 1014.066438 190.256719 
L 1014.066438 181.844982 
L 1001.742512 181.844982 
z
" clip-path="url(#p39b5fa186b)" style="fill: #004d71; opacity: 0.8; stroke: #000000; stroke-linejoin: miter"/>
   </g>
   <g id="patch_19">
    <path d="M 89.771959 190.256719 
L 102.095886 190.256719 
L 102.095886 154.216898 
L 89.771959 154.216898 
z
" clip-path="url(#p39b5fa186b)" style="fill: #8759a1; opacity: 0.8; stroke: #000000; stroke-linejoin: miter"/>
   </g>
   <g id="patch_20">
    <path d="M 151.391591 190.256719 
L 163.715518 190.256719 
L 163.715518 257.725323 
L 151.391591 257.725323 
z
" clip-path="url(#p39b5fa186b)" style="fill: #8759a1; opacity: 0.8; stroke: #000000; stroke-linejoin: miter"/>
   </g>
   <g id="patch_21">
    <path d="M 213.011223 190.256719 
L 225.33515 190.256719 
L 225.33515 217.836929 
L 213.011223 217.836929 
z
" clip-path="url(#p39b5fa186b)" style="fill: #8759a1; opacity: 0.8; stroke: #000000; stroke-linejoin: miter"/>
   </g>
   <g id="patch_22">
    <path d="M 274.630855 190.256719 
L 286.954781 190.256719 
L 286.954781 310.682947 
L 274.630855 310.682947 
z
" clip-path="url(#p39b5fa186b)" style="fill: #8759a1; opacity: 0.8; stroke: #000000; stroke-linejoin: miter"/>
   </g>
   <g id="patch_23">
    <path d="M 336.250487 190.256719 
L 348.574413 190.256719 
L 348.574413 281.258014 
L 336.250487 281.258014 
z
" clip-path="url(#p39b5fa186b)" style="fill: #8759a1; opacity: 0.8; stroke: #000000; stroke-linejoin: miter"/>
   </g>
   <g id="patch_24">
    <path d="M 397.870119 190.256719 
L 410.194045 190.256719 
L 410.194045 181.57736 
L 397.870119 181.57736 
z
" clip-path="url(#p39b5fa186b)" style="fill: #8759a1; opacity: 0.8; stroke: #000000; stroke-linejoin: miter"/>
   </g>
   <g id="patch_25">
    <path d="M 459.489751 190.256719 
L 471.813677 190.256719 
L 471.813677 184.376064 
L 459.489751 184.376064 
z
" clip-path="url(#p39b5fa186b)" style="fill: #8759a1; opacity: 0.8; stroke: #000000; stroke-linejoin: miter"/>
   </g>
   <g id="patch_26">
    <path d="M 521.109383 190.256719 
L 533.433309 190.256719 
L 533.433309 179.507998 
L 521.109383 179.507998 
z
" clip-path="url(#p39b5fa186b)" style="fill: #8759a1; opacity: 0.8; stroke: #000000; stroke-linejoin: miter"/>
   </g>
   <g id="patch_27">
    <path d="M 582.729015 190.256719 
L 595.052941 190.256719 
L 595.052941 160.130583 
L 582.729015 160.130583 
z
" clip-path="url(#p39b5fa186b)" style="fill: #8759a1; opacity: 0.8; stroke: #000000; stroke-linejoin: miter"/>
   </g>
   <g id="patch_28">
    <path d="M 644.348646 190.256719 
L 656.672573 190.256719 
L 656.672573 205.798382 
L 644.348646 205.798382 
z
" clip-path="url(#p39b5fa186b)" style="fill: #8759a1; opacity: 0.8; stroke: #000000; stroke-linejoin: miter"/>
   </g>
   <g id="patch_29">
    <path d="M 705.968278 190.256719 
L 718.292205 190.256719 
L 718.292205 182.639043 
L 705.968278 182.639043 
z
" clip-path="url(#p39b5fa186b)" style="fill: #8759a1; opacity: 0.8; stroke: #000000; stroke-linejoin: miter"/>
   </g>
   <g id="patch_30">
    <path d="M 767.58791 190.256719 
L 779.911837 190.256719 
L 779.911837 184.543629 
L 767.58791 184.543629 
z
" clip-path="url(#p39b5fa186b)" style="fill: #8759a1; opacity: 0.8; stroke: #000000; stroke-linejoin: miter"/>
   </g>
   <g id="patch_31">
    <path d="M 829.207542 190.256719 
L 841.531469 190.256719 
L 841.531469 174.056808 
L 829.207542 174.056808 
z
" clip-path="url(#p39b5fa186b)" style="fill: #8759a1; opacity: 0.8; stroke: #000000; stroke-linejoin: miter"/>
   </g>
   <g id="patch_32">
    <path d="M 890.827174 190.256719 
L 903.1511 190.256719 
L 903.1511 317.446177 
L 890.827174 317.446177 
z
" clip-path="url(#p39b5fa186b)" style="fill: #8759a1; opacity: 0.8; stroke: #000000; stroke-linejoin: miter"/>
   </g>
   <g id="patch_33">
    <path d="M 952.446806 190.256719 
L 964.770732 190.256719 
L 964.770732 198.921756 
L 952.446806 198.921756 
z
" clip-path="url(#p39b5fa186b)" style="fill: #8759a1; opacity: 0.8; stroke: #000000; stroke-linejoin: miter"/>
   </g>
   <g id="patch_34">
    <path d="M 1014.066438 190.256719 
L 1026.390364 190.256719 
L 1026.390364 182.857155 
L 1014.066438 182.857155 
z
" clip-path="url(#p39b5fa186b)" style="fill: #8759a1; opacity: 0.8; stroke: #000000; stroke-linejoin: miter"/>
   </g>
   <g id="patch_35">
    <path d="M 102.095886 190.256719 
L 114.419812 190.256719 
L 114.419812 172.55275 
L 102.095886 172.55275 
z
" clip-path="url(#p39b5fa186b)" style="fill: #f75a78; opacity: 0.8; stroke: #000000; stroke-linejoin: miter"/>
   </g>
   <g id="patch_36">
    <path d="M 163.715518 190.256719 
L 176.039444 190.256719 
L 176.039444 279.363825 
L 163.715518 279.363825 
z
" clip-path="url(#p39b5fa186b)" style="fill: #f75a78; opacity: 0.8; stroke: #000000; stroke-linejoin: miter"/>
   </g>
   <g id="patch_37">
    <path d="M 225.33515 190.256719 
L 237.659076 190.256719 
L 237.659076 265.156501 
L 225.33515 265.156501 
z
" clip-path="url(#p39b5fa186b)" style="fill: #f75a78; opacity: 0.8; stroke: #000000; stroke-linejoin: miter"/>
   </g>
   <g id="patch_38">
    <path d="M 286.954781 190.256719 
L 299.278708 190.256719 
L 299.278708 317.977036 
L 286.954781 317.977036 
z
" clip-path="url(#p39b5fa186b)" style="fill: #f75a78; opacity: 0.8; stroke: #000000; stroke-linejoin: miter"/>
   </g>
   <g id="patch_39">
    <path d="M 348.574413 190.256719 
L 360.89834 190.256719 
L 360.89834 301.140947 
L 348.574413 301.140947 
z
" clip-path="url(#p39b5fa186b)" style="fill: #f75a78; opacity: 0.8; stroke: #000000; stroke-linejoin: miter"/>
   </g>
   <g id="patch_40">
    <path d="M 410.194045 190.256719 
L 422.517972 190.256719 
L 422.517972 187.76831 
L 410.194045 187.76831 
z
" clip-path="url(#p39b5fa186b)" style="fill: #f75a78; opacity: 0.8; stroke: #000000; stroke-linejoin: miter"/>
   </g>
   <g id="patch_41">
    <path d="M 471.813677 190.256719 
L 484.137604 190.256719 
L 484.137604 186.634032 
L 471.813677 186.634032 
z
" clip-path="url(#p39b5fa186b)" style="fill: #f75a78; opacity: 0.8; stroke: #000000; stroke-linejoin: miter"/>
   </g>
   <g id="patch_42">
    <path d="M 533.433309 190.256719 
L 545.757235 190.256719 
L 545.757235 193.931881 
L 533.433309 193.931881 
z
" clip-path="url(#p39b5fa186b)" style="fill: #f75a78; opacity: 0.8; stroke: #000000; stroke-linejoin: miter"/>
   </g>
   <g id="patch_43">
    <path d="M 595.052941 190.256719 
L 607.376867 190.256719 
L 607.376867 181.932401 
L 595.052941 181.932401 
z
" clip-path="url(#p39b5fa186b)" style="fill: #f75a78; opacity: 0.8; stroke: #000000; stroke-linejoin: miter"/>
   </g>
   <g id="patch_44">
    <path d="M 656.672573 190.256719 
L 668.996499 190.256719 
L 668.996499 216.25877 
L 656.672573 216.25877 
z
" clip-path="url(#p39b5fa186b)" style="fill: #f75a78; opacity: 0.8; stroke: #000000; stroke-linejoin: miter"/>
   </g>
   <g id="patch_45">
    <path d="M 718.292205 190.256719 
L 730.616131 190.256719 
L 730.616131 183.951333 
L 718.292205 183.951333 
z
" clip-path="url(#p39b5fa186b)" style="fill: #f75a78; opacity: 0.8; stroke: #000000; stroke-linejoin: miter"/>
   </g>
   <g id="patch_46">
    <path d="M 779.911837 190.256719 
L 792.235763 190.256719 
L 792.235763 183.980455 
L 779.911837 183.980455 
z
" clip-path="url(#p39b5fa186b)" style="fill: #f75a78; opacity: 0.8; stroke: #000000; stroke-linejoin: miter"/>
   </g>
   <g id="patch_47">
    <path d="M 841.531469 190.256719 
L 853.855395 190.256719 
L 853.855395 179.796102 
L 841.531469 179.796102 
z
" clip-path="url(#p39b5fa186b)" style="fill: #f75a78; opacity: 0.8; stroke: #000000; stroke-linejoin: miter"/>
   </g>
   <g id="patch_48">
    <path d="M 903.1511 190.256719 
L 915.475027 190.256719 
L 915.475027 234.39001 
L 903.1511 234.39001 
z
" clip-path="url(#p39b5fa186b)" style="fill: #f75a78; opacity: 0.8; stroke: #000000; stroke-linejoin: miter"/>
   </g>
   <g id="patch_49">
    <path d="M 964.770732 190.256719 
L 977.094659 190.256719 
L 977.094659 195.046596 
L 964.770732 195.046596 
z
" clip-path="url(#p39b5fa186b)" style="fill: #f75a78; opacity: 0.8; stroke: #000000; stroke-linejoin: miter"/>
   </g>
   <g id="patch_50">
    <path d="M 1026.390364 190.256719 
L 1038.714291 190.256719 
L 1038.714291 185.607836 
L 1026.390364 185.607836 
z
" clip-path="url(#p39b5fa186b)" style="fill: #f75a78; opacity: 0.8; stroke: #000000; stroke-linejoin: miter"/>
   </g>
   <g id="patch_51">
    <path d="M 114.419812 190.256719 
L 126.743738 190.256719 
L 126.743738 189.571387 
L 114.419812 189.571387 
z
" clip-path="url(#p39b5fa186b)" style="fill: #ffa600; opacity: 0.8; stroke: #000000; stroke-linejoin: miter"/>
   </g>
   <g id="patch_52">
    <path d="M 176.039444 190.256719 
L 188.36337 190.256719 
L 188.36337 312.555097 
L 176.039444 312.555097 
z
" clip-path="url(#p39b5fa186b)" style="fill: #ffa600; opacity: 0.8; stroke: #000000; stroke-linejoin: miter"/>
   </g>
   <g id="patch_53">
    <path d="M 237.659076 190.256719 
L 249.983002 190.256719 
L 249.983002 283.56635 
L 237.659076 283.56635 
z
" clip-path="url(#p39b5fa186b)" style="fill: #ffa600; opacity: 0.8; stroke: #000000; stroke-linejoin: miter"/>
   </g>
   <g id="patch_54">
    <path d="M 299.278708 190.256719 
L 311.602634 190.256719 
L 311.602634 320.960416 
L 299.278708 320.960416 
z
" clip-path="url(#p39b5fa186b)" style="fill: #ffa600; opacity: 0.8; stroke: #000000; stroke-linejoin: miter"/>
   </g>
   <g id="patch_55">
    <path d="M 360.89834 190.256719 
L 373.222266 190.256719 
L 373.222266 309.668348 
L 360.89834 309.668348 
z
" clip-path="url(#p39b5fa186b)" style="fill: #ffa600; opacity: 0.8; stroke: #000000; stroke-linejoin: miter"/>
   </g>
   <g id="patch_56">
    <path d="M 422.517972 190.256719 
L 434.841898 190.256719 
L 434.841898 193.960845 
L 422.517972 193.960845 
z
" clip-path="url(#p39b5fa186b)" style="fill: #ffa600; opacity: 0.8; stroke: #000000; stroke-linejoin: miter"/>
   </g>
   <g id="patch_57">
    <path d="M 484.137604 190.256719 
L 496.46153 190.256719 
L 496.46153 186.533541 
L 484.137604 186.533541 
z
" clip-path="url(#p39b5fa186b)" style="fill: #ffa600; opacity: 0.8; stroke: #000000; stroke-linejoin: miter"/>
   </g>
   <g id="patch_58">
    <path d="M 545.757235 190.256719 
L 558.081162 190.256719 
L 558.081162 204.642722 
L 545.757235 204.642722 
z
" clip-path="url(#p39b5fa186b)" style="fill: #ffa600; opacity: 0.8; stroke: #000000; stroke-linejoin: miter"/>
   </g>
   <g id="patch_59">
    <path d="M 607.376867 190.256719 
L 619.700794 190.256719 
L 619.700794 193.863319 
L 607.376867 193.863319 
z
" clip-path="url(#p39b5fa186b)" style="fill: #ffa600; opacity: 0.8; stroke: #000000; stroke-linejoin: miter"/>
   </g>
   <g id="patch_60">
    <path d="M 668.996499 190.256719 
L 681.320426 190.256719 
L 681.320426 235.350133 
L 668.996499 235.350133 
z
" clip-path="url(#p39b5fa186b)" style="fill: #ffa600; opacity: 0.8; stroke: #000000; stroke-linejoin: miter"/>
   </g>
   <g id="patch_61">
    <path d="M 730.616131 190.256719 
L 742.940058 190.256719 
L 742.940058 187.811018 
L 730.616131 187.811018 
z
" clip-path="url(#p39b5fa186b)" style="fill: #ffa600; opacity: 0.8; stroke: #000000; stroke-linejoin: miter"/>
   </g>
   <g id="patch_62">
    <path d="M 792.235763 190.256719 
L 804.559689 190.256719 
L 804.559689 181.549493 
L 792.235763 181.549493 
z
" clip-path="url(#p39b5fa186b)" style="fill: #ffa600; opacity: 0.8; stroke: #000000; stroke-linejoin: miter"/>
   </g>
   <g id="patch_63">
    <path d="M 853.855395 190.256719 
L 866.179321 190.256719 
L 866.179321 196.046811 
L 853.855395 196.046811 
z
" clip-path="url(#p39b5fa186b)" style="fill: #ffa600; opacity: 0.8; stroke: #000000; stroke-linejoin: miter"/>
   </g>
   <g id="patch_64">
    <path d="M 915.475027 190.256719 
L 927.798953 190.256719 
L 927.798953 156.989406 
L 915.475027 156.989406 
z
" clip-path="url(#p39b5fa186b)" style="fill: #ffa600; opacity: 0.8; stroke: #000000; stroke-linejoin: miter"/>
   </g>
   <g id="patch_65">
    <path d="M 977.094659 190.256719 
L 989.418585 190.256719 
L 989.418585 187.915181 
L 977.094659 187.915181 
z
" clip-path="url(#p39b5fa186b)" style="fill: #ffa600; opacity: 0.8; stroke: #000000; stroke-linejoin: miter"/>
   </g>
   <g id="patch_66">
    <path d="M 1038.714291 190.256719 
L 1051.038217 190.256719 
L 1051.038217 192.520072 
L 1038.714291 192.520072 
z
" clip-path="url(#p39b5fa186b)" style="fill: #ffa600; opacity: 0.8; stroke: #000000; stroke-linejoin: miter"/>
   </g>
   <g id="matplotlib.axis_1">
    <g id="xtick_1">
     <g id="line2d_1">
      <defs>
       <path id="m9f08177c62" d="M 0 0 
L 0 3.5 
" style="stroke: #000000; stroke-width: 0.8"/>
      </defs>
      <g>
       <use xlink:href="#m9f08177c62" x="102.095886" y="356.576719" style="stroke: #000000; stroke-width: 0.8"/>
      </g>
     </g>
     <g id="text_1">
      <!-- Promoters -->
      <g transform="translate(105.198073 418.921094) rotate(-90) scale(0.12 -0.12)">
       <defs>
        <path id="ArialMT-50" d="M 494 0 
L 494 4581 
L 2222 4581 
Q 2678 4581 2919 4538 
Q 3256 4481 3484 4323 
Q 3713 4166 3852 3881 
Q 3991 3597 3991 3256 
Q 3991 2672 3619 2267 
Q 3247 1863 2275 1863 
L 1100 1863 
L 1100 0 
L 494 0 
z
M 1100 2403 
L 2284 2403 
Q 2872 2403 3119 2622 
Q 3366 2841 3366 3238 
Q 3366 3525 3220 3729 
Q 3075 3934 2838 4000 
Q 2684 4041 2272 4041 
L 1100 4041 
L 1100 2403 
z
" transform="scale(0.015625)"/>
        <path id="ArialMT-72" d="M 416 0 
L 416 3319 
L 922 3319 
L 922 2816 
Q 1116 3169 1280 3281 
Q 1444 3394 1641 3394 
Q 1925 3394 2219 3213 
L 2025 2691 
Q 1819 2813 1613 2813 
Q 1428 2813 1281 2702 
Q 1134 2591 1072 2394 
Q 978 2094 978 1738 
L 978 0 
L 416 0 
z
" transform="scale(0.015625)"/>
        <path id="ArialMT-6f" d="M 213 1659 
Q 213 2581 725 3025 
Q 1153 3394 1769 3394 
Q 2453 3394 2887 2945 
Q 3322 2497 3322 1706 
Q 3322 1066 3130 698 
Q 2938 331 2570 128 
Q 2203 -75 1769 -75 
Q 1072 -75 642 372 
Q 213 819 213 1659 
z
M 791 1659 
Q 791 1022 1069 705 
Q 1347 388 1769 388 
Q 2188 388 2466 706 
Q 2744 1025 2744 1678 
Q 2744 2294 2464 2611 
Q 2184 2928 1769 2928 
Q 1347 2928 1069 2612 
Q 791 2297 791 1659 
z
" transform="scale(0.015625)"/>
        <path id="ArialMT-6d" d="M 422 0 
L 422 3319 
L 925 3319 
L 925 2853 
Q 1081 3097 1340 3245 
Q 1600 3394 1931 3394 
Q 2300 3394 2536 3241 
Q 2772 3088 2869 2813 
Q 3263 3394 3894 3394 
Q 4388 3394 4653 3120 
Q 4919 2847 4919 2278 
L 4919 0 
L 4359 0 
L 4359 2091 
Q 4359 2428 4304 2576 
Q 4250 2725 4106 2815 
Q 3963 2906 3769 2906 
Q 3419 2906 3187 2673 
Q 2956 2441 2956 1928 
L 2956 0 
L 2394 0 
L 2394 2156 
Q 2394 2531 2256 2718 
Q 2119 2906 1806 2906 
Q 1569 2906 1367 2781 
Q 1166 2656 1075 2415 
Q 984 2175 984 1722 
L 984 0 
L 422 0 
z
" transform="scale(0.015625)"/>
        <path id="ArialMT-74" d="M 1650 503 
L 1731 6 
Q 1494 -44 1306 -44 
Q 1000 -44 831 53 
Q 663 150 594 308 
Q 525 466 525 972 
L 525 2881 
L 113 2881 
L 113 3319 
L 525 3319 
L 525 4141 
L 1084 4478 
L 1084 3319 
L 1650 3319 
L 1650 2881 
L 1084 2881 
L 1084 941 
Q 1084 700 1114 631 
Q 1144 563 1211 522 
Q 1278 481 1403 481 
Q 1497 481 1650 503 
z
" transform="scale(0.015625)"/>
        <path id="ArialMT-65" d="M 2694 1069 
L 3275 997 
Q 3138 488 2766 206 
Q 2394 -75 1816 -75 
Q 1088 -75 661 373 
Q 234 822 234 1631 
Q 234 2469 665 2931 
Q 1097 3394 1784 3394 
Q 2450 3394 2872 2941 
Q 3294 2488 3294 1666 
Q 3294 1616 3291 1516 
L 816 1516 
Q 847 969 1125 678 
Q 1403 388 1819 388 
Q 2128 388 2347 550 
Q 2566 713 2694 1069 
z
M 847 1978 
L 2700 1978 
Q 2663 2397 2488 2606 
Q 2219 2931 1791 2931 
Q 1403 2931 1139 2672 
Q 875 2413 847 1978 
z
" transform="scale(0.015625)"/>
        <path id="ArialMT-73" d="M 197 991 
L 753 1078 
Q 800 744 1014 566 
Q 1228 388 1613 388 
Q 2000 388 2187 545 
Q 2375 703 2375 916 
Q 2375 1106 2209 1216 
Q 2094 1291 1634 1406 
Q 1016 1563 777 1677 
Q 538 1791 414 1992 
Q 291 2194 291 2438 
Q 291 2659 392 2848 
Q 494 3038 669 3163 
Q 800 3259 1026 3326 
Q 1253 3394 1513 3394 
Q 1903 3394 2198 3281 
Q 2494 3169 2634 2976 
Q 2775 2784 2828 2463 
L 2278 2388 
Q 2241 2644 2061 2787 
Q 1881 2931 1553 2931 
Q 1166 2931 1000 2803 
Q 834 2675 834 2503 
Q 834 2394 903 2306 
Q 972 2216 1119 2156 
Q 1203 2125 1616 2013 
Q 2213 1853 2448 1751 
Q 2684 1650 2818 1456 
Q 2953 1263 2953 975 
Q 2953 694 2789 445 
Q 2625 197 2315 61 
Q 2006 -75 1616 -75 
Q 969 -75 630 194 
Q 291 463 197 991 
z
" transform="scale(0.015625)"/>
       </defs>
       <use xlink:href="#ArialMT-50"/>
       <use xlink:href="#ArialMT-72" x="66.699219"/>
       <use xlink:href="#ArialMT-6f" x="100"/>
       <use xlink:href="#ArialMT-6d" x="155.615234"/>
       <use xlink:href="#ArialMT-6f" x="238.916016"/>
       <use xlink:href="#ArialMT-74" x="294.53125"/>
       <use xlink:href="#ArialMT-65" x="322.314453"/>
       <use xlink:href="#ArialMT-72" x="377.929688"/>
       <use xlink:href="#ArialMT-73" x="411.230469"/>
      </g>
     </g>
    </g>
    <g id="xtick_2">
     <g id="line2d_2">
      <g>
       <use xlink:href="#m9f08177c62" x="163.715518" y="356.576719" style="stroke: #000000; stroke-width: 0.8"/>
      </g>
     </g>
     <g id="text_2">
      <!-- 5' UTRs -->
      <g transform="translate(160.313518 430.738281) rotate(-90) scale(0.12 -0.12)">
       <defs>
        <path id="ArialMT-35" d="M 266 1200 
L 856 1250 
Q 922 819 1161 601 
Q 1400 384 1738 384 
Q 2144 384 2425 690 
Q 2706 997 2706 1503 
Q 2706 1984 2436 2262 
Q 2166 2541 1728 2541 
Q 1456 2541 1237 2417 
Q 1019 2294 894 2097 
L 366 2166 
L 809 4519 
L 3088 4519 
L 3088 3981 
L 1259 3981 
L 1013 2750 
Q 1425 3038 1878 3038 
Q 2478 3038 2890 2622 
Q 3303 2206 3303 1553 
Q 3303 931 2941 478 
Q 2500 -78 1738 -78 
Q 1113 -78 717 272 
Q 322 622 266 1200 
z
" transform="scale(0.015625)"/>
        <path id="ArialMT-27" d="M 425 2959 
L 281 3816 
L 281 4581 
L 922 4581 
L 922 3816 
L 772 2959 
L 425 2959 
z
" transform="scale(0.015625)"/>
        <path id="ArialMT-20" transform="scale(0.015625)"/>
        <path id="ArialMT-55" d="M 3500 4581 
L 4106 4581 
L 4106 1934 
Q 4106 1244 3950 837 
Q 3794 431 3386 176 
Q 2978 -78 2316 -78 
Q 1672 -78 1262 144 
Q 853 366 678 786 
Q 503 1206 503 1934 
L 503 4581 
L 1109 4581 
L 1109 1938 
Q 1109 1341 1220 1058 
Q 1331 775 1601 622 
Q 1872 469 2263 469 
Q 2931 469 3215 772 
Q 3500 1075 3500 1938 
L 3500 4581 
z
" transform="scale(0.015625)"/>
        <path id="ArialMT-54" d="M 1659 0 
L 1659 4041 
L 150 4041 
L 150 4581 
L 3781 4581 
L 3781 4041 
L 2266 4041 
L 2266 0 
L 1659 0 
z
" transform="scale(0.015625)"/>
        <path id="ArialMT-52" d="M 503 0 
L 503 4581 
L 2534 4581 
Q 3147 4581 3465 4457 
Q 3784 4334 3975 4021 
Q 4166 3709 4166 3331 
Q 4166 2844 3850 2509 
Q 3534 2175 2875 2084 
Q 3116 1969 3241 1856 
Q 3506 1613 3744 1247 
L 4541 0 
L 3778 0 
L 3172 953 
Q 2906 1366 2734 1584 
Q 2563 1803 2427 1890 
Q 2291 1978 2150 2013 
Q 2047 2034 1813 2034 
L 1109 2034 
L 1109 0 
L 503 0 
z
M 1109 2559 
L 2413 2559 
Q 2828 2559 3062 2645 
Q 3297 2731 3419 2920 
Q 3541 3109 3541 3331 
Q 3541 3656 3305 3865 
Q 3069 4075 2559 4075 
L 1109 4075 
L 1109 2559 
z
" transform="scale(0.015625)"/>
       </defs>
       <use xlink:href="#ArialMT-35"/>
       <use xlink:href="#ArialMT-27" x="55.615234"/>
       <use xlink:href="#ArialMT-20" x="74.707031"/>
       <use xlink:href="#ArialMT-55" x="102.490234"/>
       <use xlink:href="#ArialMT-54" x="174.707031"/>
       <use xlink:href="#ArialMT-52" x="235.791016"/>
       <use xlink:href="#ArialMT-73" x="308.007812"/>
      </g>
      <!-- (non-transcribed) -->
      <g transform="translate(173.181268 454.939844) rotate(-90) scale(0.12 -0.12)">
       <defs>
        <path id="ArialMT-28" d="M 1497 -1347 
Q 1031 -759 709 28 
Q 388 816 388 1659 
Q 388 2403 628 3084 
Q 909 3875 1497 4659 
L 1900 4659 
Q 1522 4009 1400 3731 
Q 1209 3300 1100 2831 
Q 966 2247 966 1656 
Q 966 153 1900 -1347 
L 1497 -1347 
z
" transform="scale(0.015625)"/>
        <path id="ArialMT-6e" d="M 422 0 
L 422 3319 
L 928 3319 
L 928 2847 
Q 1294 3394 1984 3394 
Q 2284 3394 2536 3286 
Q 2788 3178 2913 3003 
Q 3038 2828 3088 2588 
Q 3119 2431 3119 2041 
L 3119 0 
L 2556 0 
L 2556 2019 
Q 2556 2363 2490 2533 
Q 2425 2703 2258 2804 
Q 2091 2906 1866 2906 
Q 1506 2906 1245 2678 
Q 984 2450 984 1813 
L 984 0 
L 422 0 
z
" transform="scale(0.015625)"/>
        <path id="ArialMT-2d" d="M 203 1375 
L 203 1941 
L 1931 1941 
L 1931 1375 
L 203 1375 
z
" transform="scale(0.015625)"/>
        <path id="ArialMT-61" d="M 2588 409 
Q 2275 144 1986 34 
Q 1697 -75 1366 -75 
Q 819 -75 525 192 
Q 231 459 231 875 
Q 231 1119 342 1320 
Q 453 1522 633 1644 
Q 813 1766 1038 1828 
Q 1203 1872 1538 1913 
Q 2219 1994 2541 2106 
Q 2544 2222 2544 2253 
Q 2544 2597 2384 2738 
Q 2169 2928 1744 2928 
Q 1347 2928 1158 2789 
Q 969 2650 878 2297 
L 328 2372 
Q 403 2725 575 2942 
Q 747 3159 1072 3276 
Q 1397 3394 1825 3394 
Q 2250 3394 2515 3294 
Q 2781 3194 2906 3042 
Q 3031 2891 3081 2659 
Q 3109 2516 3109 2141 
L 3109 1391 
Q 3109 606 3145 398 
Q 3181 191 3288 0 
L 2700 0 
Q 2613 175 2588 409 
z
M 2541 1666 
Q 2234 1541 1622 1453 
Q 1275 1403 1131 1340 
Q 988 1278 909 1158 
Q 831 1038 831 891 
Q 831 666 1001 516 
Q 1172 366 1500 366 
Q 1825 366 2078 508 
Q 2331 650 2450 897 
Q 2541 1088 2541 1459 
L 2541 1666 
z
" transform="scale(0.015625)"/>
        <path id="ArialMT-63" d="M 2588 1216 
L 3141 1144 
Q 3050 572 2676 248 
Q 2303 -75 1759 -75 
Q 1078 -75 664 370 
Q 250 816 250 1647 
Q 250 2184 428 2587 
Q 606 2991 970 3192 
Q 1334 3394 1763 3394 
Q 2303 3394 2647 3120 
Q 2991 2847 3088 2344 
L 2541 2259 
Q 2463 2594 2264 2762 
Q 2066 2931 1784 2931 
Q 1359 2931 1093 2626 
Q 828 2322 828 1663 
Q 828 994 1084 691 
Q 1341 388 1753 388 
Q 2084 388 2306 591 
Q 2528 794 2588 1216 
z
" transform="scale(0.015625)"/>
        <path id="ArialMT-69" d="M 425 3934 
L 425 4581 
L 988 4581 
L 988 3934 
L 425 3934 
z
M 425 0 
L 425 3319 
L 988 3319 
L 988 0 
L 425 0 
z
" transform="scale(0.015625)"/>
        <path id="ArialMT-62" d="M 941 0 
L 419 0 
L 419 4581 
L 981 4581 
L 981 2947 
Q 1338 3394 1891 3394 
Q 2197 3394 2470 3270 
Q 2744 3147 2920 2923 
Q 3097 2700 3197 2384 
Q 3297 2069 3297 1709 
Q 3297 856 2875 390 
Q 2453 -75 1863 -75 
Q 1275 -75 941 416 
L 941 0 
z
M 934 1684 
Q 934 1088 1097 822 
Q 1363 388 1816 388 
Q 2184 388 2453 708 
Q 2722 1028 2722 1663 
Q 2722 2313 2464 2622 
Q 2206 2931 1841 2931 
Q 1472 2931 1203 2611 
Q 934 2291 934 1684 
z
" transform="scale(0.015625)"/>
        <path id="ArialMT-64" d="M 2575 0 
L 2575 419 
Q 2259 -75 1647 -75 
Q 1250 -75 917 144 
Q 584 363 401 755 
Q 219 1147 219 1656 
Q 219 2153 384 2558 
Q 550 2963 881 3178 
Q 1213 3394 1622 3394 
Q 1922 3394 2156 3267 
Q 2391 3141 2538 2938 
L 2538 4581 
L 3097 4581 
L 3097 0 
L 2575 0 
z
M 797 1656 
Q 797 1019 1065 703 
Q 1334 388 1700 388 
Q 2069 388 2326 689 
Q 2584 991 2584 1609 
Q 2584 2291 2321 2609 
Q 2059 2928 1675 2928 
Q 1300 2928 1048 2622 
Q 797 2316 797 1656 
z
" transform="scale(0.015625)"/>
        <path id="ArialMT-29" d="M 791 -1347 
L 388 -1347 
Q 1322 153 1322 1656 
Q 1322 2244 1188 2822 
Q 1081 3291 891 3722 
Q 769 4003 388 4659 
L 791 4659 
Q 1378 3875 1659 3084 
Q 1900 2403 1900 1659 
Q 1900 816 1576 28 
Q 1253 -759 791 -1347 
z
" transform="scale(0.015625)"/>
       </defs>
       <use xlink:href="#ArialMT-28"/>
       <use xlink:href="#ArialMT-6e" x="33.300781"/>
       <use xlink:href="#ArialMT-6f" x="88.916016"/>
       <use xlink:href="#ArialMT-6e" x="144.53125"/>
       <use xlink:href="#ArialMT-2d" x="200.146484"/>
       <use xlink:href="#ArialMT-74" x="233.447266"/>
       <use xlink:href="#ArialMT-72" x="261.230469"/>
       <use xlink:href="#ArialMT-61" x="294.53125"/>
       <use xlink:href="#ArialMT-6e" x="350.146484"/>
       <use xlink:href="#ArialMT-73" x="405.761719"/>
       <use xlink:href="#ArialMT-63" x="455.761719"/>
       <use xlink:href="#ArialMT-72" x="505.761719"/>
       <use xlink:href="#ArialMT-69" x="539.0625"/>
       <use xlink:href="#ArialMT-62" x="561.279297"/>
       <use xlink:href="#ArialMT-65" x="616.894531"/>
       <use xlink:href="#ArialMT-64" x="672.509766"/>
       <use xlink:href="#ArialMT-29" x="728.125"/>
      </g>
     </g>
    </g>
    <g id="xtick_3">
     <g id="line2d_3">
      <g>
       <use xlink:href="#m9f08177c62" x="225.33515" y="356.576719" style="stroke: #000000; stroke-width: 0.8"/>
      </g>
     </g>
     <g id="text_3">
      <!-- 5' UTRs -->
      <g transform="translate(221.93315 418.730781) rotate(-90) scale(0.12 -0.12)">
       <use xlink:href="#ArialMT-35"/>
       <use xlink:href="#ArialMT-27" x="55.615234"/>
       <use xlink:href="#ArialMT-20" x="74.707031"/>
       <use xlink:href="#ArialMT-55" x="102.490234"/>
       <use xlink:href="#ArialMT-54" x="174.707031"/>
       <use xlink:href="#ArialMT-52" x="235.791016"/>
       <use xlink:href="#ArialMT-73" x="308.007812"/>
      </g>
      <!-- (transcribed) -->
      <g transform="translate(234.8009 430.924844) rotate(-90) scale(0.12 -0.12)">
       <use xlink:href="#ArialMT-28"/>
       <use xlink:href="#ArialMT-74" x="33.300781"/>
       <use xlink:href="#ArialMT-72" x="61.083984"/>
       <use xlink:href="#ArialMT-61" x="94.384766"/>
       <use xlink:href="#ArialMT-6e" x="150"/>
       <use xlink:href="#ArialMT-73" x="205.615234"/>
       <use xlink:href="#ArialMT-63" x="255.615234"/>
       <use xlink:href="#ArialMT-72" x="305.615234"/>
       <use xlink:href="#ArialMT-69" x="338.916016"/>
       <use xlink:href="#ArialMT-62" x="361.132812"/>
       <use xlink:href="#ArialMT-65" x="416.748047"/>
       <use xlink:href="#ArialMT-64" x="472.363281"/>
       <use xlink:href="#ArialMT-29" x="527.978516"/>
      </g>
     </g>
    </g>
    <g id="xtick_4">
     <g id="line2d_4">
      <g>
       <use xlink:href="#m9f08177c62" x="286.954781" y="356.576719" style="stroke: #000000; stroke-width: 0.8"/>
      </g>
     </g>
     <g id="text_4">
      <!-- Protein-coding -->
      <g transform="translate(277.136344 447.945156) rotate(-90) scale(0.12 -0.12)">
       <defs>
        <path id="ArialMT-67" d="M 319 -275 
L 866 -356 
Q 900 -609 1056 -725 
Q 1266 -881 1628 -881 
Q 2019 -881 2231 -725 
Q 2444 -569 2519 -288 
Q 2563 -116 2559 434 
Q 2191 0 1641 0 
Q 956 0 581 494 
Q 206 988 206 1678 
Q 206 2153 378 2554 
Q 550 2956 876 3175 
Q 1203 3394 1644 3394 
Q 2231 3394 2613 2919 
L 2613 3319 
L 3131 3319 
L 3131 450 
Q 3131 -325 2973 -648 
Q 2816 -972 2473 -1159 
Q 2131 -1347 1631 -1347 
Q 1038 -1347 672 -1080 
Q 306 -813 319 -275 
z
M 784 1719 
Q 784 1066 1043 766 
Q 1303 466 1694 466 
Q 2081 466 2343 764 
Q 2606 1063 2606 1700 
Q 2606 2309 2336 2618 
Q 2066 2928 1684 2928 
Q 1309 2928 1046 2623 
Q 784 2319 784 1719 
z
" transform="scale(0.015625)"/>
       </defs>
       <use xlink:href="#ArialMT-50"/>
       <use xlink:href="#ArialMT-72" x="66.699219"/>
       <use xlink:href="#ArialMT-6f" x="100"/>
       <use xlink:href="#ArialMT-74" x="155.615234"/>
       <use xlink:href="#ArialMT-65" x="183.398438"/>
       <use xlink:href="#ArialMT-69" x="239.013672"/>
       <use xlink:href="#ArialMT-6e" x="261.230469"/>
       <use xlink:href="#ArialMT-2d" x="316.845703"/>
       <use xlink:href="#ArialMT-63" x="350.146484"/>
       <use xlink:href="#ArialMT-6f" x="400.146484"/>
       <use xlink:href="#ArialMT-64" x="455.761719"/>
       <use xlink:href="#ArialMT-69" x="511.376953"/>
       <use xlink:href="#ArialMT-6e" x="533.59375"/>
       <use xlink:href="#ArialMT-67" x="589.208984"/>
      </g>
      <!-- sequences -->
      <g transform="translate(289.969219 438.277656) rotate(-90) scale(0.12 -0.12)">
       <defs>
        <path id="ArialMT-71" d="M 2538 -1272 
L 2538 353 
Q 2406 169 2170 47 
Q 1934 -75 1669 -75 
Q 1078 -75 651 397 
Q 225 869 225 1691 
Q 225 2191 398 2587 
Q 572 2984 901 3189 
Q 1231 3394 1625 3394 
Q 2241 3394 2594 2875 
L 2594 3319 
L 3100 3319 
L 3100 -1272 
L 2538 -1272 
z
M 803 1669 
Q 803 1028 1072 708 
Q 1341 388 1716 388 
Q 2075 388 2334 692 
Q 2594 997 2594 1619 
Q 2594 2281 2320 2615 
Q 2047 2950 1678 2950 
Q 1313 2950 1058 2639 
Q 803 2328 803 1669 
z
" transform="scale(0.015625)"/>
        <path id="ArialMT-75" d="M 2597 0 
L 2597 488 
Q 2209 -75 1544 -75 
Q 1250 -75 995 37 
Q 741 150 617 320 
Q 494 491 444 738 
Q 409 903 409 1263 
L 409 3319 
L 972 3319 
L 972 1478 
Q 972 1038 1006 884 
Q 1059 663 1231 536 
Q 1403 409 1656 409 
Q 1909 409 2131 539 
Q 2353 669 2445 892 
Q 2538 1116 2538 1541 
L 2538 3319 
L 3100 3319 
L 3100 0 
L 2597 0 
z
" transform="scale(0.015625)"/>
       </defs>
       <use xlink:href="#ArialMT-73"/>
       <use xlink:href="#ArialMT-65" x="50"/>
       <use xlink:href="#ArialMT-71" x="105.615234"/>
       <use xlink:href="#ArialMT-75" x="161.230469"/>
       <use xlink:href="#ArialMT-65" x="216.845703"/>
       <use xlink:href="#ArialMT-6e" x="272.460938"/>
       <use xlink:href="#ArialMT-63" x="328.076172"/>
       <use xlink:href="#ArialMT-65" x="378.076172"/>
       <use xlink:href="#ArialMT-73" x="433.691406"/>
      </g>
      <!-- (non-transcribed) -->
      <g transform="translate(302.836969 454.939844) rotate(-90) scale(0.12 -0.12)">
       <use xlink:href="#ArialMT-28"/>
       <use xlink:href="#ArialMT-6e" x="33.300781"/>
       <use xlink:href="#ArialMT-6f" x="88.916016"/>
       <use xlink:href="#ArialMT-6e" x="144.53125"/>
       <use xlink:href="#ArialMT-2d" x="200.146484"/>
       <use xlink:href="#ArialMT-74" x="233.447266"/>
       <use xlink:href="#ArialMT-72" x="261.230469"/>
       <use xlink:href="#ArialMT-61" x="294.53125"/>
       <use xlink:href="#ArialMT-6e" x="350.146484"/>
       <use xlink:href="#ArialMT-73" x="405.761719"/>
       <use xlink:href="#ArialMT-63" x="455.761719"/>
       <use xlink:href="#ArialMT-72" x="505.761719"/>
       <use xlink:href="#ArialMT-69" x="539.0625"/>
       <use xlink:href="#ArialMT-62" x="561.279297"/>
       <use xlink:href="#ArialMT-65" x="616.894531"/>
       <use xlink:href="#ArialMT-64" x="672.509766"/>
       <use xlink:href="#ArialMT-29" x="728.125"/>
      </g>
     </g>
    </g>
    <g id="xtick_5">
     <g id="line2d_5">
      <g>
       <use xlink:href="#m9f08177c62" x="348.574413" y="356.576719" style="stroke: #000000; stroke-width: 0.8"/>
      </g>
     </g>
     <g id="text_5">
      <!-- Protein-coding -->
      <g transform="translate(338.755976 440.950469) rotate(-90) scale(0.12 -0.12)">
       <use xlink:href="#ArialMT-50"/>
       <use xlink:href="#ArialMT-72" x="66.699219"/>
       <use xlink:href="#ArialMT-6f" x="100"/>
       <use xlink:href="#ArialMT-74" x="155.615234"/>
       <use xlink:href="#ArialMT-65" x="183.398438"/>
       <use xlink:href="#ArialMT-69" x="239.013672"/>
       <use xlink:href="#ArialMT-6e" x="261.230469"/>
       <use xlink:href="#ArialMT-2d" x="316.845703"/>
       <use xlink:href="#ArialMT-63" x="350.146484"/>
       <use xlink:href="#ArialMT-6f" x="400.146484"/>
       <use xlink:href="#ArialMT-64" x="455.761719"/>
       <use xlink:href="#ArialMT-69" x="511.376953"/>
       <use xlink:href="#ArialMT-6e" x="533.59375"/>
       <use xlink:href="#ArialMT-67" x="589.208984"/>
      </g>
      <!-- sequences -->
      <g transform="translate(351.588851 431.282969) rotate(-90) scale(0.12 -0.12)">
       <use xlink:href="#ArialMT-73"/>
       <use xlink:href="#ArialMT-65" x="50"/>
       <use xlink:href="#ArialMT-71" x="105.615234"/>
       <use xlink:href="#ArialMT-75" x="161.230469"/>
       <use xlink:href="#ArialMT-65" x="216.845703"/>
       <use xlink:href="#ArialMT-6e" x="272.460938"/>
       <use xlink:href="#ArialMT-63" x="328.076172"/>
       <use xlink:href="#ArialMT-65" x="378.076172"/>
       <use xlink:href="#ArialMT-73" x="433.691406"/>
      </g>
      <!-- (transcribed) -->
      <g transform="translate(364.456601 435.937656) rotate(-90) scale(0.12 -0.12)">
       <use xlink:href="#ArialMT-28"/>
       <use xlink:href="#ArialMT-74" x="33.300781"/>
       <use xlink:href="#ArialMT-72" x="61.083984"/>
       <use xlink:href="#ArialMT-61" x="94.384766"/>
       <use xlink:href="#ArialMT-6e" x="150"/>
       <use xlink:href="#ArialMT-73" x="205.615234"/>
       <use xlink:href="#ArialMT-63" x="255.615234"/>
       <use xlink:href="#ArialMT-72" x="305.615234"/>
       <use xlink:href="#ArialMT-69" x="338.916016"/>
       <use xlink:href="#ArialMT-62" x="361.132812"/>
       <use xlink:href="#ArialMT-65" x="416.748047"/>
       <use xlink:href="#ArialMT-64" x="472.363281"/>
       <use xlink:href="#ArialMT-29" x="527.978516"/>
      </g>
     </g>
    </g>
    <g id="xtick_6">
     <g id="line2d_6">
      <g>
       <use xlink:href="#m9f08177c62" x="410.194045" y="356.576719" style="stroke: #000000; stroke-width: 0.8"/>
      </g>
     </g>
     <g id="text_6">
      <!-- Introns -->
      <g transform="translate(406.792045 427.599531) rotate(-90) scale(0.12 -0.12)">
       <defs>
        <path id="ArialMT-49" d="M 597 0 
L 597 4581 
L 1203 4581 
L 1203 0 
L 597 0 
z
" transform="scale(0.015625)"/>
       </defs>
       <use xlink:href="#ArialMT-49"/>
       <use xlink:href="#ArialMT-6e" x="27.783203"/>
       <use xlink:href="#ArialMT-74" x="83.398438"/>
       <use xlink:href="#ArialMT-72" x="111.181641"/>
       <use xlink:href="#ArialMT-6f" x="144.482422"/>
       <use xlink:href="#ArialMT-6e" x="200.097656"/>
       <use xlink:href="#ArialMT-73" x="255.712891"/>
      </g>
      <!-- (non-transcribed) -->
      <g transform="translate(419.659795 454.939844) rotate(-90) scale(0.12 -0.12)">
       <use xlink:href="#ArialMT-28"/>
       <use xlink:href="#ArialMT-6e" x="33.300781"/>
       <use xlink:href="#ArialMT-6f" x="88.916016"/>
       <use xlink:href="#ArialMT-6e" x="144.53125"/>
       <use xlink:href="#ArialMT-2d" x="200.146484"/>
       <use xlink:href="#ArialMT-74" x="233.447266"/>
       <use xlink:href="#ArialMT-72" x="261.230469"/>
       <use xlink:href="#ArialMT-61" x="294.53125"/>
       <use xlink:href="#ArialMT-6e" x="350.146484"/>
       <use xlink:href="#ArialMT-73" x="405.761719"/>
       <use xlink:href="#ArialMT-63" x="455.761719"/>
       <use xlink:href="#ArialMT-72" x="505.761719"/>
       <use xlink:href="#ArialMT-69" x="539.0625"/>
       <use xlink:href="#ArialMT-62" x="561.279297"/>
       <use xlink:href="#ArialMT-65" x="616.894531"/>
       <use xlink:href="#ArialMT-64" x="672.509766"/>
       <use xlink:href="#ArialMT-29" x="728.125"/>
      </g>
     </g>
    </g>
    <g id="xtick_7">
     <g id="line2d_7">
      <g>
       <use xlink:href="#m9f08177c62" x="471.813677" y="356.576719" style="stroke: #000000; stroke-width: 0.8"/>
      </g>
     </g>
     <g id="text_7">
      <!-- Introns -->
      <g transform="translate(468.411677 415.592031) rotate(-90) scale(0.12 -0.12)">
       <use xlink:href="#ArialMT-49"/>
       <use xlink:href="#ArialMT-6e" x="27.783203"/>
       <use xlink:href="#ArialMT-74" x="83.398438"/>
       <use xlink:href="#ArialMT-72" x="111.181641"/>
       <use xlink:href="#ArialMT-6f" x="144.482422"/>
       <use xlink:href="#ArialMT-6e" x="200.097656"/>
       <use xlink:href="#ArialMT-73" x="255.712891"/>
      </g>
      <!-- (transcribed) -->
      <g transform="translate(481.279427 430.924844) rotate(-90) scale(0.12 -0.12)">
       <use xlink:href="#ArialMT-28"/>
       <use xlink:href="#ArialMT-74" x="33.300781"/>
       <use xlink:href="#ArialMT-72" x="61.083984"/>
       <use xlink:href="#ArialMT-61" x="94.384766"/>
       <use xlink:href="#ArialMT-6e" x="150"/>
       <use xlink:href="#ArialMT-73" x="205.615234"/>
       <use xlink:href="#ArialMT-63" x="255.615234"/>
       <use xlink:href="#ArialMT-72" x="305.615234"/>
       <use xlink:href="#ArialMT-69" x="338.916016"/>
       <use xlink:href="#ArialMT-62" x="361.132812"/>
       <use xlink:href="#ArialMT-65" x="416.748047"/>
       <use xlink:href="#ArialMT-64" x="472.363281"/>
       <use xlink:href="#ArialMT-29" x="527.978516"/>
      </g>
     </g>
    </g>
    <g id="xtick_8">
     <g id="line2d_8">
      <g>
       <use xlink:href="#m9f08177c62" x="533.433309" y="356.576719" style="stroke: #000000; stroke-width: 0.8"/>
      </g>
     </g>
     <g id="text_8">
      <!-- 3' UTRs -->
      <g transform="translate(530.031309 430.738281) rotate(-90) scale(0.12 -0.12)">
       <defs>
        <path id="ArialMT-33" d="M 269 1209 
L 831 1284 
Q 928 806 1161 595 
Q 1394 384 1728 384 
Q 2125 384 2398 659 
Q 2672 934 2672 1341 
Q 2672 1728 2419 1979 
Q 2166 2231 1775 2231 
Q 1616 2231 1378 2169 
L 1441 2663 
Q 1497 2656 1531 2656 
Q 1891 2656 2178 2843 
Q 2466 3031 2466 3422 
Q 2466 3731 2256 3934 
Q 2047 4138 1716 4138 
Q 1388 4138 1169 3931 
Q 950 3725 888 3313 
L 325 3413 
Q 428 3978 793 4289 
Q 1159 4600 1703 4600 
Q 2078 4600 2393 4439 
Q 2709 4278 2876 4000 
Q 3044 3722 3044 3409 
Q 3044 3113 2884 2869 
Q 2725 2625 2413 2481 
Q 2819 2388 3044 2092 
Q 3269 1797 3269 1353 
Q 3269 753 2831 336 
Q 2394 -81 1725 -81 
Q 1122 -81 723 278 
Q 325 638 269 1209 
z
" transform="scale(0.015625)"/>
       </defs>
       <use xlink:href="#ArialMT-33"/>
       <use xlink:href="#ArialMT-27" x="55.615234"/>
       <use xlink:href="#ArialMT-20" x="74.707031"/>
       <use xlink:href="#ArialMT-55" x="102.490234"/>
       <use xlink:href="#ArialMT-54" x="174.707031"/>
       <use xlink:href="#ArialMT-52" x="235.791016"/>
       <use xlink:href="#ArialMT-73" x="308.007812"/>
      </g>
      <!-- (non-transcribed) -->
      <g transform="translate(542.899059 454.939844) rotate(-90) scale(0.12 -0.12)">
       <use xlink:href="#ArialMT-28"/>
       <use xlink:href="#ArialMT-6e" x="33.300781"/>
       <use xlink:href="#ArialMT-6f" x="88.916016"/>
       <use xlink:href="#ArialMT-6e" x="144.53125"/>
       <use xlink:href="#ArialMT-2d" x="200.146484"/>
       <use xlink:href="#ArialMT-74" x="233.447266"/>
       <use xlink:href="#ArialMT-72" x="261.230469"/>
       <use xlink:href="#ArialMT-61" x="294.53125"/>
       <use xlink:href="#ArialMT-6e" x="350.146484"/>
       <use xlink:href="#ArialMT-73" x="405.761719"/>
       <use xlink:href="#ArialMT-63" x="455.761719"/>
       <use xlink:href="#ArialMT-72" x="505.761719"/>
       <use xlink:href="#ArialMT-69" x="539.0625"/>
       <use xlink:href="#ArialMT-62" x="561.279297"/>
       <use xlink:href="#ArialMT-65" x="616.894531"/>
       <use xlink:href="#ArialMT-64" x="672.509766"/>
       <use xlink:href="#ArialMT-29" x="728.125"/>
      </g>
     </g>
    </g>
    <g id="xtick_9">
     <g id="line2d_9">
      <g>
       <use xlink:href="#m9f08177c62" x="595.052941" y="356.576719" style="stroke: #000000; stroke-width: 0.8"/>
      </g>
     </g>
     <g id="text_9">
      <!-- 3' UTRs -->
      <g transform="translate(591.650941 418.730781) rotate(-90) scale(0.12 -0.12)">
       <use xlink:href="#ArialMT-33"/>
       <use xlink:href="#ArialMT-27" x="55.615234"/>
       <use xlink:href="#ArialMT-20" x="74.707031"/>
       <use xlink:href="#ArialMT-55" x="102.490234"/>
       <use xlink:href="#ArialMT-54" x="174.707031"/>
       <use xlink:href="#ArialMT-52" x="235.791016"/>
       <use xlink:href="#ArialMT-73" x="308.007812"/>
      </g>
      <!-- (transcribed) -->
      <g transform="translate(604.518691 430.924844) rotate(-90) scale(0.12 -0.12)">
       <use xlink:href="#ArialMT-28"/>
       <use xlink:href="#ArialMT-74" x="33.300781"/>
       <use xlink:href="#ArialMT-72" x="61.083984"/>
       <use xlink:href="#ArialMT-61" x="94.384766"/>
       <use xlink:href="#ArialMT-6e" x="150"/>
       <use xlink:href="#ArialMT-73" x="205.615234"/>
       <use xlink:href="#ArialMT-63" x="255.615234"/>
       <use xlink:href="#ArialMT-72" x="305.615234"/>
       <use xlink:href="#ArialMT-69" x="338.916016"/>
       <use xlink:href="#ArialMT-62" x="361.132812"/>
       <use xlink:href="#ArialMT-65" x="416.748047"/>
       <use xlink:href="#ArialMT-64" x="472.363281"/>
       <use xlink:href="#ArialMT-29" x="527.978516"/>
      </g>
     </g>
    </g>
    <g id="xtick_10">
     <g id="line2d_10">
      <g>
       <use xlink:href="#m9f08177c62" x="656.672573" y="356.576719" style="stroke: #000000; stroke-width: 0.8"/>
      </g>
     </g>
     <g id="text_10">
      <!-- Enhancers -->
      <g transform="translate(659.77476 420.942344) rotate(-90) scale(0.12 -0.12)">
       <defs>
        <path id="ArialMT-45" d="M 506 0 
L 506 4581 
L 3819 4581 
L 3819 4041 
L 1113 4041 
L 1113 2638 
L 3647 2638 
L 3647 2100 
L 1113 2100 
L 1113 541 
L 3925 541 
L 3925 0 
L 506 0 
z
" transform="scale(0.015625)"/>
        <path id="ArialMT-68" d="M 422 0 
L 422 4581 
L 984 4581 
L 984 2938 
Q 1378 3394 1978 3394 
Q 2347 3394 2619 3248 
Q 2891 3103 3008 2847 
Q 3125 2591 3125 2103 
L 3125 0 
L 2563 0 
L 2563 2103 
Q 2563 2525 2380 2717 
Q 2197 2909 1863 2909 
Q 1613 2909 1392 2779 
Q 1172 2650 1078 2428 
Q 984 2206 984 1816 
L 984 0 
L 422 0 
z
" transform="scale(0.015625)"/>
       </defs>
       <use xlink:href="#ArialMT-45"/>
       <use xlink:href="#ArialMT-6e" x="66.699219"/>
       <use xlink:href="#ArialMT-68" x="122.314453"/>
       <use xlink:href="#ArialMT-61" x="177.929688"/>
       <use xlink:href="#ArialMT-6e" x="233.544922"/>
       <use xlink:href="#ArialMT-63" x="289.160156"/>
       <use xlink:href="#ArialMT-65" x="339.160156"/>
       <use xlink:href="#ArialMT-72" x="394.775391"/>
       <use xlink:href="#ArialMT-73" x="428.076172"/>
      </g>
     </g>
    </g>
    <g id="xtick_11">
     <g id="line2d_11">
      <g>
       <use xlink:href="#m9f08177c62" x="718.292205" y="356.576719" style="stroke: #000000; stroke-width: 0.8"/>
      </g>
     </g>
     <g id="text_11">
      <!-- Non-protein -->
      <g transform="translate(708.473767 440.606406) rotate(-90) scale(0.12 -0.12)">
       <defs>
        <path id="ArialMT-4e" d="M 488 0 
L 488 4581 
L 1109 4581 
L 3516 984 
L 3516 4581 
L 4097 4581 
L 4097 0 
L 3475 0 
L 1069 3600 
L 1069 0 
L 488 0 
z
" transform="scale(0.015625)"/>
        <path id="ArialMT-70" d="M 422 -1272 
L 422 3319 
L 934 3319 
L 934 2888 
Q 1116 3141 1344 3267 
Q 1572 3394 1897 3394 
Q 2322 3394 2647 3175 
Q 2972 2956 3137 2557 
Q 3303 2159 3303 1684 
Q 3303 1175 3120 767 
Q 2938 359 2589 142 
Q 2241 -75 1856 -75 
Q 1575 -75 1351 44 
Q 1128 163 984 344 
L 984 -1272 
L 422 -1272 
z
M 931 1641 
Q 931 1000 1190 694 
Q 1450 388 1819 388 
Q 2194 388 2461 705 
Q 2728 1022 2728 1688 
Q 2728 2322 2467 2637 
Q 2206 2953 1844 2953 
Q 1484 2953 1207 2617 
Q 931 2281 931 1641 
z
" transform="scale(0.015625)"/>
       </defs>
       <use xlink:href="#ArialMT-4e"/>
       <use xlink:href="#ArialMT-6f" x="72.216797"/>
       <use xlink:href="#ArialMT-6e" x="127.832031"/>
       <use xlink:href="#ArialMT-2d" x="183.447266"/>
       <use xlink:href="#ArialMT-70" x="216.748047"/>
       <use xlink:href="#ArialMT-72" x="272.363281"/>
       <use xlink:href="#ArialMT-6f" x="305.664062"/>
       <use xlink:href="#ArialMT-74" x="361.279297"/>
       <use xlink:href="#ArialMT-65" x="389.0625"/>
       <use xlink:href="#ArialMT-69" x="444.677734"/>
       <use xlink:href="#ArialMT-6e" x="466.894531"/>
      </g>
      <!-- coding genes -->
      <g transform="translate(721.166017 444.950781) rotate(-90) scale(0.12 -0.12)">
       <use xlink:href="#ArialMT-63"/>
       <use xlink:href="#ArialMT-6f" x="50"/>
       <use xlink:href="#ArialMT-64" x="105.615234"/>
       <use xlink:href="#ArialMT-69" x="161.230469"/>
       <use xlink:href="#ArialMT-6e" x="183.447266"/>
       <use xlink:href="#ArialMT-67" x="239.0625"/>
       <use xlink:href="#ArialMT-20" x="294.677734"/>
       <use xlink:href="#ArialMT-67" x="322.460938"/>
       <use xlink:href="#ArialMT-65" x="378.076172"/>
       <use xlink:href="#ArialMT-6e" x="433.691406"/>
       <use xlink:href="#ArialMT-65" x="489.306641"/>
       <use xlink:href="#ArialMT-73" x="544.921875"/>
      </g>
      <!-- (non-transcribed) -->
      <g transform="translate(734.174392 454.939844) rotate(-90) scale(0.12 -0.12)">
       <use xlink:href="#ArialMT-28"/>
       <use xlink:href="#ArialMT-6e" x="33.300781"/>
       <use xlink:href="#ArialMT-6f" x="88.916016"/>
       <use xlink:href="#ArialMT-6e" x="144.53125"/>
       <use xlink:href="#ArialMT-2d" x="200.146484"/>
       <use xlink:href="#ArialMT-74" x="233.447266"/>
       <use xlink:href="#ArialMT-72" x="261.230469"/>
       <use xlink:href="#ArialMT-61" x="294.53125"/>
       <use xlink:href="#ArialMT-6e" x="350.146484"/>
       <use xlink:href="#ArialMT-73" x="405.761719"/>
       <use xlink:href="#ArialMT-63" x="455.761719"/>
       <use xlink:href="#ArialMT-72" x="505.761719"/>
       <use xlink:href="#ArialMT-69" x="539.0625"/>
       <use xlink:href="#ArialMT-62" x="561.279297"/>
       <use xlink:href="#ArialMT-65" x="616.894531"/>
       <use xlink:href="#ArialMT-64" x="672.509766"/>
       <use xlink:href="#ArialMT-29" x="728.125"/>
      </g>
     </g>
    </g>
    <g id="xtick_12">
     <g id="line2d_12">
      <g>
       <use xlink:href="#m9f08177c62" x="779.911837" y="356.576719" style="stroke: #000000; stroke-width: 0.8"/>
      </g>
     </g>
     <g id="text_12">
      <!-- Non-protein -->
      <g transform="translate(770.093399 430.617344) rotate(-90) scale(0.12 -0.12)">
       <use xlink:href="#ArialMT-4e"/>
       <use xlink:href="#ArialMT-6f" x="72.216797"/>
       <use xlink:href="#ArialMT-6e" x="127.832031"/>
       <use xlink:href="#ArialMT-2d" x="183.447266"/>
       <use xlink:href="#ArialMT-70" x="216.748047"/>
       <use xlink:href="#ArialMT-72" x="272.363281"/>
       <use xlink:href="#ArialMT-6f" x="305.664062"/>
       <use xlink:href="#ArialMT-74" x="361.279297"/>
       <use xlink:href="#ArialMT-65" x="389.0625"/>
       <use xlink:href="#ArialMT-69" x="444.677734"/>
       <use xlink:href="#ArialMT-6e" x="466.894531"/>
      </g>
      <!-- coding genes -->
      <g transform="translate(782.785649 434.961719) rotate(-90) scale(0.12 -0.12)">
       <use xlink:href="#ArialMT-63"/>
       <use xlink:href="#ArialMT-6f" x="50"/>
       <use xlink:href="#ArialMT-64" x="105.615234"/>
       <use xlink:href="#ArialMT-69" x="161.230469"/>
       <use xlink:href="#ArialMT-6e" x="183.447266"/>
       <use xlink:href="#ArialMT-67" x="239.0625"/>
       <use xlink:href="#ArialMT-20" x="294.677734"/>
       <use xlink:href="#ArialMT-67" x="322.460938"/>
       <use xlink:href="#ArialMT-65" x="378.076172"/>
       <use xlink:href="#ArialMT-6e" x="433.691406"/>
       <use xlink:href="#ArialMT-65" x="489.306641"/>
       <use xlink:href="#ArialMT-73" x="544.921875"/>
      </g>
      <!-- (transcribed) -->
      <g transform="translate(795.794024 432.943281) rotate(-90) scale(0.12 -0.12)">
       <use xlink:href="#ArialMT-28"/>
       <use xlink:href="#ArialMT-74" x="33.300781"/>
       <use xlink:href="#ArialMT-72" x="61.083984"/>
       <use xlink:href="#ArialMT-61" x="94.384766"/>
       <use xlink:href="#ArialMT-6e" x="150"/>
       <use xlink:href="#ArialMT-73" x="205.615234"/>
       <use xlink:href="#ArialMT-63" x="255.615234"/>
       <use xlink:href="#ArialMT-72" x="305.615234"/>
       <use xlink:href="#ArialMT-69" x="338.916016"/>
       <use xlink:href="#ArialMT-62" x="361.132812"/>
       <use xlink:href="#ArialMT-65" x="416.748047"/>
       <use xlink:href="#ArialMT-64" x="472.363281"/>
       <use xlink:href="#ArialMT-29" x="527.978516"/>
      </g>
     </g>
    </g>
    <g id="xtick_13">
     <g id="line2d_13">
      <g>
       <use xlink:href="#m9f08177c62" x="841.531469" y="356.576719" style="stroke: #000000; stroke-width: 0.8"/>
      </g>
     </g>
     <g id="text_13">
      <!-- Origins of -->
      <g transform="translate(838.294094 416.597969) rotate(-90) scale(0.12 -0.12)">
       <defs>
        <path id="ArialMT-4f" d="M 309 2231 
Q 309 3372 921 4017 
Q 1534 4663 2503 4663 
Q 3138 4663 3647 4359 
Q 4156 4056 4423 3514 
Q 4691 2972 4691 2284 
Q 4691 1588 4409 1038 
Q 4128 488 3612 205 
Q 3097 -78 2500 -78 
Q 1853 -78 1343 234 
Q 834 547 571 1087 
Q 309 1628 309 2231 
z
M 934 2222 
Q 934 1394 1379 917 
Q 1825 441 2497 441 
Q 3181 441 3623 922 
Q 4066 1403 4066 2288 
Q 4066 2847 3877 3264 
Q 3688 3681 3323 3911 
Q 2959 4141 2506 4141 
Q 1863 4141 1398 3698 
Q 934 3256 934 2222 
z
" transform="scale(0.015625)"/>
        <path id="ArialMT-66" d="M 556 0 
L 556 2881 
L 59 2881 
L 59 3319 
L 556 3319 
L 556 3672 
Q 556 4006 616 4169 
Q 697 4388 901 4523 
Q 1106 4659 1475 4659 
Q 1713 4659 2000 4603 
L 1916 4113 
Q 1741 4144 1584 4144 
Q 1328 4144 1222 4034 
Q 1116 3925 1116 3625 
L 1116 3319 
L 1763 3319 
L 1763 2881 
L 1116 2881 
L 1116 0 
L 556 0 
z
" transform="scale(0.015625)"/>
       </defs>
       <use xlink:href="#ArialMT-4f"/>
       <use xlink:href="#ArialMT-72" x="77.783203"/>
       <use xlink:href="#ArialMT-69" x="111.083984"/>
       <use xlink:href="#ArialMT-67" x="133.300781"/>
       <use xlink:href="#ArialMT-69" x="188.916016"/>
       <use xlink:href="#ArialMT-6e" x="211.132812"/>
       <use xlink:href="#ArialMT-73" x="266.748047"/>
       <use xlink:href="#ArialMT-20" x="316.748047"/>
       <use xlink:href="#ArialMT-6f" x="344.53125"/>
       <use xlink:href="#ArialMT-66" x="400.146484"/>
      </g>
      <!-- replication -->
      <g transform="translate(851.126969 418.270469) rotate(-90) scale(0.12 -0.12)">
       <defs>
        <path id="ArialMT-6c" d="M 409 0 
L 409 4581 
L 972 4581 
L 972 0 
L 409 0 
z
" transform="scale(0.015625)"/>
       </defs>
       <use xlink:href="#ArialMT-72"/>
       <use xlink:href="#ArialMT-65" x="33.300781"/>
       <use xlink:href="#ArialMT-70" x="88.916016"/>
       <use xlink:href="#ArialMT-6c" x="144.53125"/>
       <use xlink:href="#ArialMT-69" x="166.748047"/>
       <use xlink:href="#ArialMT-63" x="188.964844"/>
       <use xlink:href="#ArialMT-61" x="238.964844"/>
       <use xlink:href="#ArialMT-74" x="294.580078"/>
       <use xlink:href="#ArialMT-69" x="322.363281"/>
       <use xlink:href="#ArialMT-6f" x="344.580078"/>
       <use xlink:href="#ArialMT-6e" x="400.195312"/>
      </g>
     </g>
    </g>
    <g id="xtick_14">
     <g id="line2d_14">
      <g>
       <use xlink:href="#m9f08177c62" x="903.1511" y="356.576719" style="stroke: #000000; stroke-width: 0.8"/>
      </g>
     </g>
     <g id="text_14">
      <!-- CpG islands -->
      <g transform="translate(906.326413 428.935469) rotate(-90) scale(0.12 -0.12)">
       <defs>
        <path id="ArialMT-43" d="M 3763 1606 
L 4369 1453 
Q 4178 706 3683 314 
Q 3188 -78 2472 -78 
Q 1731 -78 1267 223 
Q 803 525 561 1097 
Q 319 1669 319 2325 
Q 319 3041 592 3573 
Q 866 4106 1370 4382 
Q 1875 4659 2481 4659 
Q 3169 4659 3637 4309 
Q 4106 3959 4291 3325 
L 3694 3184 
Q 3534 3684 3231 3912 
Q 2928 4141 2469 4141 
Q 1941 4141 1586 3887 
Q 1231 3634 1087 3207 
Q 944 2781 944 2328 
Q 944 1744 1114 1308 
Q 1284 872 1643 656 
Q 2003 441 2422 441 
Q 2931 441 3284 734 
Q 3638 1028 3763 1606 
z
" transform="scale(0.015625)"/>
        <path id="ArialMT-47" d="M 2638 1797 
L 2638 2334 
L 4578 2338 
L 4578 638 
Q 4131 281 3656 101 
Q 3181 -78 2681 -78 
Q 2006 -78 1454 211 
Q 903 500 622 1047 
Q 341 1594 341 2269 
Q 341 2938 620 3517 
Q 900 4097 1425 4378 
Q 1950 4659 2634 4659 
Q 3131 4659 3532 4498 
Q 3934 4338 4162 4050 
Q 4391 3763 4509 3300 
L 3963 3150 
Q 3859 3500 3706 3700 
Q 3553 3900 3268 4020 
Q 2984 4141 2638 4141 
Q 2222 4141 1919 4014 
Q 1616 3888 1430 3681 
Q 1244 3475 1141 3228 
Q 966 2803 966 2306 
Q 966 1694 1177 1281 
Q 1388 869 1791 669 
Q 2194 469 2647 469 
Q 3041 469 3416 620 
Q 3791 772 3984 944 
L 3984 1797 
L 2638 1797 
z
" transform="scale(0.015625)"/>
       </defs>
       <use xlink:href="#ArialMT-43"/>
       <use xlink:href="#ArialMT-70" x="72.216797"/>
       <use xlink:href="#ArialMT-47" x="127.832031"/>
       <use xlink:href="#ArialMT-20" x="205.615234"/>
       <use xlink:href="#ArialMT-69" x="233.398438"/>
       <use xlink:href="#ArialMT-73" x="255.615234"/>
       <use xlink:href="#ArialMT-6c" x="305.615234"/>
       <use xlink:href="#ArialMT-61" x="327.832031"/>
       <use xlink:href="#ArialMT-6e" x="383.447266"/>
       <use xlink:href="#ArialMT-64" x="439.0625"/>
       <use xlink:href="#ArialMT-73" x="494.677734"/>
      </g>
     </g>
    </g>
    <g id="xtick_15">
     <g id="line2d_15">
      <g>
       <use xlink:href="#m9f08177c62" x="964.770732" y="356.576719" style="stroke: #000000; stroke-width: 0.8"/>
      </g>
     </g>
     <g id="text_15">
      <!-- Repeats -->
      <g transform="translate(967.87292 408.269219) rotate(-90) scale(0.12 -0.12)">
       <use xlink:href="#ArialMT-52"/>
       <use xlink:href="#ArialMT-65" x="72.216797"/>
       <use xlink:href="#ArialMT-70" x="127.832031"/>
       <use xlink:href="#ArialMT-65" x="183.447266"/>
       <use xlink:href="#ArialMT-61" x="239.0625"/>
       <use xlink:href="#ArialMT-74" x="294.677734"/>
       <use xlink:href="#ArialMT-73" x="322.460938"/>
      </g>
     </g>
    </g>
    <g id="xtick_16">
     <g id="line2d_16">
      <g>
       <use xlink:href="#m9f08177c62" x="1026.390364" y="356.576719" style="stroke: #000000; stroke-width: 0.8"/>
      </g>
     </g>
     <g id="text_16">
      <!-- Non-functional -->
      <g transform="translate(1023.146427 440.950469) rotate(-90) scale(0.12 -0.12)">
       <use xlink:href="#ArialMT-4e"/>
       <use xlink:href="#ArialMT-6f" x="72.216797"/>
       <use xlink:href="#ArialMT-6e" x="127.832031"/>
       <use xlink:href="#ArialMT-2d" x="183.447266"/>
       <use xlink:href="#ArialMT-66" x="216.748047"/>
       <use xlink:href="#ArialMT-75" x="244.53125"/>
       <use xlink:href="#ArialMT-6e" x="300.146484"/>
       <use xlink:href="#ArialMT-63" x="355.761719"/>
       <use xlink:href="#ArialMT-74" x="405.761719"/>
       <use xlink:href="#ArialMT-69" x="433.544922"/>
       <use xlink:href="#ArialMT-6f" x="455.761719"/>
       <use xlink:href="#ArialMT-6e" x="511.376953"/>
       <use xlink:href="#ArialMT-61" x="566.992188"/>
       <use xlink:href="#ArialMT-6c" x="622.607422"/>
      </g>
      <!-- non-repetitive -->
      <g transform="translate(1035.838677 438.615156) rotate(-90) scale(0.12 -0.12)">
       <defs>
        <path id="ArialMT-76" d="M 1344 0 
L 81 3319 
L 675 3319 
L 1388 1331 
Q 1503 1009 1600 663 
Q 1675 925 1809 1294 
L 2547 3319 
L 3125 3319 
L 1869 0 
L 1344 0 
z
" transform="scale(0.015625)"/>
       </defs>
       <use xlink:href="#ArialMT-6e"/>
       <use xlink:href="#ArialMT-6f" x="55.615234"/>
       <use xlink:href="#ArialMT-6e" x="111.230469"/>
       <use xlink:href="#ArialMT-2d" x="166.845703"/>
       <use xlink:href="#ArialMT-72" x="200.146484"/>
       <use xlink:href="#ArialMT-65" x="233.447266"/>
       <use xlink:href="#ArialMT-70" x="289.0625"/>
       <use xlink:href="#ArialMT-65" x="344.677734"/>
       <use xlink:href="#ArialMT-74" x="400.292969"/>
       <use xlink:href="#ArialMT-69" x="428.076172"/>
       <use xlink:href="#ArialMT-74" x="450.292969"/>
       <use xlink:href="#ArialMT-69" x="478.076172"/>
       <use xlink:href="#ArialMT-76" x="500.292969"/>
       <use xlink:href="#ArialMT-65" x="550.292969"/>
      </g>
     </g>
    </g>
   </g>
   <g id="matplotlib.axis_2">
    <g id="ytick_1">
     <g id="line2d_17">
      <path d="M 62.043125 323.312719 
L 1066.443125 323.312719 
" clip-path="url(#p39b5fa186b)" style="fill: none; stroke: #b0b0b0; stroke-opacity: 0.1; stroke-width: 0.8; stroke-linecap: square"/>
     </g>
     <g id="line2d_18">
      <defs>
       <path id="mf48e864135" d="M 0 0 
L -3.5 0 
" style="stroke: #000000; stroke-width: 0.8"/>
      </defs>
      <g>
       <use xlink:href="#mf48e864135" x="62.043125" y="323.312719" style="stroke: #000000; stroke-width: 0.8"/>
      </g>
     </g>
     <g id="text_17">
      <!-- 4 -->
      <g transform="translate(41.36125 327.607406) scale(0.12 -0.12)">
       <defs>
        <path id="ArialMT-2212" d="M 3381 1997 
L 356 1997 
L 356 2522 
L 3381 2522 
L 3381 1997 
z
" transform="scale(0.015625)"/>
        <path id="ArialMT-34" d="M 2069 0 
L 2069 1097 
L 81 1097 
L 81 1613 
L 2172 4581 
L 2631 4581 
L 2631 1613 
L 3250 1613 
L 3250 1097 
L 2631 1097 
L 2631 0 
L 2069 0 
z
M 2069 1613 
L 2069 3678 
L 634 1613 
L 2069 1613 
z
" transform="scale(0.015625)"/>
       </defs>
       <use xlink:href="#ArialMT-2212"/>
       <use xlink:href="#ArialMT-34" x="58.398438"/>
      </g>
     </g>
    </g>
    <g id="ytick_2">
     <g id="line2d_19">
      <path d="M 62.043125 256.784719 
L 1066.443125 256.784719 
" clip-path="url(#p39b5fa186b)" style="fill: none; stroke: #b0b0b0; stroke-opacity: 0.1; stroke-width: 0.8; stroke-linecap: square"/>
     </g>
     <g id="line2d_20">
      <g>
       <use xlink:href="#mf48e864135" x="62.043125" y="256.784719" style="stroke: #000000; stroke-width: 0.8"/>
      </g>
     </g>
     <g id="text_18">
      <!-- 2 -->
      <g transform="translate(41.36125 261.079406) scale(0.12 -0.12)">
       <defs>
        <path id="ArialMT-32" d="M 3222 541 
L 3222 0 
L 194 0 
Q 188 203 259 391 
Q 375 700 629 1000 
Q 884 1300 1366 1694 
Q 2113 2306 2375 2664 
Q 2638 3022 2638 3341 
Q 2638 3675 2398 3904 
Q 2159 4134 1775 4134 
Q 1369 4134 1125 3890 
Q 881 3647 878 3216 
L 300 3275 
Q 359 3922 746 4261 
Q 1134 4600 1788 4600 
Q 2447 4600 2831 4234 
Q 3216 3869 3216 3328 
Q 3216 3053 3103 2787 
Q 2991 2522 2730 2228 
Q 2469 1934 1863 1422 
Q 1356 997 1212 845 
Q 1069 694 975 541 
L 3222 541 
z
" transform="scale(0.015625)"/>
       </defs>
       <use xlink:href="#ArialMT-2212"/>
       <use xlink:href="#ArialMT-32" x="58.398438"/>
      </g>
     </g>
    </g>
    <g id="ytick_3">
     <g id="line2d_21">
      <path d="M 62.043125 190.256719 
L 1066.443125 190.256719 
" clip-path="url(#p39b5fa186b)" style="fill: none; stroke: #b0b0b0; stroke-opacity: 0.1; stroke-width: 0.8; stroke-linecap: square"/>
     </g>
     <g id="line2d_22">
      <g>
       <use xlink:href="#mf48e864135" x="62.043125" y="190.256719" style="stroke: #000000; stroke-width: 0.8"/>
      </g>
     </g>
     <g id="text_19">
      <!-- 0 -->
      <g transform="translate(48.37 194.551406) scale(0.12 -0.12)">
       <defs>
        <path id="ArialMT-30" d="M 266 2259 
Q 266 3072 433 3567 
Q 600 4063 929 4331 
Q 1259 4600 1759 4600 
Q 2128 4600 2406 4451 
Q 2684 4303 2865 4023 
Q 3047 3744 3150 3342 
Q 3253 2941 3253 2259 
Q 3253 1453 3087 958 
Q 2922 463 2592 192 
Q 2263 -78 1759 -78 
Q 1097 -78 719 397 
Q 266 969 266 2259 
z
M 844 2259 
Q 844 1131 1108 757 
Q 1372 384 1759 384 
Q 2147 384 2411 759 
Q 2675 1134 2675 2259 
Q 2675 3391 2411 3762 
Q 2147 4134 1753 4134 
Q 1366 4134 1134 3806 
Q 844 3388 844 2259 
z
" transform="scale(0.015625)"/>
       </defs>
       <use xlink:href="#ArialMT-30"/>
      </g>
     </g>
    </g>
    <g id="ytick_4">
     <g id="line2d_23">
      <path d="M 62.043125 123.728719 
L 1066.443125 123.728719 
" clip-path="url(#p39b5fa186b)" style="fill: none; stroke: #b0b0b0; stroke-opacity: 0.1; stroke-width: 0.8; stroke-linecap: square"/>
     </g>
     <g id="line2d_24">
      <g>
       <use xlink:href="#mf48e864135" x="62.043125" y="123.728719" style="stroke: #000000; stroke-width: 0.8"/>
      </g>
     </g>
     <g id="text_20">
      <!-- 2 -->
      <g transform="translate(48.37 128.023406) scale(0.12 -0.12)">
       <use xlink:href="#ArialMT-32"/>
      </g>
     </g>
    </g>
    <g id="ytick_5">
     <g id="line2d_25">
      <path d="M 62.043125 57.200719 
L 1066.443125 57.200719 
" clip-path="url(#p39b5fa186b)" style="fill: none; stroke: #b0b0b0; stroke-opacity: 0.1; stroke-width: 0.8; stroke-linecap: square"/>
     </g>
     <g id="line2d_26">
      <g>
       <use xlink:href="#mf48e864135" x="62.043125" y="57.200719" style="stroke: #000000; stroke-width: 0.8"/>
      </g>
     </g>
     <g id="text_21">
      <!-- 4 -->
      <g transform="translate(48.37 61.495406) scale(0.12 -0.12)">
       <use xlink:href="#ArialMT-34"/>
      </g>
     </g>
    </g>
    <g id="text_22">
     <!-- Residuals of pG4 enrichment calculated -->
     <g transform="translate(18.119531 322.820391) rotate(-90) scale(0.15 -0.15)">
      <use xlink:href="#ArialMT-52"/>
      <use xlink:href="#ArialMT-65" x="72.216797"/>
      <use xlink:href="#ArialMT-73" x="127.832031"/>
      <use xlink:href="#ArialMT-69" x="177.832031"/>
      <use xlink:href="#ArialMT-64" x="200.048828"/>
      <use xlink:href="#ArialMT-75" x="255.664062"/>
      <use xlink:href="#ArialMT-61" x="311.279297"/>
      <use xlink:href="#ArialMT-6c" x="366.894531"/>
      <use xlink:href="#ArialMT-73" x="389.111328"/>
      <use xlink:href="#ArialMT-20" x="439.111328"/>
      <use xlink:href="#ArialMT-6f" x="466.894531"/>
      <use xlink:href="#ArialMT-66" x="522.509766"/>
      <use xlink:href="#ArialMT-20" x="550.292969"/>
      <use xlink:href="#ArialMT-70" x="578.076172"/>
      <use xlink:href="#ArialMT-47" x="633.691406"/>
      <use xlink:href="#ArialMT-34" x="711.474609"/>
      <use xlink:href="#ArialMT-20" x="767.089844"/>
      <use xlink:href="#ArialMT-65" x="794.873047"/>
      <use xlink:href="#ArialMT-6e" x="850.488281"/>
      <use xlink:href="#ArialMT-72" x="906.103516"/>
      <use xlink:href="#ArialMT-69" x="939.404297"/>
      <use xlink:href="#ArialMT-63" x="961.621094"/>
      <use xlink:href="#ArialMT-68" x="1011.621094"/>
      <use xlink:href="#ArialMT-6d" x="1067.236328"/>
      <use xlink:href="#ArialMT-65" x="1150.537109"/>
      <use xlink:href="#ArialMT-6e" x="1206.152344"/>
      <use xlink:href="#ArialMT-74" x="1261.767578"/>
      <use xlink:href="#ArialMT-20" x="1289.550781"/>
      <use xlink:href="#ArialMT-63" x="1317.333984"/>
      <use xlink:href="#ArialMT-61" x="1367.333984"/>
      <use xlink:href="#ArialMT-6c" x="1422.949219"/>
      <use xlink:href="#ArialMT-63" x="1445.166016"/>
      <use xlink:href="#ArialMT-75" x="1495.166016"/>
      <use xlink:href="#ArialMT-6c" x="1550.78125"/>
      <use xlink:href="#ArialMT-61" x="1572.998047"/>
      <use xlink:href="#ArialMT-74" x="1628.613281"/>
      <use xlink:href="#ArialMT-65" x="1656.396484"/>
      <use xlink:href="#ArialMT-64" x="1712.011719"/>
     </g>
     <!-- over GC content (5Mb windows) -->
     <g transform="translate(34.204219 297.374297) rotate(-90) scale(0.15 -0.15)">
      <defs>
       <path id="ArialMT-4d" d="M 475 0 
L 475 4581 
L 1388 4581 
L 2472 1338 
Q 2622 884 2691 659 
Q 2769 909 2934 1394 
L 4031 4581 
L 4847 4581 
L 4847 0 
L 4263 0 
L 4263 3834 
L 2931 0 
L 2384 0 
L 1059 3900 
L 1059 0 
L 475 0 
z
" transform="scale(0.015625)"/>
       <path id="ArialMT-77" d="M 1034 0 
L 19 3319 
L 600 3319 
L 1128 1403 
L 1325 691 
Q 1338 744 1497 1375 
L 2025 3319 
L 2603 3319 
L 3100 1394 
L 3266 759 
L 3456 1400 
L 4025 3319 
L 4572 3319 
L 3534 0 
L 2950 0 
L 2422 1988 
L 2294 2553 
L 1622 0 
L 1034 0 
z
" transform="scale(0.015625)"/>
      </defs>
      <use xlink:href="#ArialMT-6f"/>
      <use xlink:href="#ArialMT-76" x="55.615234"/>
      <use xlink:href="#ArialMT-65" x="105.615234"/>
      <use xlink:href="#ArialMT-72" x="161.230469"/>
      <use xlink:href="#ArialMT-20" x="194.53125"/>
      <use xlink:href="#ArialMT-47" x="222.314453"/>
      <use xlink:href="#ArialMT-43" x="300.097656"/>
      <use xlink:href="#ArialMT-20" x="372.314453"/>
      <use xlink:href="#ArialMT-63" x="400.097656"/>
      <use xlink:href="#ArialMT-6f" x="450.097656"/>
      <use xlink:href="#ArialMT-6e" x="505.712891"/>
      <use xlink:href="#ArialMT-74" x="561.328125"/>
      <use xlink:href="#ArialMT-65" x="589.111328"/>
      <use xlink:href="#ArialMT-6e" x="644.726562"/>
      <use xlink:href="#ArialMT-74" x="700.341797"/>
      <use xlink:href="#ArialMT-20" x="728.125"/>
      <use xlink:href="#ArialMT-28" x="755.908203"/>
      <use xlink:href="#ArialMT-35" x="789.208984"/>
      <use xlink:href="#ArialMT-4d" x="844.824219"/>
      <use xlink:href="#ArialMT-62" x="928.125"/>
      <use xlink:href="#ArialMT-20" x="983.740234"/>
      <use xlink:href="#ArialMT-77" x="1011.523438"/>
      <use xlink:href="#ArialMT-69" x="1083.740234"/>
      <use xlink:href="#ArialMT-6e" x="1105.957031"/>
      <use xlink:href="#ArialMT-64" x="1161.572266"/>
      <use xlink:href="#ArialMT-6f" x="1217.1875"/>
      <use xlink:href="#ArialMT-77" x="1272.802734"/>
      <use xlink:href="#ArialMT-73" x="1345.019531"/>
      <use xlink:href="#ArialMT-29" x="1395.019531"/>
     </g>
    </g>
   </g>
   <g id="LineCollection_1">
    <path d="M 9.666438 190.256719 
L 1074.643125 190.256719 
" clip-path="url(#p39b5fa186b)" style="fill: none; stroke: #000000; stroke-width: 0.8"/>
   </g>
   <g id="patch_67">
    <path d="M 62.043125 356.576719 
L 62.043125 23.936719 
" style="fill: none; stroke: #000000; stroke-width: 0.8; stroke-linejoin: miter; stroke-linecap: square"/>
   </g>
   <g id="patch_68">
    <path d="M 1066.443125 356.576719 
L 1066.443125 23.936719 
" style="fill: none; stroke: #000000; stroke-width: 0.8; stroke-linejoin: miter; stroke-linecap: square"/>
   </g>
   <g id="patch_69">
    <path d="M 62.043125 356.576719 
L 1066.443125 356.576719 
" style="fill: none; stroke: #000000; stroke-width: 0.8; stroke-linejoin: miter; stroke-linecap: square"/>
   </g>
   <g id="patch_70">
    <path d="M 62.043125 23.936719 
L 1066.443125 23.936719 
" style="fill: none; stroke: #000000; stroke-width: 0.8; stroke-linejoin: miter; stroke-linecap: square"/>
   </g>
   <g id="text_23">
    <!-- ** -->
    <g transform="translate(93.192848 210.921394) rotate(-90) scale(0.18 -0.18)">
     <defs>
      <path id="ArialMT-2a" d="M 200 3741 
L 344 4184 
Q 841 4009 1066 3881 
Q 1006 4447 1003 4659 
L 1456 4659 
Q 1447 4350 1384 3884 
Q 1706 4047 2122 4184 
L 2266 3741 
Q 1869 3609 1488 3566 
Q 1678 3400 2025 2975 
L 1650 2709 
Q 1469 2956 1222 3381 
Q 991 2941 816 2709 
L 447 2975 
Q 809 3422 966 3566 
Q 563 3644 200 3741 
z
" transform="scale(0.015625)"/>
     </defs>
     <use xlink:href="#ArialMT-2a"/>
     <use xlink:href="#ArialMT-2a" x="38.916016"/>
    </g>
   </g>
   <g id="text_24">
    <!-- * -->
    <g transform="translate(105.516774 203.915456) rotate(-90) scale(0.18 -0.18)">
     <use xlink:href="#ArialMT-2a"/>
    </g>
   </g>
   <g id="text_25">
    <!-- * -->
    <g transform="translate(117.840701 203.915456) rotate(-90) scale(0.18 -0.18)">
     <use xlink:href="#ArialMT-2a"/>
    </g>
   </g>
   <g id="text_26">
    <!-- * -->
    <g transform="translate(154.81248 203.915456) rotate(-90) scale(0.18 -0.18)">
     <use xlink:href="#ArialMT-2a"/>
    </g>
   </g>
   <g id="text_27">
    <!-- *** -->
    <g transform="translate(167.136406 183.603919) rotate(-90) scale(0.18 -0.18)">
     <use xlink:href="#ArialMT-2a"/>
     <use xlink:href="#ArialMT-2a" x="38.916016"/>
     <use xlink:href="#ArialMT-2a" x="77.832031"/>
    </g>
   </g>
   <g id="text_28">
    <!-- *** -->
    <g transform="translate(179.460333 183.603919) rotate(-90) scale(0.18 -0.18)">
     <use xlink:href="#ArialMT-2a"/>
     <use xlink:href="#ArialMT-2a" x="38.916016"/>
     <use xlink:href="#ArialMT-2a" x="77.832031"/>
    </g>
   </g>
   <g id="text_29">
    <!-- *** -->
    <g transform="translate(191.784259 183.603919) rotate(-90) scale(0.18 -0.18)">
     <use xlink:href="#ArialMT-2a"/>
     <use xlink:href="#ArialMT-2a" x="38.916016"/>
     <use xlink:href="#ArialMT-2a" x="77.832031"/>
    </g>
   </g>
   <g id="text_30">
    <!-- ** -->
    <g transform="translate(216.432112 210.921394) rotate(-90) scale(0.18 -0.18)">
     <use xlink:href="#ArialMT-2a"/>
     <use xlink:href="#ArialMT-2a" x="38.916016"/>
    </g>
   </g>
   <g id="text_31">
    <!-- ** -->
    <g transform="translate(228.756038 183.603919) rotate(-90) scale(0.18 -0.18)">
     <use xlink:href="#ArialMT-2a"/>
     <use xlink:href="#ArialMT-2a" x="38.916016"/>
    </g>
   </g>
   <g id="text_32">
    <!-- *** -->
    <g transform="translate(241.079965 183.603919) rotate(-90) scale(0.18 -0.18)">
     <use xlink:href="#ArialMT-2a"/>
     <use xlink:href="#ArialMT-2a" x="38.916016"/>
     <use xlink:href="#ArialMT-2a" x="77.832031"/>
    </g>
   </g>
   <g id="text_33">
    <!-- *** -->
    <g transform="translate(253.403891 183.603919) rotate(-90) scale(0.18 -0.18)">
     <use xlink:href="#ArialMT-2a"/>
     <use xlink:href="#ArialMT-2a" x="38.916016"/>
     <use xlink:href="#ArialMT-2a" x="77.832031"/>
    </g>
   </g>
   <g id="text_34">
    <!-- *** -->
    <g transform="translate(278.051744 183.603919) rotate(-90) scale(0.18 -0.18)">
     <use xlink:href="#ArialMT-2a"/>
     <use xlink:href="#ArialMT-2a" x="38.916016"/>
     <use xlink:href="#ArialMT-2a" x="77.832031"/>
    </g>
   </g>
   <g id="text_35">
    <!-- *** -->
    <g transform="translate(290.37567 183.603919) rotate(-90) scale(0.18 -0.18)">
     <use xlink:href="#ArialMT-2a"/>
     <use xlink:href="#ArialMT-2a" x="38.916016"/>
     <use xlink:href="#ArialMT-2a" x="77.832031"/>
    </g>
   </g>
   <g id="text_36">
    <!-- *** -->
    <g transform="translate(302.699596 183.603919) rotate(-90) scale(0.18 -0.18)">
     <use xlink:href="#ArialMT-2a"/>
     <use xlink:href="#ArialMT-2a" x="38.916016"/>
     <use xlink:href="#ArialMT-2a" x="77.832031"/>
    </g>
   </g>
   <g id="text_37">
    <!-- *** -->
    <g transform="translate(315.023523 183.603919) rotate(-90) scale(0.18 -0.18)">
     <use xlink:href="#ArialMT-2a"/>
     <use xlink:href="#ArialMT-2a" x="38.916016"/>
     <use xlink:href="#ArialMT-2a" x="77.832031"/>
    </g>
   </g>
   <g id="text_38">
    <!-- ** -->
    <g transform="translate(339.671376 183.603919) rotate(-90) scale(0.18 -0.18)">
     <use xlink:href="#ArialMT-2a"/>
     <use xlink:href="#ArialMT-2a" x="38.916016"/>
    </g>
   </g>
   <g id="text_39">
    <!-- *** -->
    <g transform="translate(351.995302 183.603919) rotate(-90) scale(0.18 -0.18)">
     <use xlink:href="#ArialMT-2a"/>
     <use xlink:href="#ArialMT-2a" x="38.916016"/>
     <use xlink:href="#ArialMT-2a" x="77.832031"/>
    </g>
   </g>
   <g id="text_40">
    <!-- *** -->
    <g transform="translate(364.319228 183.603919) rotate(-90) scale(0.18 -0.18)">
     <use xlink:href="#ArialMT-2a"/>
     <use xlink:href="#ArialMT-2a" x="38.916016"/>
     <use xlink:href="#ArialMT-2a" x="77.832031"/>
    </g>
   </g>
   <g id="text_41">
    <!-- *** -->
    <g transform="translate(376.643155 183.603919) rotate(-90) scale(0.18 -0.18)">
     <use xlink:href="#ArialMT-2a"/>
     <use xlink:href="#ArialMT-2a" x="38.916016"/>
     <use xlink:href="#ArialMT-2a" x="77.832031"/>
    </g>
   </g>
   <g id="text_42">
    <!-- * -->
    <g transform="translate(524.530271 203.915456) rotate(-90) scale(0.18 -0.18)">
     <use xlink:href="#ArialMT-2a"/>
    </g>
   </g>
   <g id="text_43">
    <!-- ** -->
    <g transform="translate(586.149903 210.921394) rotate(-90) scale(0.18 -0.18)">
     <use xlink:href="#ArialMT-2a"/>
     <use xlink:href="#ArialMT-2a" x="38.916016"/>
    </g>
   </g>
   <g id="text_44">
    <!-- * -->
    <g transform="translate(598.47383 203.915456) rotate(-90) scale(0.18 -0.18)">
     <use xlink:href="#ArialMT-2a"/>
    </g>
   </g>
   <g id="text_45">
    <!-- * -->
    <g transform="translate(660.093461 183.603919) rotate(-90) scale(0.18 -0.18)">
     <use xlink:href="#ArialMT-2a"/>
    </g>
   </g>
   <g id="text_46">
    <!-- ** -->
    <g transform="translate(672.417388 183.603919) rotate(-90) scale(0.18 -0.18)">
     <use xlink:href="#ArialMT-2a"/>
     <use xlink:href="#ArialMT-2a" x="38.916016"/>
    </g>
   </g>
   <g id="text_47">
    <!-- *** -->
    <g transform="translate(684.741314 183.603919) rotate(-90) scale(0.18 -0.18)">
     <use xlink:href="#ArialMT-2a"/>
     <use xlink:href="#ArialMT-2a" x="38.916016"/>
     <use xlink:href="#ArialMT-2a" x="77.832031"/>
    </g>
   </g>
   <g id="text_48">
    <!-- * -->
    <g transform="translate(832.628431 203.915456) rotate(-90) scale(0.18 -0.18)">
     <use xlink:href="#ArialMT-2a"/>
    </g>
   </g>
   <g id="text_49">
    <!-- * -->
    <g transform="translate(844.952357 203.915456) rotate(-90) scale(0.18 -0.18)">
     <use xlink:href="#ArialMT-2a"/>
    </g>
   </g>
   <g id="text_50">
    <!-- *** -->
    <g transform="translate(894.248063 183.603919) rotate(-90) scale(0.18 -0.18)">
     <use xlink:href="#ArialMT-2a"/>
     <use xlink:href="#ArialMT-2a" x="38.916016"/>
     <use xlink:href="#ArialMT-2a" x="77.832031"/>
    </g>
   </g>
   <g id="text_51">
    <!-- *** -->
    <g transform="translate(906.571989 183.603919) rotate(-90) scale(0.18 -0.18)">
     <use xlink:href="#ArialMT-2a"/>
     <use xlink:href="#ArialMT-2a" x="38.916016"/>
     <use xlink:href="#ArialMT-2a" x="77.832031"/>
    </g>
   </g>
   <g id="text_52">
    <!-- *** -->
    <g transform="translate(918.895915 183.603919) rotate(-90) scale(0.18 -0.18)">
     <use xlink:href="#ArialMT-2a"/>
     <use xlink:href="#ArialMT-2a" x="38.916016"/>
     <use xlink:href="#ArialMT-2a" x="77.832031"/>
    </g>
   </g>
   <g id="text_53">
    <!-- * -->
    <g transform="translate(931.219842 203.915456) rotate(-90) scale(0.18 -0.18)">
     <use xlink:href="#ArialMT-2a"/>
    </g>
   </g>
   <g id="text_54">
    <!-- Human -->
    <g transform="translate(62.043125 17.936719) scale(0.15 -0.15)">
     <defs>
      <path id="Arial-BoldMT-48" d="M 469 0 
L 469 4581 
L 1394 4581 
L 1394 2778 
L 3206 2778 
L 3206 4581 
L 4131 4581 
L 4131 0 
L 3206 0 
L 3206 2003 
L 1394 2003 
L 1394 0 
L 469 0 
z
" transform="scale(0.015625)"/>
      <path id="Arial-BoldMT-75" d="M 2644 0 
L 2644 497 
Q 2463 231 2167 78 
Q 1872 -75 1544 -75 
Q 1209 -75 943 72 
Q 678 219 559 484 
Q 441 750 441 1219 
L 441 3319 
L 1319 3319 
L 1319 1794 
Q 1319 1094 1367 936 
Q 1416 778 1544 686 
Q 1672 594 1869 594 
Q 2094 594 2272 717 
Q 2450 841 2515 1023 
Q 2581 1206 2581 1919 
L 2581 3319 
L 3459 3319 
L 3459 0 
L 2644 0 
z
" transform="scale(0.015625)"/>
      <path id="Arial-BoldMT-6d" d="M 394 3319 
L 1203 3319 
L 1203 2866 
Q 1638 3394 2238 3394 
Q 2556 3394 2790 3262 
Q 3025 3131 3175 2866 
Q 3394 3131 3647 3262 
Q 3900 3394 4188 3394 
Q 4553 3394 4806 3245 
Q 5059 3097 5184 2809 
Q 5275 2597 5275 2122 
L 5275 0 
L 4397 0 
L 4397 1897 
Q 4397 2391 4306 2534 
Q 4184 2722 3931 2722 
Q 3747 2722 3584 2609 
Q 3422 2497 3350 2280 
Q 3278 2063 3278 1594 
L 3278 0 
L 2400 0 
L 2400 1819 
Q 2400 2303 2353 2443 
Q 2306 2584 2207 2653 
Q 2109 2722 1941 2722 
Q 1738 2722 1575 2612 
Q 1413 2503 1342 2297 
Q 1272 2091 1272 1613 
L 1272 0 
L 394 0 
L 394 3319 
z
" transform="scale(0.015625)"/>
      <path id="Arial-BoldMT-61" d="M 1116 2306 
L 319 2450 
Q 453 2931 781 3162 
Q 1109 3394 1756 3394 
Q 2344 3394 2631 3255 
Q 2919 3116 3036 2902 
Q 3153 2688 3153 2116 
L 3144 1091 
Q 3144 653 3186 445 
Q 3228 238 3344 0 
L 2475 0 
Q 2441 88 2391 259 
Q 2369 338 2359 363 
Q 2134 144 1878 34 
Q 1622 -75 1331 -75 
Q 819 -75 523 203 
Q 228 481 228 906 
Q 228 1188 362 1408 
Q 497 1628 739 1745 
Q 981 1863 1438 1950 
Q 2053 2066 2291 2166 
L 2291 2253 
Q 2291 2506 2166 2614 
Q 2041 2722 1694 2722 
Q 1459 2722 1328 2630 
Q 1197 2538 1116 2306 
z
M 2291 1594 
Q 2122 1538 1756 1459 
Q 1391 1381 1278 1306 
Q 1106 1184 1106 997 
Q 1106 813 1243 678 
Q 1381 544 1594 544 
Q 1831 544 2047 700 
Q 2206 819 2256 991 
Q 2291 1103 2291 1419 
L 2291 1594 
z
" transform="scale(0.015625)"/>
      <path id="Arial-BoldMT-6e" d="M 3478 0 
L 2600 0 
L 2600 1694 
Q 2600 2231 2544 2389 
Q 2488 2547 2361 2634 
Q 2234 2722 2056 2722 
Q 1828 2722 1647 2597 
Q 1466 2472 1398 2265 
Q 1331 2059 1331 1503 
L 1331 0 
L 453 0 
L 453 3319 
L 1269 3319 
L 1269 2831 
Q 1703 3394 2363 3394 
Q 2653 3394 2893 3289 
Q 3134 3184 3257 3021 
Q 3381 2859 3429 2653 
Q 3478 2447 3478 2063 
L 3478 0 
z
" transform="scale(0.015625)"/>
     </defs>
     <use xlink:href="#Arial-BoldMT-48"/>
     <use xlink:href="#Arial-BoldMT-75" x="72.216797"/>
     <use xlink:href="#Arial-BoldMT-6d" x="133.300781"/>
     <use xlink:href="#Arial-BoldMT-61" x="222.216797"/>
     <use xlink:href="#Arial-BoldMT-6e" x="277.832031"/>
    </g>
   </g>
   <g id="legend_1">
    <g id="patch_71">
     <path d="M 907.34 43.472344 
L 931.34 43.472344 
L 931.34 35.072344 
L 907.34 35.072344 
z
" style="fill: #004d71; opacity: 0.8; stroke: #000000; stroke-linejoin: miter"/>
    </g>
    <g id="text_55">
     <!-- Great ape pG4s -->
     <g transform="translate(940.94 43.472344) scale(0.12 -0.12)">
      <use xlink:href="#ArialMT-47"/>
      <use xlink:href="#ArialMT-72" x="77.783203"/>
      <use xlink:href="#ArialMT-65" x="111.083984"/>
      <use xlink:href="#ArialMT-61" x="166.699219"/>
      <use xlink:href="#ArialMT-74" x="222.314453"/>
      <use xlink:href="#ArialMT-20" x="250.097656"/>
      <use xlink:href="#ArialMT-61" x="277.880859"/>
      <use xlink:href="#ArialMT-70" x="333.496094"/>
      <use xlink:href="#ArialMT-65" x="389.111328"/>
      <use xlink:href="#ArialMT-20" x="444.726562"/>
      <use xlink:href="#ArialMT-70" x="472.509766"/>
      <use xlink:href="#ArialMT-47" x="528.125"/>
      <use xlink:href="#ArialMT-34" x="605.908203"/>
      <use xlink:href="#ArialMT-73" x="661.523438"/>
     </g>
    </g>
    <g id="patch_72">
     <path d="M 907.34 60.592969 
L 931.34 60.592969 
L 931.34 52.192969 
L 907.34 52.192969 
z
" style="fill: #8759a1; opacity: 0.8; stroke: #000000; stroke-linejoin: miter"/>
    </g>
    <g id="text_56">
     <!-- Homininae pG4s -->
     <g transform="translate(940.94 60.592969) scale(0.12 -0.12)">
      <defs>
       <path id="ArialMT-48" d="M 513 0 
L 513 4581 
L 1119 4581 
L 1119 2700 
L 3500 2700 
L 3500 4581 
L 4106 4581 
L 4106 0 
L 3500 0 
L 3500 2159 
L 1119 2159 
L 1119 0 
L 513 0 
z
" transform="scale(0.015625)"/>
      </defs>
      <use xlink:href="#ArialMT-48"/>
      <use xlink:href="#ArialMT-6f" x="72.216797"/>
      <use xlink:href="#ArialMT-6d" x="127.832031"/>
      <use xlink:href="#ArialMT-69" x="211.132812"/>
      <use xlink:href="#ArialMT-6e" x="233.349609"/>
      <use xlink:href="#ArialMT-69" x="288.964844"/>
      <use xlink:href="#ArialMT-6e" x="311.181641"/>
      <use xlink:href="#ArialMT-61" x="366.796875"/>
      <use xlink:href="#ArialMT-65" x="422.412109"/>
      <use xlink:href="#ArialMT-20" x="478.027344"/>
      <use xlink:href="#ArialMT-70" x="505.810547"/>
      <use xlink:href="#ArialMT-47" x="561.425781"/>
      <use xlink:href="#ArialMT-34" x="639.208984"/>
      <use xlink:href="#ArialMT-73" x="694.824219"/>
     </g>
    </g>
    <g id="patch_73">
     <path d="M 907.34 77.713594 
L 931.34 77.713594 
L 931.34 69.313594 
L 907.34 69.313594 
z
" style="fill: #f75a78; opacity: 0.8; stroke: #000000; stroke-linejoin: miter"/>
    </g>
    <g id="text_57">
     <!-- Hominini pG4s -->
     <g transform="translate(940.94 77.713594) scale(0.12 -0.12)">
      <use xlink:href="#ArialMT-48"/>
      <use xlink:href="#ArialMT-6f" x="72.216797"/>
      <use xlink:href="#ArialMT-6d" x="127.832031"/>
      <use xlink:href="#ArialMT-69" x="211.132812"/>
      <use xlink:href="#ArialMT-6e" x="233.349609"/>
      <use xlink:href="#ArialMT-69" x="288.964844"/>
      <use xlink:href="#ArialMT-6e" x="311.181641"/>
      <use xlink:href="#ArialMT-69" x="366.796875"/>
      <use xlink:href="#ArialMT-20" x="389.013672"/>
      <use xlink:href="#ArialMT-70" x="416.796875"/>
      <use xlink:href="#ArialMT-47" x="472.412109"/>
      <use xlink:href="#ArialMT-34" x="550.195312"/>
      <use xlink:href="#ArialMT-73" x="605.810547"/>
     </g>
    </g>
    <g id="patch_74">
     <path d="M 907.34 94.834219 
L 931.34 94.834219 
L 931.34 86.434219 
L 907.34 86.434219 
z
" style="fill: #ffa600; opacity: 0.8; stroke: #000000; stroke-linejoin: miter"/>
    </g>
    <g id="text_58">
     <!-- Human-specific pG4s -->
     <g transform="translate(940.94 94.834219) scale(0.12 -0.12)">
      <use xlink:href="#ArialMT-48"/>
      <use xlink:href="#ArialMT-75" x="72.216797"/>
      <use xlink:href="#ArialMT-6d" x="127.832031"/>
      <use xlink:href="#ArialMT-61" x="211.132812"/>
      <use xlink:href="#ArialMT-6e" x="266.748047"/>
      <use xlink:href="#ArialMT-2d" x="322.363281"/>
      <use xlink:href="#ArialMT-73" x="355.664062"/>
      <use xlink:href="#ArialMT-70" x="405.664062"/>
      <use xlink:href="#ArialMT-65" x="461.279297"/>
      <use xlink:href="#ArialMT-63" x="516.894531"/>
      <use xlink:href="#ArialMT-69" x="566.894531"/>
      <use xlink:href="#ArialMT-66" x="589.111328"/>
      <use xlink:href="#ArialMT-69" x="616.894531"/>
      <use xlink:href="#ArialMT-63" x="639.111328"/>
      <use xlink:href="#ArialMT-20" x="689.111328"/>
      <use xlink:href="#ArialMT-70" x="716.894531"/>
      <use xlink:href="#ArialMT-47" x="772.509766"/>
      <use xlink:href="#ArialMT-34" x="850.292969"/>
      <use xlink:href="#ArialMT-73" x="905.908203"/>
     </g>
    </g>
   </g>
  </g>
 </g>
 <defs>
  <clipPath id="p39b5fa186b">
   <rect x="62.043125" y="23.936719" width="1004.4" height="332.64"/>
  </clipPath>
 </defs>
</svg>
